<?xml version="1.0" standalone="no"?><!DOCTYPE svg PUBLIC "-//W3C//DTD SVG 1.1//EN" "http://www.w3.org/Graphics/SVG/1.1/DTD/svg11.dtd" ><svg version="1.1" xmlns="http://www.w3.org/2000/svg"><defs><font horiz-adv-x="0" id="font"><font-face ascent="832" bbox="-206 -268 1359 1002" cap-height="678" descent="-168" font-family="Gustan Bold" font-stretch="normal" font-style="normal" font-weight="600" units-per-em="1000" x-height="510" /><missing-glyph d="M800 115V665L525 390ZM160 665V115L435 390ZM480 435 759 714H201ZM201 66H759L480 345ZM90 780H870V0H90Z" horiz-adv-x="960" /><glyph d="M414 261 367 403Q353 448 342 485Q331 522 322 554H319Q310 522 299 485Q288 448 274 403L227 261ZM449 157H190L139 0H0L244 678H402L646 0H501Z" glyph-name="A" horiz-adv-x="646" unicode="A" /><glyph d="M264 261H476V573H473Q463 557 450 537Q437 517 423 495.5Q409 474 394.5 452.5Q380 431 367 412ZM929 0H476V157H193L83 0H-80L411 678H922V571H614V399H878V292H614V107H929Z" glyph-name="AE" horiz-adv-x="960" unicode="&#198;" /><glyph d="M663 733H554L666 846H823ZM264 261H476V573H473Q463 557 450 537Q437 517 423 495.5Q409 474 394.5 452.5Q380 431 367 412ZM929 0H476V157H193L83 0H-80L411 678H922V571H614V399H878V292H614V107H929Z" glyph-name="AEacute" horiz-adv-x="960" unicode="&#508;" /><glyph d="M723 756H363V846H723ZM264 261H476V573H473Q463 557 450 537Q437 517 423 495.5Q409 474 394.5 452.5Q380 431 367 412ZM929 0H476V157H193L83 0H-80L411 678H922V571H614V399H878V292H614V107H929Z" glyph-name="AEmacron" horiz-adv-x="960" unicode="&#482;" /><glyph d="M379 733H270L382 846H539ZM414 261 367 403Q353 448 342 485Q331 522 322 554H319Q310 522 299 485Q288 448 274 403L227 261ZM449 157H190L139 0H0L244 678H402L646 0H501Z" glyph-name="Aacute" horiz-adv-x="646" unicode="&#193;" /><glyph d="M322 795Q356 795 377.5 806Q399 817 407 846H511Q506 812 489.5 788Q473 764 448.5 748.5Q424 733 391.5 726Q359 719 322 719Q285 719 252.5 726Q220 733 195.5 748.5Q171 764 154.5 788Q138 812 133 846H237Q245 817 266.5 806Q288 795 322 795ZM414 261 367 403Q353 448 342 485Q331 522 322 554H319Q310 522 299 485Q288 448 274 403L227 261ZM449 157H190L139 0H0L244 678H402L646 0H501Z" glyph-name="Abreve" horiz-adv-x="646" unicode="&#258;" /><glyph d="M264 729 143 849H262L323 792L384 849H504L382 729ZM414 261 367 403Q353 448 342 485Q331 522 322 554H319Q310 522 299 485Q288 448 274 403L227 261ZM449 157H190L139 0H0L244 678H402L646 0H501Z" glyph-name="Acaron" horiz-adv-x="646" unicode="&#461;" /><glyph d="M382 849 504 729H384L323 786L262 729H143L264 849ZM414 261 367 403Q353 448 342 485Q331 522 322 554H319Q310 522 299 485Q288 448 274 403L227 261ZM449 157H190L139 0H0L244 678H402L646 0H501Z" glyph-name="Acircumflex" horiz-adv-x="646" unicode="&#194;" /><glyph d="M496 740H370V844H496ZM271 740H145V844H271ZM414 261 367 403Q353 448 342 485Q331 522 322 554H319Q310 522 299 485Q288 448 274 403L227 261ZM449 157H190L139 0H0L244 678H402L646 0H501Z" glyph-name="Adieresis" horiz-adv-x="646" unicode="&#196;" /><glyph d="M414 261 367 403Q353 448 342 485Q331 522 322 554H319Q310 522 299 485Q288 448 274 403L227 261ZM449 157H190L139 0H0L244 678H402L646 0H501ZM500 912H140V1002H500ZM498 738H368V846H498ZM273 738H143V846H273Z" glyph-name="Adieresismacron" horiz-adv-x="646" unicode="&#478;" /><glyph d="M389 742H257V846H389ZM414 261 367 403Q353 448 342 485Q331 522 322 554H319Q310 522 299 485Q288 448 274 403L227 261ZM449 157H190L139 0H0L244 678H402L646 0H501Z" glyph-name="Adotabove" horiz-adv-x="646" unicode="&#550;" /><glyph d="M27 846H170L280 731H185ZM214 846H357L467 731H372ZM414 261 367 403Q353 448 342 485Q331 522 322 554H319Q310 522 299 485Q288 448 274 403L227 261ZM449 157H190L139 0H0L244 678H402L646 0H501Z" glyph-name="Adoublegrave" horiz-adv-x="646" unicode="&#512;" /><glyph d="M109 846H266L378 733H269ZM414 261 367 403Q353 448 342 485Q331 522 322 554H319Q310 522 299 485Q288 448 274 403L227 261ZM449 157H190L139 0H0L244 678H402L646 0H501Z" glyph-name="Agrave" horiz-adv-x="646" unicode="&#192;" /><glyph d="M323 782Q289 782 267.5 771Q246 760 238 731H134Q139 765 155.5 789Q172 813 196.5 828.5Q221 844 253.5 851Q286 858 323 858Q360 858 392.5 851Q425 844 449.5 828.5Q474 813 490.5 789Q507 765 512 731H408Q400 760 378.5 771Q357 782 323 782ZM414 261 367 403Q353 448 342 485Q331 522 322 554H319Q310 522 299 485Q288 448 274 403L227 261ZM449 157H190L139 0H0L244 678H402L646 0H501Z" glyph-name="Ainvertedbreve" horiz-adv-x="646" unicode="&#514;" /><glyph d="M501 756H141V846H501ZM414 261 367 403Q353 448 342 485Q331 522 322 554H319Q310 522 299 485Q288 448 274 403L227 261ZM449 157H190L139 0H0L244 678H402L646 0H501Z" glyph-name="Amacron" horiz-adv-x="646" unicode="&#256;" /><glyph d="M503 0 397 314Q388 341 377.5 373.5Q367 406 356.5 438.5Q346 471 337.5 499.5Q329 528 323 546H320Q314 528 305.5 499.5Q297 471 286.5 438.5Q276 406 265.5 373.5Q255 341 246 314L140 0H0L244 678H402L646 0Z" glyph-name="Anocross" horiz-adv-x="646" unicode="&#59185;" /><glyph d="M584 -82Q584 -113 624 -113Q641 -113 656.5 -111Q672 -109 692 -102V-170Q671 -178 644.5 -181Q618 -184 601 -184Q547 -184 518 -163.5Q489 -143 489 -106Q489 -77 505.5 -48.5Q522 -20 551 0H646Q608 -20 596 -43Q584 -66 584 -82ZM414 261 367 403Q353 448 342 485Q331 522 322 554H319Q310 522 299 485Q288 448 274 403L227 261ZM449 157H190L139 0H0L244 678H402L646 0H501Z" glyph-name="Aogonek" horiz-adv-x="646" unicode="&#260;" /><glyph d="M427 801Q427 758 400.5 739.5Q374 721 324 721Q274 721 247 739.5Q220 758 220 801Q220 844 247 862.5Q274 881 324 881Q374 881 400.5 862.5Q427 844 427 801ZM358 801Q358 833 324 833Q289 833 289 801Q289 771 324 771Q358 771 358 801ZM414 261 367 403Q353 448 342 485Q331 522 322 554H319Q310 522 299 485Q288 448 274 403L227 261ZM449 157H190L139 0H0L244 678H402L646 0H501Z" glyph-name="Aring" horiz-adv-x="646" unicode="&#197;" /><glyph d="M358 801Q358 833 324 833Q289 833 289 801Q289 771 324 771Q358 771 358 801ZM427 803Q427 760 399.5 741.5Q372 723 324 723Q276 723 248 741.5Q220 760 220 803Q220 823 230.5 840Q241 857 256 874L339 957H425L347 879Q385 877 406 858Q427 839 427 803ZM414 261 367 403Q353 448 342 485Q331 522 322 554H319Q310 522 299 485Q288 448 274 403L227 261ZM449 157H190L139 0H0L244 678H402L646 0H501Z" glyph-name="Aringacute" horiz-adv-x="646" unicode="&#506;" /><glyph d="M414 261 367 403Q353 448 342 485Q331 522 322 554H319Q310 522 299 485Q288 448 274 403L227 261ZM398 828Q421 828 451.5 840Q482 852 502 867V779Q494 772 481.5 765Q469 758 454.5 752.5Q440 747 424.5 743.5Q409 740 396 740Q372 740 353 745Q334 750 317.5 756Q301 762 284 767Q267 772 248 772Q224 772 193 760Q162 748 139 734V823Q148 829 161 836Q174 843 189 849Q204 855 219.5 858.5Q235 862 248 862Q273 862 291.5 856.5Q310 851 327 845Q344 839 360.5 833.5Q377 828 398 828ZM449 157H190L139 0H0L244 678H402L646 0H501Z" glyph-name="Atilde" horiz-adv-x="646" unicode="&#195;" /><glyph d="M463 198Q463 223 457.5 242.5Q452 262 441 273Q427 287 406 291Q385 295 353 295H219V101H353Q385 101 406 105Q427 109 441 123Q452 134 457.5 153.5Q463 173 463 198ZM498 352Q513 345 531.5 332Q550 319 566.5 299Q583 279 594.5 251.5Q606 224 606 188Q606 139 593 105.5Q580 72 557 49Q525 17 471.5 8.5Q418 0 350 0H81V678H333Q402 678 456.5 667.5Q511 657 542 625Q562 605 574 575Q586 545 586 503Q586 467 577 442.5Q568 418 554.5 400.5Q541 383 526 372Q511 361 498 354ZM337 396Q368 396 388 399Q408 402 422 416Q431 425 437 444Q443 463 443 486Q443 509 437 528Q431 547 422 556Q408 570 388 573Q368 576 337 576H219V396Z" glyph-name="B" horiz-adv-x="643" unicode="B" /><glyph d="M47 338Q47 524 122.5 609Q198 694 353 694Q362 694 381.5 693.5Q401 693 426 690.5Q451 688 478 683Q505 678 528 669V566Q505 572 482.5 576Q460 580 439.5 582Q419 584 403 585Q387 586 377 586Q330 586 295.5 575.5Q261 565 238.5 537Q216 509 205.5 461.5Q195 414 195 341Q195 264 205.5 216.5Q216 169 238.5 142.5Q261 116 295.5 107Q330 98 377 98Q392 98 413 99.5Q434 101 456.5 104.5Q479 108 501.5 112.5Q524 117 543 123V14Q523 6 496.5 0.5Q470 -5 443.5 -9Q417 -13 393 -14.5Q369 -16 353 -16Q280 -16 223 3.5Q166 23 127 65.5Q88 108 67.5 175Q47 242 47 338Z" glyph-name="C" horiz-adv-x="577" unicode="C" /><glyph d="M361 733H252L364 846H521ZM47 338Q47 524 122.5 609Q198 694 353 694Q362 694 381.5 693.5Q401 693 426 690.5Q451 688 478 683Q505 678 528 669V566Q505 572 482.5 576Q460 580 439.5 582Q419 584 403 585Q387 586 377 586Q330 586 295.5 575.5Q261 565 238.5 537Q216 509 205.5 461.5Q195 414 195 341Q195 264 205.5 216.5Q216 169 238.5 142.5Q261 116 295.5 107Q330 98 377 98Q392 98 413 99.5Q434 101 456.5 104.5Q479 108 501.5 112.5Q524 117 543 123V14Q523 6 496.5 0.5Q470 -5 443.5 -9Q417 -13 393 -14.5Q369 -16 353 -16Q280 -16 223 3.5Q166 23 127 65.5Q88 108 67.5 175Q47 242 47 338Z" glyph-name="Cacute" horiz-adv-x="577" unicode="&#262;" /><glyph d="M274 729 153 849H272L333 792L394 849H514L392 729ZM47 338Q47 524 122.5 609Q198 694 353 694Q362 694 381.5 693.5Q401 693 426 690.5Q451 688 478 683Q505 678 528 669V566Q505 572 482.5 576Q460 580 439.5 582Q419 584 403 585Q387 586 377 586Q330 586 295.5 575.5Q261 565 238.5 537Q216 509 205.5 461.5Q195 414 195 341Q195 264 205.5 216.5Q216 169 238.5 142.5Q261 116 295.5 107Q330 98 377 98Q392 98 413 99.5Q434 101 456.5 104.5Q479 108 501.5 112.5Q524 117 543 123V14Q523 6 496.5 0.5Q470 -5 443.5 -9Q417 -13 393 -14.5Q369 -16 353 -16Q280 -16 223 3.5Q166 23 127 65.5Q88 108 67.5 175Q47 242 47 338Z" glyph-name="Ccaron" horiz-adv-x="577" unicode="&#268;" /><glyph d="M304 -13Q242 -7 194.5 15.5Q147 38 114 80.5Q81 123 64 187Q47 251 47 338Q47 524 122.5 609Q198 694 353 694Q362 694 381.5 693.5Q401 693 426 690.5Q451 688 478 683Q505 678 528 669V566Q505 572 482.5 576Q460 580 439.5 582Q419 584 403 585Q387 586 377 586Q330 586 295.5 575.5Q261 565 238.5 537Q216 509 205.5 461.5Q195 414 195 341Q195 264 205.5 216.5Q216 169 238.5 142.5Q261 116 295.5 107Q330 98 377 98Q392 98 413 99.5Q434 101 456.5 104.5Q479 108 501.5 112.5Q524 117 543 123V14Q514 3 473 -4Q432 -11 398 -14L386 -43Q423 -56 435 -73.5Q447 -91 447 -108Q447 -143 414 -163.5Q381 -184 311 -184Q290 -184 267.5 -181.5Q245 -179 216 -170V-102Q245 -111 263 -114Q281 -117 293 -117Q313 -117 325 -113Q337 -109 337 -97Q337 -86 324.5 -81Q312 -76 295 -75L289 -48Z" glyph-name="Ccedilla" horiz-adv-x="577" unicode="&#199;" /><glyph d="M398 849 520 729H400L339 786L278 729H159L280 849ZM47 338Q47 524 122.5 609Q198 694 353 694Q362 694 381.5 693.5Q401 693 426 690.5Q451 688 478 683Q505 678 528 669V566Q505 572 482.5 576Q460 580 439.5 582Q419 584 403 585Q387 586 377 586Q330 586 295.5 575.5Q261 565 238.5 537Q216 509 205.5 461.5Q195 414 195 341Q195 264 205.5 216.5Q216 169 238.5 142.5Q261 116 295.5 107Q330 98 377 98Q392 98 413 99.5Q434 101 456.5 104.5Q479 108 501.5 112.5Q524 117 543 123V14Q523 6 496.5 0.5Q470 -5 443.5 -9Q417 -13 393 -14.5Q369 -16 353 -16Q280 -16 223 3.5Q166 23 127 65.5Q88 108 67.5 175Q47 242 47 338Z" glyph-name="Ccircumflex" horiz-adv-x="577" unicode="&#264;" /><glyph d="M402 742H270V846H402ZM47 338Q47 524 122.5 609Q198 694 353 694Q362 694 381.5 693.5Q401 693 426 690.5Q451 688 478 683Q505 678 528 669V566Q505 572 482.5 576Q460 580 439.5 582Q419 584 403 585Q387 586 377 586Q330 586 295.5 575.5Q261 565 238.5 537Q216 509 205.5 461.5Q195 414 195 341Q195 264 205.5 216.5Q216 169 238.5 142.5Q261 116 295.5 107Q330 98 377 98Q392 98 413 99.5Q434 101 456.5 104.5Q479 108 501.5 112.5Q524 117 543 123V14Q523 6 496.5 0.5Q470 -5 443.5 -9Q417 -13 393 -14.5Q369 -16 353 -16Q280 -16 223 3.5Q166 23 127 65.5Q88 108 67.5 175Q47 242 47 338Z" glyph-name="Cdotaccent" horiz-adv-x="577" unicode="&#266;" /><glyph d="M403 297H49V379H403Z" glyph-name="Crossbar" horiz-adv-x="448" unicode="&#59204;" /><glyph d="M444 318H29V425H444Z" glyph-name="Crossbar.cap" horiz-adv-x="448" unicode="&#59205;" /><glyph d="M612 116H260V195H612Z" glyph-name="Crossbar.small" horiz-adv-x="448" unicode="&#59206;" /><glyph d="M81 0V678H326Q407 678 470.5 659.5Q534 641 574 599Q653 515 653 339Q653 153 568 71Q528 33 474 16.5Q420 0 340 0ZM344 107Q376 107 402.5 112Q429 117 449 137Q476 163 491 211Q506 259 506 339Q506 415 492 462.5Q478 510 452 538Q432 560 404.5 565.5Q377 571 345 571H219V107Z" glyph-name="D" horiz-adv-x="700" unicode="D" /><glyph d="M264 729 143 849H262L323 792L384 849H504L382 729ZM81 0V678H326Q407 678 470.5 659.5Q534 641 574 599Q653 515 653 339Q653 153 568 71Q528 33 474 16.5Q420 0 340 0ZM344 107Q376 107 402.5 112Q429 117 449 137Q476 163 491 211Q506 259 506 339Q506 415 492 462.5Q478 510 452 538Q432 560 404.5 565.5Q377 571 345 571H219V107Z" glyph-name="Dcaron" horiz-adv-x="700" unicode="&#270;" /><glyph d="M306 -38Q347 -40 372.5 -48Q398 -56 412 -67Q426 -78 431 -90Q436 -102 436 -112Q436 -147 403 -165.5Q370 -184 300 -184Q279 -184 256.5 -181.5Q234 -179 205 -170V-102Q234 -111 252 -114Q270 -117 282 -117Q302 -117 314 -113Q326 -109 326 -97Q326 -86 315 -81.5Q304 -77 286 -74ZM81 0V678H326Q407 678 470.5 659.5Q534 641 574 599Q653 515 653 339Q653 153 568 71Q528 33 474 16.5Q420 0 340 0ZM344 107Q376 107 402.5 112Q429 117 449 137Q476 163 491 211Q506 259 506 339Q506 415 492 462.5Q478 510 452 538Q432 560 404.5 565.5Q377 571 345 571H219V107Z" glyph-name="Dcedilla" horiz-adv-x="700" unicode="&#7696;" /><glyph d="M378 107Q410 107 436.5 112Q463 117 483 137Q510 163 525 211Q540 259 540 339Q540 415 526 462.5Q512 510 486 538Q466 560 438.5 565.5Q411 571 379 571H253V399H429V292H253V107ZM115 0V292H14V399H115V678H360Q441 678 504.5 659.5Q568 641 608 599Q687 515 687 339Q687 153 602 71Q562 33 508 16.5Q454 0 374 0Z" glyph-name="Dcroat" horiz-adv-x="734" unicode="&#272;" /><glyph d="M370 -197H246V-88H370ZM81 0V678H326Q407 678 470.5 659.5Q534 641 574 599Q653 515 653 339Q653 153 568 71Q528 33 474 16.5Q420 0 340 0ZM344 107Q376 107 402.5 112Q429 117 449 137Q476 163 491 211Q506 259 506 339Q506 415 492 462.5Q478 510 452 538Q432 560 404.5 565.5Q377 571 345 571H219V107Z" glyph-name="Ddotbelow" horiz-adv-x="700" unicode="&#7692;" /><glyph d="M41 80 326 684H466L751 80L749 0H43ZM491 110Q508 110 520 110Q532 110 543.5 110Q555 110 567 109.5Q579 109 596 109V111L443 446Q432 470 418.5 501.5Q405 533 396 555H394Q386 533 372.5 501.5Q359 470 348 446L195 111V109Q212 109 224 109.5Q236 110 247.5 110Q259 110 271 110Q283 110 300 110Z" glyph-name="Delta" horiz-adv-x="792" unicode="&#8710;" /><glyph d="M534 0H81V678H527V571H219V399H483V292H219V107H534Z" glyph-name="E" horiz-adv-x="565" unicode="E" /><glyph d="M356 733H247L359 846H516ZM534 0H81V678H527V571H219V399H483V292H219V107H534Z" glyph-name="Eacute" horiz-adv-x="565" unicode="&#201;" /><glyph d="M356 733H247L359 846H516ZM384 -197H260V-88H384ZM534 0H81V678H527V571H219V399H483V292H219V107H534Z" glyph-name="Eacutedotbelow" horiz-adv-x="565" unicode="&#59233;" /><glyph d="M305 795Q339 795 360.5 806Q382 817 390 846H494Q489 812 472.5 788Q456 764 431.5 748.5Q407 733 374.5 726Q342 719 305 719Q268 719 235.5 726Q203 733 178.5 748.5Q154 764 137.5 788Q121 812 116 846H220Q228 817 249.5 806Q271 795 305 795ZM534 0H81V678H527V571H219V399H483V292H219V107H534Z" glyph-name="Ebreve" horiz-adv-x="565" unicode="&#276;" /><glyph d="M248 729 127 849H246L307 792L368 849H488L366 729ZM534 0H81V678H527V571H219V399H483V292H219V107H534Z" glyph-name="Ecaron" horiz-adv-x="565" unicode="&#282;" /><glyph d="M365 849 487 729H367L306 786L245 729H126L247 849ZM534 0H81V678H527V571H219V399H483V292H219V107H534Z" glyph-name="Ecircumflex" horiz-adv-x="565" unicode="&#202;" /><glyph d="M482 740H356V844H482ZM257 740H131V844H257ZM534 0H81V678H527V571H219V399H483V292H219V107H534Z" glyph-name="Edieresis" horiz-adv-x="565" unicode="&#203;" /><glyph d="M385 742H253V846H385ZM534 0H81V678H527V571H219V399H483V292H219V107H534Z" glyph-name="Edotaccent" horiz-adv-x="565" unicode="&#278;" /><glyph d="M27 846H170L280 731H185ZM214 846H357L467 731H372ZM534 0H81V678H527V571H219V399H483V292H219V107H534Z" glyph-name="Edoublegrave" horiz-adv-x="565" unicode="&#516;" /><glyph d="M120 846H277L389 733H280ZM534 0H81V678H527V571H219V399H483V292H219V107H534Z" glyph-name="Egrave" horiz-adv-x="565" unicode="&#200;" /><glyph d="M120 846H277L389 733H280ZM384 -197H260V-88H384ZM534 0H81V678H527V571H219V399H483V292H219V107H534Z" glyph-name="Egravedotbelow" horiz-adv-x="565" unicode="&#59237;" /><glyph d="M304 782Q270 782 248.5 771Q227 760 219 731H115Q120 765 136.5 789Q153 813 177.5 828.5Q202 844 234.5 851Q267 858 304 858Q341 858 373.5 851Q406 844 430.5 828.5Q455 813 471.5 789Q488 765 493 731H389Q381 760 359.5 771Q338 782 304 782ZM534 0H81V678H527V571H219V399H483V292H219V107H534Z" glyph-name="Einvertedbreve" horiz-adv-x="565" unicode="&#518;" /><glyph d="M489 756H129V846H489ZM534 0H81V678H527V571H219V399H483V292H219V107H534Z" glyph-name="Emacron" horiz-adv-x="565" unicode="&#274;" /><glyph d="M297 334Q286 351 273.5 372Q261 393 249 414.5Q237 436 226 456.5Q215 477 208 492H205Q206 462 207.5 426Q209 390 210.5 352.5Q212 315 212.5 279Q213 243 213 212V0H81V678H235L440 346Q450 329 463 308Q476 287 488.5 265.5Q501 244 512 223.5Q523 203 531 188H534Q532 218 531 253.5Q530 289 528.5 326Q527 363 526.5 399Q526 435 526 466V678H658V150Q658 97 654 53Q650 9 640.5 -28.5Q631 -66 614.5 -100Q598 -134 574 -168H444Q492 -90 509 -1Z" glyph-name="Eng" horiz-adv-x="739" unicode="&#330;" /><glyph d="M472 -82Q472 -113 512 -113Q529 -113 544.5 -111Q560 -109 580 -102V-170Q559 -178 532.5 -181Q506 -184 489 -184Q435 -184 406 -163.5Q377 -143 377 -106Q377 -77 393.5 -48.5Q410 -20 439 0H81V678H527V571H219V399H483V292H219V107H534V0Q496 -20 484 -43Q472 -66 472 -82Z" glyph-name="Eogonek" horiz-adv-x="565" unicode="&#280;" /><glyph d="M378 107Q410 107 436.5 112Q463 117 483 137Q510 163 525 211Q540 259 540 339Q540 415 526 462.5Q512 510 486 538Q466 560 438.5 565.5Q411 571 379 571H253V399H429V292H253V107ZM115 0V292H14V399H115V678H360Q441 678 504.5 659.5Q568 641 608 599Q687 515 687 339Q687 153 602 71Q562 33 508 16.5Q454 0 374 0Z" glyph-name="Eth" horiz-adv-x="734" unicode="&#208;" /><glyph d="M233 193Q239 161 250.5 141Q262 121 279 110Q296 99 319.5 94.5Q343 90 373 90Q399 90 434.5 95.5Q470 101 511 112V12Q495 4 473 -1.5Q451 -7 428 -10Q405 -13 384.5 -14.5Q364 -16 351 -16Q243 -16 177.5 32.5Q112 81 94 193H8L39 261H88V307H24L54 375H96Q114 479 177 526.5Q240 574 351 574Q358 574 374 573Q390 572 410.5 569.5Q431 567 454 562.5Q477 558 498 551V455Q456 466 422.5 469.5Q389 473 373 473Q314 473 281 452.5Q248 432 235 375H465L432 307H227V261H415L382 193Z" glyph-name="Euro" horiz-adv-x="553" unicode="&#8364;" /><glyph d="M282 244Q288 199 300 170.5Q312 142 330.5 126Q349 110 375 104Q401 98 435 98Q449 98 468 99.5Q487 101 507 104.5Q527 108 547.5 112.5Q568 117 585 123V14Q566 6 542 0.5Q518 -5 494 -9Q470 -13 448 -14.5Q426 -16 411 -16Q353 -16 306 -1.5Q259 13 223.5 44.5Q188 76 165.5 125Q143 174 134 244H48L80 322H129V367H53L85 445H135Q154 575 222 634.5Q290 694 411 694Q419 694 436.5 693.5Q454 693 476.5 690.5Q499 688 524 683Q549 678 570 669V566Q550 572 529.5 576Q509 580 491 582Q473 584 458.5 585Q444 586 435 586Q402 586 376.5 579.5Q351 573 332.5 557Q314 541 301.5 513.5Q289 486 283 445H529L496 367H277V322H483L451 244Z" glyph-name="Euro.LP" horiz-adv-x="660" unicode="&#58657;" /><glyph d="M219 0H81V678H534V571H219V399H483V292H219Z" glyph-name="F" horiz-adv-x="533" unicode="F" /><glyph d="M345 399H626V33Q599 19 564.5 10Q530 1 495 -5Q460 -11 426 -13.5Q392 -16 367 -16Q287 -16 227 3.5Q167 23 127 65.5Q87 108 67 174.5Q47 241 47 336Q47 434 68.5 502.5Q90 571 132.5 613.5Q175 656 238.5 675Q302 694 386 694Q399 694 423.5 692.5Q448 691 475.5 688Q503 685 531.5 680.5Q560 676 582 669V566Q564 571 540.5 574.5Q517 578 494 580.5Q471 583 450 584.5Q429 586 416 586Q356 586 314 576Q272 566 245.5 539Q219 512 207 463Q195 414 195 336Q195 259 208 211Q221 163 245 136Q269 109 302 99Q335 89 376 89Q384 89 398.5 89.5Q413 90 429.5 91.5Q446 93 462 95Q478 97 488 100V292H345Z" glyph-name="G" horiz-adv-x="690" unicode="G" /><glyph d="M391 733H282L394 846H551ZM345 399H626V33Q599 19 564.5 10Q530 1 495 -5Q460 -11 426 -13.5Q392 -16 367 -16Q287 -16 227 3.5Q167 23 127 65.5Q87 108 67 174.5Q47 241 47 336Q47 434 68.5 502.5Q90 571 132.5 613.5Q175 656 238.5 675Q302 694 386 694Q399 694 423.5 692.5Q448 691 475.5 688Q503 685 531.5 680.5Q560 676 582 669V566Q564 571 540.5 574.5Q517 578 494 580.5Q471 583 450 584.5Q429 586 416 586Q356 586 314 576Q272 566 245.5 539Q219 512 207 463Q195 414 195 336Q195 259 208 211Q221 163 245 136Q269 109 302 99Q335 89 376 89Q384 89 398.5 89.5Q413 90 429.5 91.5Q446 93 462 95Q478 97 488 100V292H345Z" glyph-name="Gacute" horiz-adv-x="690" unicode="&#500;" /><glyph d="M354 795Q388 795 409.5 806Q431 817 439 846H543Q538 812 521.5 788Q505 764 480.5 748.5Q456 733 423.5 726Q391 719 354 719Q317 719 284.5 726Q252 733 227.5 748.5Q203 764 186.5 788Q170 812 165 846H269Q277 817 298.5 806Q320 795 354 795ZM345 399H626V33Q599 19 564.5 10Q530 1 495 -5Q460 -11 426 -13.5Q392 -16 367 -16Q287 -16 227 3.5Q167 23 127 65.5Q87 108 67 174.5Q47 241 47 336Q47 434 68.5 502.5Q90 571 132.5 613.5Q175 656 238.5 675Q302 694 386 694Q399 694 423.5 692.5Q448 691 475.5 688Q503 685 531.5 680.5Q560 676 582 669V566Q564 571 540.5 574.5Q517 578 494 580.5Q471 583 450 584.5Q429 586 416 586Q356 586 314 576Q272 566 245.5 539Q219 512 207 463Q195 414 195 336Q195 259 208 211Q221 163 245 136Q269 109 302 99Q335 89 376 89Q384 89 398.5 89.5Q413 90 429.5 91.5Q446 93 462 95Q478 97 488 100V292H345Z" glyph-name="Gbreve" horiz-adv-x="690" unicode="&#286;" /><glyph d="M293 729 172 849H291L352 792L413 849H533L411 729ZM345 399H626V33Q599 19 564.5 10Q530 1 495 -5Q460 -11 426 -13.5Q392 -16 367 -16Q287 -16 227 3.5Q167 23 127 65.5Q87 108 67 174.5Q47 241 47 336Q47 434 68.5 502.5Q90 571 132.5 613.5Q175 656 238.5 675Q302 694 386 694Q399 694 423.5 692.5Q448 691 475.5 688Q503 685 531.5 680.5Q560 676 582 669V566Q564 571 540.5 574.5Q517 578 494 580.5Q471 583 450 584.5Q429 586 416 586Q356 586 314 576Q272 566 245.5 539Q219 512 207 463Q195 414 195 336Q195 259 208 211Q221 163 245 136Q269 109 302 99Q335 89 376 89Q384 89 398.5 89.5Q413 90 429.5 91.5Q446 93 462 95Q478 97 488 100V292H345Z" glyph-name="Gcaron" horiz-adv-x="690" unicode="&#486;" /><glyph d="M420 849 542 729H422L361 786L300 729H181L302 849ZM345 399H626V33Q599 19 564.5 10Q530 1 495 -5Q460 -11 426 -13.5Q392 -16 367 -16Q287 -16 227 3.5Q167 23 127 65.5Q87 108 67 174.5Q47 241 47 336Q47 434 68.5 502.5Q90 571 132.5 613.5Q175 656 238.5 675Q302 694 386 694Q399 694 423.5 692.5Q448 691 475.5 688Q503 685 531.5 680.5Q560 676 582 669V566Q564 571 540.5 574.5Q517 578 494 580.5Q471 583 450 584.5Q429 586 416 586Q356 586 314 576Q272 566 245.5 539Q219 512 207 463Q195 414 195 336Q195 259 208 211Q221 163 245 136Q269 109 302 99Q335 89 376 89Q384 89 398.5 89.5Q413 90 429.5 91.5Q446 93 462 95Q478 97 488 100V292H345Z" glyph-name="Gcircumflex" horiz-adv-x="690" unicode="&#284;" /><glyph d="M317 -74H446L348 -268H275ZM345 399H626V33Q599 19 564.5 10Q530 1 495 -5Q460 -11 426 -13.5Q392 -16 367 -16Q287 -16 227 3.5Q167 23 127 65.5Q87 108 67 174.5Q47 241 47 336Q47 434 68.5 502.5Q90 571 132.5 613.5Q175 656 238.5 675Q302 694 386 694Q399 694 423.5 692.5Q448 691 475.5 688Q503 685 531.5 680.5Q560 676 582 669V566Q564 571 540.5 574.5Q517 578 494 580.5Q471 583 450 584.5Q429 586 416 586Q356 586 314 576Q272 566 245.5 539Q219 512 207 463Q195 414 195 336Q195 259 208 211Q221 163 245 136Q269 109 302 99Q335 89 376 89Q384 89 398.5 89.5Q413 90 429.5 91.5Q446 93 462 95Q478 97 488 100V292H345Z" glyph-name="Gcommaaccent" horiz-adv-x="690" unicode="&#290;" /><glyph d="M741 563H612L710 757H783ZM345 399H626V33Q599 19 564.5 10Q530 1 495 -5Q460 -11 426 -13.5Q392 -16 367 -16Q287 -16 227 3.5Q167 23 127 65.5Q87 108 67 174.5Q47 241 47 336Q47 434 68.5 502.5Q90 571 132.5 613.5Q175 656 238.5 675Q302 694 386 694Q399 694 423.5 692.5Q448 691 475.5 688Q503 685 531.5 680.5Q560 676 582 669V566Q564 571 540.5 574.5Q517 578 494 580.5Q471 583 450 584.5Q429 586 416 586Q356 586 314 576Q272 566 245.5 539Q219 512 207 463Q195 414 195 336Q195 259 208 211Q221 163 245 136Q269 109 302 99Q335 89 376 89Q384 89 398.5 89.5Q413 90 429.5 91.5Q446 93 462 95Q478 97 488 100V292H345Z" glyph-name="Gcommaturnedabove" horiz-adv-x="775" unicode="&#57607;" /><glyph d="M425 742H293V846H425ZM345 399H626V33Q599 19 564.5 10Q530 1 495 -5Q460 -11 426 -13.5Q392 -16 367 -16Q287 -16 227 3.5Q167 23 127 65.5Q87 108 67 174.5Q47 241 47 336Q47 434 68.5 502.5Q90 571 132.5 613.5Q175 656 238.5 675Q302 694 386 694Q399 694 423.5 692.5Q448 691 475.5 688Q503 685 531.5 680.5Q560 676 582 669V566Q564 571 540.5 574.5Q517 578 494 580.5Q471 583 450 584.5Q429 586 416 586Q356 586 314 576Q272 566 245.5 539Q219 512 207 463Q195 414 195 336Q195 259 208 211Q221 163 245 136Q269 109 302 99Q335 89 376 89Q384 89 398.5 89.5Q413 90 429.5 91.5Q446 93 462 95Q478 97 488 100V292H345Z" glyph-name="Gdotaccent" horiz-adv-x="690" unicode="&#288;" /><glyph d="M729 139H626V33Q599 19 564.5 10Q530 1 495 -5Q460 -11 426 -13.5Q392 -16 367 -16Q287 -16 227 3.5Q167 23 127 65.5Q87 108 67 174.5Q47 241 47 336Q47 434 68.5 502.5Q90 571 132.5 613.5Q175 656 238.5 675Q302 694 386 694Q399 694 423.5 692.5Q448 691 475.5 688Q503 685 531.5 680.5Q560 676 582 669V566Q564 571 540.5 574.5Q517 578 494 580.5Q471 583 450 584.5Q429 586 416 586Q356 586 314 576Q272 566 245.5 539Q219 512 207 463Q195 414 195 336Q195 259 208 211Q221 163 245 136Q269 109 302 99Q335 89 376 89Q384 89 398.5 89.5Q413 90 429.5 91.5Q446 93 462 95Q478 97 488 100V139H314V246H488V292H345V399H626V246H729Z" glyph-name="Gstroke" horiz-adv-x="690" unicode="&#484;" /><glyph d="M427 828Q450 828 480.5 840Q511 852 531 867V779Q523 772 510.5 765Q498 758 483.5 752.5Q469 747 453.5 743.5Q438 740 425 740Q401 740 382 745Q363 750 346.5 756Q330 762 313 767Q296 772 277 772Q253 772 222 760Q191 748 168 734V823Q177 829 190 836Q203 843 218 849Q233 855 248.5 858.5Q264 862 277 862Q302 862 320.5 856.5Q339 851 356 845Q373 839 389.5 833.5Q406 828 427 828ZM345 399H626V33Q599 19 564.5 10Q530 1 495 -5Q460 -11 426 -13.5Q392 -16 367 -16Q287 -16 227 3.5Q167 23 127 65.5Q87 108 67 174.5Q47 241 47 336Q47 434 68.5 502.5Q90 571 132.5 613.5Q175 656 238.5 675Q302 694 386 694Q399 694 423.5 692.5Q448 691 475.5 688Q503 685 531.5 680.5Q560 676 582 669V566Q564 571 540.5 574.5Q517 578 494 580.5Q471 583 450 584.5Q429 586 416 586Q356 586 314 576Q272 566 245.5 539Q219 512 207 463Q195 414 195 336Q195 259 208 211Q221 163 245 136Q269 109 302 99Q335 89 376 89Q384 89 398.5 89.5Q413 90 429.5 91.5Q446 93 462 95Q478 97 488 100V292H345Z" glyph-name="Gtilde" horiz-adv-x="690" unicode="&#57605;" /><glyph d="M81 0V678H219V399H501V678H639V0H501V292H219V0Z" glyph-name="H" horiz-adv-x="720" unicode="H" /><glyph d="M501 467H219V399H501ZM219 574H501V678H639V0H501V292H219V0H81V678H219Z" glyph-name="Hbar" horiz-adv-x="720" unicode="&#294;" /><glyph d="M301 729 180 849H299L360 792L421 849H541L419 729ZM81 0V678H219V399H501V678H639V0H501V292H219V0Z" glyph-name="Hcaron" horiz-adv-x="720" unicode="&#542;" /><glyph d="M418 849 540 729H420L359 786L298 729H179L300 849ZM81 0V678H219V399H501V678H639V0H501V292H219V0Z" glyph-name="Hcircumflex" horiz-adv-x="720" unicode="&#292;" /><glyph d="M424 -197H300V-88H424ZM81 0V678H219V399H501V678H639V0H501V292H219V0Z" glyph-name="Hdotbelow" horiz-adv-x="720" unicode="&#7716;" /><glyph d="M540 -168H180V-78H540ZM81 0V678H219V399H501V678H639V0H501V292H219V0Z" glyph-name="Hmacronbelow" horiz-adv-x="720" unicode="&#57609;" /><glyph d="M81 0V678H219V0Z" glyph-name="I" horiz-adv-x="300" unicode="I" /><glyph d="M313 -118Q350 -56 369.5 12.5Q389 81 389 165V678H527V200Q527 147 523 103Q519 59 509.5 21.5Q500 -16 483.5 -50Q467 -84 443 -118ZM81 0V678H219V0Z" glyph-name="IJ" horiz-adv-x="608" unicode="&#306;" /><glyph d="M81 0V678H219V0ZM205 733H96L208 846H365Z" glyph-name="Iacute" horiz-adv-x="300" unicode="&#205;" /><glyph d="M80 0V678H218V0ZM150 795Q184 795 205.5 806Q227 817 235 846H339Q334 812 317.5 788Q301 764 276.5 748.5Q252 733 219.5 726Q187 719 150 719Q113 719 80.5 726Q48 733 23.5 748.5Q-1 764 -17.5 788Q-34 812 -39 846H65Q73 817 94.5 806Q116 795 150 795Z" glyph-name="Ibreve" horiz-adv-x="300" unicode="&#300;" /><glyph d="M81 0V678H219V0ZM91 729 -30 849H89L150 792L211 849H331L209 729Z" glyph-name="Icaron" horiz-adv-x="300" unicode="&#463;" /><glyph d="M82 0V678H220V0ZM211 849 333 729H213L152 786L91 729H-28L93 849Z" glyph-name="Icircumflex" horiz-adv-x="300" unicode="&#206;" /><glyph d="M81 0V678H219V0ZM326 740H200V844H326ZM101 740H-25V844H101Z" glyph-name="Idieresis" horiz-adv-x="300" unicode="&#207;" /><glyph d="M82 0V678H220V0ZM216 742H84V846H216Z" glyph-name="Idotaccent" horiz-adv-x="300" unicode="&#304;" /><glyph d="M81 0V678H219V0ZM211 -197H87V-88H211Z" glyph-name="Idotbelow" horiz-adv-x="300" unicode="&#7882;" /><glyph d="M83 0V678H221V0ZM-139 846H4L114 731H19ZM48 846H191L301 731H206Z" glyph-name="Idoublegrave" horiz-adv-x="300" unicode="&#520;" /><glyph d="M81 0V678H219V0ZM-65 846H92L204 733H95Z" glyph-name="Igrave" horiz-adv-x="300" unicode="&#204;" /><glyph d="M82 0V678H220V0ZM150 782Q116 782 94.5 771Q73 760 65 731H-39Q-34 765 -17.5 789Q-1 813 23.5 828.5Q48 844 80.5 851Q113 858 150 858Q187 858 219.5 851Q252 844 276.5 828.5Q301 813 317.5 789Q334 765 339 731H235Q227 760 205.5 771Q184 782 150 782Z" glyph-name="Iinvertedbreve" horiz-adv-x="300" unicode="&#522;" /><glyph d="M81 0V678H219V0ZM330 756H-30V846H330Z" glyph-name="Imacron" horiz-adv-x="300" unicode="&#298;" /><glyph d="M159 -82Q159 -113 199 -113Q216 -113 231.5 -111Q247 -109 267 -102V-170Q246 -178 219.5 -181Q193 -184 176 -184Q122 -184 93 -163.5Q64 -143 64 -106Q64 -77 80.5 -48.5Q97 -20 126 0H83V678H221V0Q183 -20 171 -43Q159 -66 159 -82Z" glyph-name="Iogonek" horiz-adv-x="300" unicode="&#302;" /><glyph d="M231 828Q254 828 284.5 840Q315 852 335 867V779Q327 772 314.5 765Q302 758 287.5 752.5Q273 747 257.5 743.5Q242 740 229 740Q205 740 186 745Q167 750 150.5 756Q134 762 117 767Q100 772 81 772Q57 772 26 760Q-5 748 -28 734V823Q-19 829 -6 836Q7 843 22 849Q37 855 52.5 858.5Q68 862 81 862Q106 862 124.5 856.5Q143 851 160 845Q177 839 193.5 833.5Q210 828 231 828ZM82 0V678H220V0Z" glyph-name="Itilde" horiz-adv-x="300" unicode="&#296;" /><glyph d="M13 -118Q50 -56 69.5 12.5Q89 81 89 165V678H227V200Q227 147 223 103Q219 59 209.5 21.5Q200 -16 183.5 -50Q167 -84 143 -118Z" glyph-name="J" horiz-adv-x="308" unicode="J" /><glyph d="M13 -118Q50 -56 69.5 12.5Q89 81 89 165V678H227V200Q227 147 223 103Q219 59 209.5 21.5Q200 -16 183.5 -50Q167 -84 143 -118ZM98 729 -23 849H96L157 792L218 849H338L216 729Z" glyph-name="Jcaron" horiz-adv-x="308" unicode="&#57611;" /><glyph d="M13 -118Q50 -56 69.5 12.5Q89 81 89 165V678H227V200Q227 147 223 103Q219 59 209.5 21.5Q200 -16 183.5 -50Q167 -84 143 -118ZM217 849 339 729H219L158 786L97 729H-22L99 849Z" glyph-name="Jcircumflex" horiz-adv-x="308" unicode="&#308;" /><glyph d="M413 358 644 0H488L297 292H219V0H81V678H219V399H294L477 678H622Z" glyph-name="K" horiz-adv-x="639" unicode="K" /><glyph d="M262 729 141 849H260L321 792L382 849H502L380 729ZM413 358 644 0H488L297 292H219V0H81V678H219V399H294L477 678H622Z" glyph-name="Kcaron" horiz-adv-x="639" unicode="&#488;" /><glyph d="M326 -38Q367 -40 392.5 -48Q418 -56 432 -67Q446 -78 451 -90Q456 -102 456 -112Q456 -147 423 -165.5Q390 -184 320 -184Q299 -184 276.5 -181.5Q254 -179 225 -170V-102Q254 -111 272 -114Q290 -117 302 -117Q322 -117 334 -113Q346 -109 346 -97Q346 -86 335 -81.5Q324 -77 306 -74ZM413 358 644 0H488L297 292H219V0H81V678H219V399H294L477 678H622Z" glyph-name="Kcedilla" horiz-adv-x="639" unicode="&#57613;" /><glyph d="M281 -74H410L312 -268H239ZM413 358 644 0H488L297 292H219V0H81V678H219V399H294L477 678H622Z" glyph-name="Kcommaaccent" horiz-adv-x="639" unicode="&#310;" /><glyph d="M413 358 644 0H488L297 292H219V0H81V678H219V399H294L477 678H622Z" glyph-name="Kgreenlandic" horiz-adv-x="639" unicode="&#59283;" /><glyph d="M515 551Q501 537 488.5 516Q476 495 463 471Q450 447 435 422Q420 397 401 373L644 0H488L297 292H219V0H81V678H219V399H256Q261 401 264.5 404.5Q268 408 273 413Q297 437 316 467Q335 497 352 528Q369 559 385.5 587Q402 615 422 635Q445 658 477.5 672Q510 686 561 686Q581 686 603 682Q625 678 640 669V567Q625 573 605.5 574.5Q586 576 577 576Q554 576 540 569Q526 562 515 551Z" glyph-name="Khook" horiz-adv-x="639" unicode="&#408;" /><glyph d="M534 0H81V678H219V107H534Z" glyph-name="L" horiz-adv-x="537" unicode="L" /><glyph d="M203 733H94L206 846H363ZM534 0H81V678H219V107H534Z" glyph-name="Lacute" horiz-adv-x="537" unicode="&#313;" /><glyph d="M380 678H509L411 484H338ZM534 0H81V678H219V107H534Z" glyph-name="Lcaron" horiz-adv-x="597" unicode="&#317;" /><glyph d="M297 -38Q338 -40 363.5 -48Q389 -56 403 -67Q417 -78 422 -90Q427 -102 427 -112Q427 -147 394 -165.5Q361 -184 291 -184Q270 -184 247.5 -181.5Q225 -179 196 -170V-102Q225 -111 243 -114Q261 -117 273 -117Q293 -117 305 -113Q317 -109 317 -97Q317 -86 306 -81.5Q295 -77 277 -74ZM534 0H81V678H219V107H534Z" glyph-name="Lcedilla" horiz-adv-x="537" unicode="&#57615;" /><glyph d="M243 -74H372L274 -268H201ZM534 0H81V678H219V107H534Z" glyph-name="Lcommaaccent" horiz-adv-x="537" unicode="&#315;" /><glyph d="M486 291H362V400H486ZM534 0H81V678H219V107H534Z" glyph-name="Ldot" horiz-adv-x="537" unicode="&#319;" /><glyph d="M369 -197H245V-88H369ZM534 0H81V678H219V107H534Z" glyph-name="Ldotbelow" horiz-adv-x="537" unicode="&#7734;" /><glyph d="M369 -197H245V-88H369ZM330 756H-30V846H330ZM534 0H81V678H219V107H534Z" glyph-name="Ldotbelowmacron" horiz-adv-x="537" unicode="&#7736;" /><glyph d="M442 436 245 309V107H560V0H107V220L3 153V277L107 344V678H245V432L442 559Z" glyph-name="Lslash" horiz-adv-x="563" unicode="&#321;" /><glyph d="M387 127 276 357Q256 399 239 443.5Q222 488 205 542H202Q205 498 207 465Q209 432 210.5 401Q212 370 213 336Q214 302 214 256V0H81V678H262L436 304H439L613 678H794V0H659V256Q659 302 659.5 336Q660 370 661.5 401Q663 432 665.5 465Q668 498 671 542H668Q651 488 634 443.5Q617 399 597 357L486 127Z" glyph-name="M" horiz-adv-x="875" unicode="M" /><glyph d="M421 -38Q462 -40 487.5 -48Q513 -56 527 -67Q541 -78 546 -90Q551 -102 551 -112Q551 -147 518 -165.5Q485 -184 415 -184Q394 -184 371.5 -181.5Q349 -179 320 -170V-102Q349 -111 367 -114Q385 -117 397 -117Q417 -117 429 -113Q441 -109 441 -97Q441 -86 430 -81.5Q419 -77 401 -74ZM385 127 274 357Q254 399 237 443.5Q220 488 203 542H200Q203 498 205 465Q207 432 208.5 401Q210 370 211 336Q212 302 212 256V0H79V678H260L434 304H437L611 678H792V0H657V256Q657 302 657.5 336Q658 370 659.5 401Q661 432 663.5 465Q666 498 669 542H666Q649 488 632 443.5Q615 399 595 357L484 127Z" glyph-name="Mcedilla" horiz-adv-x="871" unicode="&#57619;" /><glyph d="M495 -197H371V-88H495ZM385 127 274 357Q254 399 237 443.5Q220 488 203 542H200Q203 498 205 465Q207 432 208.5 401Q210 370 211 336Q212 302 212 256V0H79V678H260L434 304H437L611 678H792V0H657V256Q657 302 657.5 336Q658 370 659.5 401Q661 432 663.5 465Q666 498 669 542H666Q649 488 632 443.5Q615 399 595 357L484 127Z" glyph-name="Mdotbelow" horiz-adv-x="871" unicode="&#7746;" /><glyph d="M617 756H257V846H617ZM387 127 276 357Q256 399 239 443.5Q222 488 205 542H202Q205 498 207 465Q209 432 210.5 401Q212 370 213 336Q214 302 214 256V0H81V678H262L436 304H439L613 678H794V0H659V256Q659 302 659.5 336Q660 370 661.5 401Q663 432 665.5 465Q668 498 671 542H668Q651 488 634 443.5Q617 399 597 357L486 127Z" glyph-name="Mmacron" horiz-adv-x="875" unicode="&#57617;" /><glyph d="M297 334Q269 377 245 421.5Q221 466 207 497H204Q205 467 207 430Q209 393 210 355Q211 317 212 280Q213 243 213 212V0H81V678H236L440 346Q453 325 466.5 302.5Q480 280 492 257.5Q504 235 514.5 214.5Q525 194 532 179H535Q533 209 531.5 246Q530 283 529 321.5Q528 360 527 397.5Q526 435 526 466V678H658V0H507Z" glyph-name="N" horiz-adv-x="739" unicode="N" /><glyph d="M418 733H309L421 846H578ZM297 334Q269 377 245 421.5Q221 466 207 497H204Q205 467 207 430Q209 393 210 355Q211 317 212 280Q213 243 213 212V0H81V678H236L440 346Q453 325 466.5 302.5Q480 280 492 257.5Q504 235 514.5 214.5Q525 194 532 179H535Q533 209 531.5 246Q530 283 529 321.5Q528 360 527 397.5Q526 435 526 466V678H658V0H507Z" glyph-name="Nacute" horiz-adv-x="739" unicode="&#323;" /><glyph d="M321 729 200 849H319L380 792L441 849H561L439 729ZM297 334Q269 377 245 421.5Q221 466 207 497H204Q205 467 207 430Q209 393 210 355Q211 317 212 280Q213 243 213 212V0H81V678H236L440 346Q453 325 466.5 302.5Q480 280 492 257.5Q504 235 514.5 214.5Q525 194 532 179H535Q533 209 531.5 246Q530 283 529 321.5Q528 360 527 397.5Q526 435 526 466V678H658V0H507Z" glyph-name="Ncaron" horiz-adv-x="739" unicode="&#327;" /><glyph d="M347 -38Q388 -40 413.5 -48Q439 -56 453 -67Q467 -78 472 -90Q477 -102 477 -112Q477 -147 444 -165.5Q411 -184 341 -184Q320 -184 297.5 -181.5Q275 -179 246 -170V-102Q275 -111 293 -114Q311 -117 323 -117Q343 -117 355 -113Q367 -109 367 -97Q367 -86 356 -81.5Q345 -77 327 -74ZM297 334Q269 377 245 421.5Q221 466 207 497H204Q205 467 207 430Q209 393 210 355Q211 317 212 280Q213 243 213 212V0H81V678H236L440 346Q453 325 466.5 302.5Q480 280 492 257.5Q504 235 514.5 214.5Q525 194 532 179H535Q533 209 531.5 246Q530 283 529 321.5Q528 360 527 397.5Q526 435 526 466V678H658V0H507Z" glyph-name="Ncedilla" horiz-adv-x="739" unicode="&#57625;" /><glyph d="M300 -74H429L331 -268H258ZM297 334Q269 377 245 421.5Q221 466 207 497H204Q205 467 207 430Q209 393 210 355Q211 317 212 280Q213 243 213 212V0H81V678H236L440 346Q453 325 466.5 302.5Q480 280 492 257.5Q504 235 514.5 214.5Q525 194 532 179H535Q533 209 531.5 246Q530 283 529 321.5Q528 360 527 397.5Q526 435 526 466V678H658V0H507Z" glyph-name="Ncommaaccent" horiz-adv-x="739" unicode="&#325;" /><glyph d="M297 334Q269 377 245 421.5Q221 466 207 497H204Q205 467 207 430Q209 393 210 355Q211 317 212 280Q213 243 213 212V0H81V678H236L440 346Q453 325 466.5 302.5Q480 280 492 257.5Q504 235 514.5 214.5Q525 194 532 179H535Q533 209 531.5 246Q530 283 529 321.5Q528 360 527 397.5Q526 435 526 466V678H658V92H758V-118H653V0H507Z" glyph-name="Ndescender" horiz-adv-x="758" unicode="&#59398;" /><glyph d="M554 740H428V844H554ZM329 740H203V844H329ZM297 334Q269 377 245 421.5Q221 466 207 497H204Q205 467 207 430Q209 393 210 355Q211 317 212 280Q213 243 213 212V0H81V678H236L440 346Q453 325 466.5 302.5Q480 280 492 257.5Q504 235 514.5 214.5Q525 194 532 179H535Q533 209 531.5 246Q530 283 529 321.5Q528 360 527 397.5Q526 435 526 466V678H658V0H507Z" glyph-name="Ndieresis" horiz-adv-x="739" unicode="&#57621;" /><glyph d="M450 742H318V846H450ZM297 334Q269 377 245 421.5Q221 466 207 497H204Q205 467 207 430Q209 393 210 355Q211 317 212 280Q213 243 213 212V0H81V678H236L440 346Q453 325 466.5 302.5Q480 280 492 257.5Q504 235 514.5 214.5Q525 194 532 179H535Q533 209 531.5 246Q530 283 529 321.5Q528 360 527 397.5Q526 435 526 466V678H658V0H507Z" glyph-name="Ndotaccent" horiz-adv-x="739" unicode="&#7748;" /><glyph d="M419 -197H295V-88H419ZM297 334Q269 377 245 421.5Q221 466 207 497H204Q205 467 207 430Q209 393 210 355Q211 317 212 280Q213 243 213 212V0H81V678H236L440 346Q453 325 466.5 302.5Q480 280 492 257.5Q504 235 514.5 214.5Q525 194 532 179H535Q533 209 531.5 246Q530 283 529 321.5Q528 360 527 397.5Q526 435 526 466V678H658V0H507Z" glyph-name="Ndotbelow" horiz-adv-x="739" unicode="&#7750;" /><glyph d="M171 846H328L440 733H331ZM297 334Q269 377 245 421.5Q221 466 207 497H204Q205 467 207 430Q209 393 210 355Q211 317 212 280Q213 243 213 212V0H81V678H236L440 346Q453 325 466.5 302.5Q480 280 492 257.5Q504 235 514.5 214.5Q525 194 532 179H535Q533 209 531.5 246Q530 283 529 321.5Q528 360 527 397.5Q526 435 526 466V678H658V0H507Z" glyph-name="Ngrave" horiz-adv-x="739" unicode="&#504;" /><glyph d="M556 756H196V846H556ZM297 334Q269 377 245 421.5Q221 466 207 497H204Q205 467 207 430Q209 393 210 355Q211 317 212 280Q213 243 213 212V0H81V678H236L440 346Q453 325 466.5 302.5Q480 280 492 257.5Q504 235 514.5 214.5Q525 194 532 179H535Q533 209 531.5 246Q530 283 529 321.5Q528 360 527 397.5Q526 435 526 466V678H658V0H507Z" glyph-name="Nmacron" horiz-adv-x="739" unicode="&#57623;" /><glyph d="M454 828Q477 828 507.5 840Q538 852 558 867V779Q550 772 537.5 765Q525 758 510.5 752.5Q496 747 480.5 743.5Q465 740 452 740Q428 740 409 745Q390 750 373.5 756Q357 762 340 767Q323 772 304 772Q280 772 249 760Q218 748 195 734V823Q204 829 217 836Q230 843 245 849Q260 855 275.5 858.5Q291 862 304 862Q329 862 347.5 856.5Q366 851 383 845Q400 839 416.5 833.5Q433 828 454 828ZM297 334Q269 377 245 421.5Q221 466 207 497H204Q205 467 207 430Q209 393 210 355Q211 317 212 280Q213 243 213 212V0H81V678H236L440 346Q453 325 466.5 302.5Q480 280 492 257.5Q504 235 514.5 214.5Q525 194 532 179H535Q533 209 531.5 246Q530 283 529 321.5Q528 360 527 397.5Q526 435 526 466V678H658V0H507Z" glyph-name="Ntilde" horiz-adv-x="739" unicode="&#209;" /><glyph d="M671 339Q671 254 656 188Q641 122 605 76.5Q569 31 509 7.5Q449 -16 359 -16Q269 -16 209 7.5Q149 31 113 76.5Q77 122 62 188Q47 254 47 339Q47 424 62 490Q77 556 113 601.5Q149 647 209 670.5Q269 694 359 694Q449 694 509 670.5Q569 647 605 601.5Q641 556 656 490Q671 424 671 339ZM523 339Q523 408 514.5 456Q506 504 486.5 533.5Q467 563 436 576Q405 589 359 589Q313 589 282 576Q251 563 231.5 533.5Q212 504 203.5 456Q195 408 195 339Q195 270 203.5 222Q212 174 231.5 144.5Q251 115 282 102Q313 89 359 89Q404 89 435.5 102Q467 115 486.5 144.5Q506 174 514.5 222Q523 270 523 339Z" glyph-name="O" horiz-adv-x="718" unicode="O" /><glyph d="M523 339Q523 408 514.5 456Q506 504 486.5 533.5Q467 563 436 576Q405 589 359 589Q313 589 282 576Q251 563 231.5 533.5Q212 504 203.5 456Q195 408 195 339Q195 270 203.5 222Q212 174 231.5 144.5Q251 115 282 102Q313 89 359 89Q404 89 435.5 102Q467 115 486.5 144.5Q506 174 514.5 222Q523 270 523 339ZM985 0H533V29H531Q504 7 463 -4.5Q422 -16 359 -16Q269 -16 209 7.5Q149 31 113 76.5Q77 122 62 188Q47 254 47 339Q47 424 62 490Q77 556 113 601.5Q149 647 209 670.5Q269 694 359 694Q422 694 463 682.5Q504 671 531 648H533V678H978V571H670V399H934V292H670V107H985Z" glyph-name="OE" horiz-adv-x="1016" unicode="&#338;" /><glyph d="M396 733H287L399 846H556ZM671 339Q671 254 656 188Q641 122 605 76.5Q569 31 509 7.5Q449 -16 359 -16Q269 -16 209 7.5Q149 31 113 76.5Q77 122 62 188Q47 254 47 339Q47 424 62 490Q77 556 113 601.5Q149 647 209 670.5Q269 694 359 694Q449 694 509 670.5Q569 647 605 601.5Q641 556 656 490Q671 424 671 339ZM523 339Q523 408 514.5 456Q506 504 486.5 533.5Q467 563 436 576Q405 589 359 589Q313 589 282 576Q251 563 231.5 533.5Q212 504 203.5 456Q195 408 195 339Q195 270 203.5 222Q212 174 231.5 144.5Q251 115 282 102Q313 89 359 89Q404 89 435.5 102Q467 115 486.5 144.5Q506 174 514.5 222Q523 270 523 339Z" glyph-name="Oacute" horiz-adv-x="718" unicode="&#211;" /><glyph d="M359 795Q393 795 414.5 806Q436 817 444 846H548Q543 812 526.5 788Q510 764 485.5 748.5Q461 733 428.5 726Q396 719 359 719Q322 719 289.5 726Q257 733 232.5 748.5Q208 764 191.5 788Q175 812 170 846H274Q282 817 303.5 806Q325 795 359 795ZM671 339Q671 254 656 188Q641 122 605 76.5Q569 31 509 7.5Q449 -16 359 -16Q269 -16 209 7.5Q149 31 113 76.5Q77 122 62 188Q47 254 47 339Q47 424 62 490Q77 556 113 601.5Q149 647 209 670.5Q269 694 359 694Q449 694 509 670.5Q569 647 605 601.5Q641 556 656 490Q671 424 671 339ZM523 339Q523 408 514.5 456Q506 504 486.5 533.5Q467 563 436 576Q405 589 359 589Q313 589 282 576Q251 563 231.5 533.5Q212 504 203.5 456Q195 408 195 339Q195 270 203.5 222Q212 174 231.5 144.5Q251 115 282 102Q313 89 359 89Q404 89 435.5 102Q467 115 486.5 144.5Q506 174 514.5 222Q523 270 523 339Z" glyph-name="Obreve" horiz-adv-x="718" unicode="&#334;" /><glyph d="M300 729 179 849H298L359 792L420 849H540L418 729ZM671 339Q671 254 656 188Q641 122 605 76.5Q569 31 509 7.5Q449 -16 359 -16Q269 -16 209 7.5Q149 31 113 76.5Q77 122 62 188Q47 254 47 339Q47 424 62 490Q77 556 113 601.5Q149 647 209 670.5Q269 694 359 694Q449 694 509 670.5Q569 647 605 601.5Q641 556 656 490Q671 424 671 339ZM523 339Q523 408 514.5 456Q506 504 486.5 533.5Q467 563 436 576Q405 589 359 589Q313 589 282 576Q251 563 231.5 533.5Q212 504 203.5 456Q195 408 195 339Q195 270 203.5 222Q212 174 231.5 144.5Q251 115 282 102Q313 89 359 89Q404 89 435.5 102Q467 115 486.5 144.5Q506 174 514.5 222Q523 270 523 339Z" glyph-name="Ocaron" horiz-adv-x="718" unicode="&#465;" /><glyph d="M523 339Q523 408 514.5 456Q506 504 486.5 533.5Q467 563 436 576Q405 589 359 589Q313 589 282 576Q251 563 231.5 533.5Q212 504 203.5 456Q195 408 195 339Q195 270 203.5 222Q212 174 231.5 144.5Q251 115 282 102Q313 89 359 89Q404 89 435.5 102Q467 115 486.5 144.5Q506 174 514.5 222Q523 270 523 339ZM317 -14Q240 -9 188 17Q136 43 104.5 88Q73 133 60 196Q47 259 47 339Q47 424 62 490Q77 556 113 601.5Q149 647 209 670.5Q269 694 359 694Q449 694 509 670.5Q569 647 605 601.5Q641 556 656 490Q671 424 671 339Q671 261 658 199Q645 137 615 92Q585 47 535.5 20.5Q486 -6 412 -13L400 -43Q437 -56 449 -73.5Q461 -91 461 -108Q461 -143 428 -163.5Q395 -184 325 -184Q304 -184 281.5 -181.5Q259 -179 230 -170V-102Q259 -111 277 -114Q295 -117 307 -117Q327 -117 339 -113Q351 -109 351 -97Q351 -86 338.5 -81Q326 -76 309 -75L303 -48Z" glyph-name="Ocedilla" horiz-adv-x="718" unicode="&#57631;" /><glyph d="M671 339Q671 254 656 188Q641 122 605 76.5Q569 31 509 7.5Q449 -16 359 -16Q269 -16 209 7.5Q149 31 113 76.5Q77 122 62 188Q47 254 47 339Q47 424 62 490Q77 556 113 601.5Q149 647 209 670.5Q269 694 359 694Q449 694 509 670.5Q569 647 605 601.5Q641 556 656 490Q671 424 671 339ZM523 339Q523 408 514.5 456Q506 504 486.5 533.5Q467 563 436 576Q405 589 359 589Q313 589 282 576Q251 563 231.5 533.5Q212 504 203.5 456Q195 408 195 339Q195 270 203.5 222Q212 174 231.5 144.5Q251 115 282 102Q313 89 359 89Q404 89 435.5 102Q467 115 486.5 144.5Q506 174 514.5 222Q523 270 523 339ZM418 849 540 729H420L359 786L298 729H179L300 849Z" glyph-name="Ocircumflex" horiz-adv-x="718" unicode="&#212;" /><glyph d="M779 563H650L748 757H821ZM671 339Q671 254 656 188Q641 122 605 76.5Q569 31 509 7.5Q449 -16 359 -16Q269 -16 209 7.5Q149 31 113 76.5Q77 122 62 188Q47 254 47 339Q47 424 62 490Q77 556 113 601.5Q149 647 209 670.5Q269 694 359 694Q449 694 509 670.5Q569 647 605 601.5Q641 556 656 490Q671 424 671 339ZM523 339Q523 408 514.5 456Q506 504 486.5 533.5Q467 563 436 576Q405 589 359 589Q313 589 282 576Q251 563 231.5 533.5Q212 504 203.5 456Q195 408 195 339Q195 270 203.5 222Q212 174 231.5 144.5Q251 115 282 102Q313 89 359 89Q404 89 435.5 102Q467 115 486.5 144.5Q506 174 514.5 222Q523 270 523 339Z" glyph-name="Ocommaturnedabove" horiz-adv-x="812" unicode="&#57627;" /><glyph d="M671 339Q671 254 656 188Q641 122 605 76.5Q569 31 509 7.5Q449 -16 359 -16Q269 -16 209 7.5Q149 31 113 76.5Q77 122 62 188Q47 254 47 339Q47 424 62 490Q77 556 113 601.5Q149 647 209 670.5Q269 694 359 694Q449 694 509 670.5Q569 647 605 601.5Q641 556 656 490Q671 424 671 339ZM523 339Q523 408 514.5 456Q506 504 486.5 533.5Q467 563 436 576Q405 589 359 589Q313 589 282 576Q251 563 231.5 533.5Q212 504 203.5 456Q195 408 195 339Q195 270 203.5 222Q212 174 231.5 144.5Q251 115 282 102Q313 89 359 89Q404 89 435.5 102Q467 115 486.5 144.5Q506 174 514.5 222Q523 270 523 339ZM533 740H407V844H533ZM308 740H182V844H308Z" glyph-name="Odieresis" horiz-adv-x="718" unicode="&#214;" /><glyph d="M425 742H293V846H425ZM671 339Q671 254 656 188Q641 122 605 76.5Q569 31 509 7.5Q449 -16 359 -16Q269 -16 209 7.5Q149 31 113 76.5Q77 122 62 188Q47 254 47 339Q47 424 62 490Q77 556 113 601.5Q149 647 209 670.5Q269 694 359 694Q449 694 509 670.5Q569 647 605 601.5Q641 556 656 490Q671 424 671 339ZM523 339Q523 408 514.5 456Q506 504 486.5 533.5Q467 563 436 576Q405 589 359 589Q313 589 282 576Q251 563 231.5 533.5Q212 504 203.5 456Q195 408 195 339Q195 270 203.5 222Q212 174 231.5 144.5Q251 115 282 102Q313 89 359 89Q404 89 435.5 102Q467 115 486.5 144.5Q506 174 514.5 222Q523 270 523 339Z" glyph-name="Odotabove" horiz-adv-x="718" unicode="&#558;" /><glyph d="M671 339Q671 254 656 188Q641 122 605 76.5Q569 31 509 7.5Q449 -16 359 -16Q269 -16 209 7.5Q149 31 113 76.5Q77 122 62 188Q47 254 47 339Q47 424 62 490Q77 556 113 601.5Q149 647 209 670.5Q269 694 359 694Q449 694 509 670.5Q569 647 605 601.5Q641 556 656 490Q671 424 671 339ZM523 339Q523 408 514.5 456Q506 504 486.5 533.5Q467 563 436 576Q405 589 359 589Q313 589 282 576Q251 563 231.5 533.5Q212 504 203.5 456Q195 408 195 339Q195 270 203.5 222Q212 174 231.5 144.5Q251 115 282 102Q313 89 359 89Q404 89 435.5 102Q467 115 486.5 144.5Q506 174 514.5 222Q523 270 523 339ZM426 740H294V844H426ZM539 912H179V1002H539Z" glyph-name="Odotabovemacron" horiz-adv-x="718" unicode="&#560;" /><glyph d="M421 -197H297V-88H421ZM671 339Q671 254 656 188Q641 122 605 76.5Q569 31 509 7.5Q449 -16 359 -16Q269 -16 209 7.5Q149 31 113 76.5Q77 122 62 188Q47 254 47 339Q47 424 62 490Q77 556 113 601.5Q149 647 209 670.5Q269 694 359 694Q449 694 509 670.5Q569 647 605 601.5Q641 556 656 490Q671 424 671 339ZM523 339Q523 408 514.5 456Q506 504 486.5 533.5Q467 563 436 576Q405 589 359 589Q313 589 282 576Q251 563 231.5 533.5Q212 504 203.5 456Q195 408 195 339Q195 270 203.5 222Q212 174 231.5 144.5Q251 115 282 102Q313 89 359 89Q404 89 435.5 102Q467 115 486.5 144.5Q506 174 514.5 222Q523 270 523 339Z" glyph-name="Odotbelow" horiz-adv-x="718" unicode="&#7884;" /><glyph d="M71 846H214L324 731H229ZM258 846H401L511 731H416ZM671 339Q671 254 656 188Q641 122 605 76.5Q569 31 509 7.5Q449 -16 359 -16Q269 -16 209 7.5Q149 31 113 76.5Q77 122 62 188Q47 254 47 339Q47 424 62 490Q77 556 113 601.5Q149 647 209 670.5Q269 694 359 694Q449 694 509 670.5Q569 647 605 601.5Q641 556 656 490Q671 424 671 339ZM523 339Q523 408 514.5 456Q506 504 486.5 533.5Q467 563 436 576Q405 589 359 589Q313 589 282 576Q251 563 231.5 533.5Q212 504 203.5 456Q195 408 195 339Q195 270 203.5 222Q212 174 231.5 144.5Q251 115 282 102Q313 89 359 89Q404 89 435.5 102Q467 115 486.5 144.5Q506 174 514.5 222Q523 270 523 339Z" glyph-name="Odoublegrave" horiz-adv-x="718" unicode="&#524;" /><glyph d="M154 846H311L423 733H314ZM671 339Q671 254 656 188Q641 122 605 76.5Q569 31 509 7.5Q449 -16 359 -16Q269 -16 209 7.5Q149 31 113 76.5Q77 122 62 188Q47 254 47 339Q47 424 62 490Q77 556 113 601.5Q149 647 209 670.5Q269 694 359 694Q449 694 509 670.5Q569 647 605 601.5Q641 556 656 490Q671 424 671 339ZM523 339Q523 408 514.5 456Q506 504 486.5 533.5Q467 563 436 576Q405 589 359 589Q313 589 282 576Q251 563 231.5 533.5Q212 504 203.5 456Q195 408 195 339Q195 270 203.5 222Q212 174 231.5 144.5Q251 115 282 102Q313 89 359 89Q404 89 435.5 102Q467 115 486.5 144.5Q506 174 514.5 222Q523 270 523 339Z" glyph-name="Ograve" horiz-adv-x="718" unicode="&#210;" /><glyph d="M481 731H386L496 846H639ZM294 731H199L309 846H452ZM671 339Q671 254 656 188Q641 122 605 76.5Q569 31 509 7.5Q449 -16 359 -16Q269 -16 209 7.5Q149 31 113 76.5Q77 122 62 188Q47 254 47 339Q47 424 62 490Q77 556 113 601.5Q149 647 209 670.5Q269 694 359 694Q449 694 509 670.5Q569 647 605 601.5Q641 556 656 490Q671 424 671 339ZM523 339Q523 408 514.5 456Q506 504 486.5 533.5Q467 563 436 576Q405 589 359 589Q313 589 282 576Q251 563 231.5 533.5Q212 504 203.5 456Q195 408 195 339Q195 270 203.5 222Q212 174 231.5 144.5Q251 115 282 102Q313 89 359 89Q404 89 435.5 102Q467 115 486.5 144.5Q506 174 514.5 222Q523 270 523 339Z" glyph-name="Ohungarumlaut" horiz-adv-x="718" unicode="&#336;" /><glyph d="M359 782Q325 782 303.5 771Q282 760 274 731H170Q175 765 191.5 789Q208 813 232.5 828.5Q257 844 289.5 851Q322 858 359 858Q396 858 428.5 851Q461 844 485.5 828.5Q510 813 526.5 789Q543 765 548 731H444Q436 760 414.5 771Q393 782 359 782ZM671 339Q671 254 656 188Q641 122 605 76.5Q569 31 509 7.5Q449 -16 359 -16Q269 -16 209 7.5Q149 31 113 76.5Q77 122 62 188Q47 254 47 339Q47 424 62 490Q77 556 113 601.5Q149 647 209 670.5Q269 694 359 694Q449 694 509 670.5Q569 647 605 601.5Q641 556 656 490Q671 424 671 339ZM523 339Q523 408 514.5 456Q506 504 486.5 533.5Q467 563 436 576Q405 589 359 589Q313 589 282 576Q251 563 231.5 533.5Q212 504 203.5 456Q195 408 195 339Q195 270 203.5 222Q212 174 231.5 144.5Q251 115 282 102Q313 89 359 89Q404 89 435.5 102Q467 115 486.5 144.5Q506 174 514.5 222Q523 270 523 339Z" glyph-name="Oinvertedbreve" horiz-adv-x="718" unicode="&#526;" /><glyph d="M539 756H179V846H539ZM671 339Q671 254 656 188Q641 122 605 76.5Q569 31 509 7.5Q449 -16 359 -16Q269 -16 209 7.5Q149 31 113 76.5Q77 122 62 188Q47 254 47 339Q47 424 62 490Q77 556 113 601.5Q149 647 209 670.5Q269 694 359 694Q449 694 509 670.5Q569 647 605 601.5Q641 556 656 490Q671 424 671 339ZM523 339Q523 408 514.5 456Q506 504 486.5 533.5Q467 563 436 576Q405 589 359 589Q313 589 282 576Q251 563 231.5 533.5Q212 504 203.5 456Q195 408 195 339Q195 270 203.5 222Q212 174 231.5 144.5Q251 115 282 102Q313 89 359 89Q404 89 435.5 102Q467 115 486.5 144.5Q506 174 514.5 222Q523 270 523 339Z" glyph-name="Omacron" horiz-adv-x="718" unicode="&#332;" /><glyph d="M523 339Q523 408 514.5 456Q506 504 486.5 533.5Q467 563 436 576Q405 589 359 589Q313 589 282 576Q251 563 231.5 533.5Q212 504 203.5 456Q195 408 195 339Q195 270 203.5 222Q212 174 231.5 144.5Q251 115 282 102Q313 89 359 89Q404 89 435.5 102Q467 115 486.5 144.5Q506 174 514.5 222Q523 270 523 339ZM366 -82Q366 -113 406 -113Q423 -113 438.5 -111Q454 -109 474 -102V-170Q453 -178 426.5 -181Q400 -184 383 -184Q329 -184 300 -163.5Q271 -143 271 -106Q271 -81 282.5 -57.5Q294 -34 315 -14Q238 -8 187 18Q136 44 104.5 89Q73 134 60 196.5Q47 259 47 339Q47 424 62 490Q77 556 113 601.5Q149 647 209 670.5Q269 694 359 694Q449 694 509 670.5Q569 647 605 601.5Q641 556 656 490Q671 424 671 339Q671 254 656 188Q641 122 605 76.5Q569 31 509 7.5Q449 -16 359 -16Q347 -16 336.5 -15.5Q326 -15 315 -14Q324 -5 333 0H428Q390 -20 378 -43Q366 -66 366 -82Z" glyph-name="Oogonek" horiz-adv-x="718" unicode="&#490;" /><glyph d="M539 756H179V846H539ZM523 339Q523 408 514.5 456Q506 504 486.5 533.5Q467 563 436 576Q405 589 359 589Q313 589 282 576Q251 563 231.5 533.5Q212 504 203.5 456Q195 408 195 339Q195 270 203.5 222Q212 174 231.5 144.5Q251 115 282 102Q313 89 359 89Q404 89 435.5 102Q467 115 486.5 144.5Q506 174 514.5 222Q523 270 523 339ZM366 -82Q366 -113 406 -113Q423 -113 438.5 -111Q454 -109 474 -102V-170Q453 -178 426.5 -181Q400 -184 383 -184Q329 -184 300 -163.5Q271 -143 271 -106Q271 -81 282.5 -57.5Q294 -34 315 -14Q238 -8 187 18Q136 44 104.5 89Q73 134 60 196.5Q47 259 47 339Q47 424 62 490Q77 556 113 601.5Q149 647 209 670.5Q269 694 359 694Q449 694 509 670.5Q569 647 605 601.5Q641 556 656 490Q671 424 671 339Q671 254 656 188Q641 122 605 76.5Q569 31 509 7.5Q449 -16 359 -16Q347 -16 336.5 -15.5Q326 -15 315 -14Q324 -5 333 0H428Q390 -20 378 -43Q366 -66 366 -82Z" glyph-name="Oogonekmacron" horiz-adv-x="718" unicode="&#492;" /><glyph d="M523 339Q523 408 515 455Q507 502 488 532L332 90Q338 89 344.5 89Q351 89 359 89Q404 89 435.5 102Q467 115 486.5 144.5Q506 174 514.5 222Q523 270 523 339ZM195 339Q195 266 204 217Q213 168 235 139L392 587Q384 588 376 588.5Q368 589 359 589Q313 589 282 576Q251 563 231.5 533.5Q212 504 203.5 456Q195 408 195 339ZM156 -86 191 15Q111 53 79 135.5Q47 218 47 339Q47 424 62 490Q77 556 113 601.5Q149 647 209 670.5Q269 694 359 694Q377 694 394.5 693Q412 692 428 690L453 762H569L533 659Q610 620 640.5 538.5Q671 457 671 339Q671 254 656 188Q641 122 605 76.5Q569 31 509 7.5Q449 -16 359 -16Q342 -16 326 -15Q310 -14 296 -12L270 -86Z" glyph-name="Oslash" horiz-adv-x="718" unicode="&#216;" /><glyph d="M382 733H273L385 846H542ZM523 339Q523 408 515 455Q507 502 488 532L332 90Q338 89 344.5 89Q351 89 359 89Q404 89 435.5 102Q467 115 486.5 144.5Q506 174 514.5 222Q523 270 523 339ZM195 339Q195 266 204 217Q213 168 235 139L392 587Q384 588 376 588.5Q368 589 359 589Q313 589 282 576Q251 563 231.5 533.5Q212 504 203.5 456Q195 408 195 339ZM156 -86 191 15Q111 53 79 135.5Q47 218 47 339Q47 424 62 490Q77 556 113 601.5Q149 647 209 670.5Q269 694 359 694Q377 694 394.5 693Q412 692 428 690L453 762H569L533 659Q610 620 640.5 538.5Q671 457 671 339Q671 254 656 188Q641 122 605 76.5Q569 31 509 7.5Q449 -16 359 -16Q342 -16 326 -15Q310 -14 296 -12L270 -86Z" glyph-name="Oslashacute" horiz-adv-x="718" unicode="&#510;" /><glyph d="M437 828Q460 828 490.5 840Q521 852 541 867V779Q533 772 520.5 765Q508 758 493.5 752.5Q479 747 463.5 743.5Q448 740 435 740Q411 740 392 745Q373 750 356.5 756Q340 762 323 767Q306 772 287 772Q263 772 232 760Q201 748 178 734V823Q187 829 200 836Q213 843 228 849Q243 855 258.5 858.5Q274 862 287 862Q312 862 330.5 856.5Q349 851 366 845Q383 839 399.5 833.5Q416 828 437 828ZM523 339Q523 408 514.5 456Q506 504 486.5 533.5Q467 563 436 576Q405 589 359 589Q313 589 282 576Q251 563 231.5 533.5Q212 504 203.5 456Q195 408 195 339Q195 270 203.5 222Q212 174 231.5 144.5Q251 115 282 102Q313 89 359 89Q404 89 435.5 102Q467 115 486.5 144.5Q506 174 514.5 222Q523 270 523 339ZM671 339Q671 254 656 188Q641 122 605 76.5Q569 31 509 7.5Q449 -16 359 -16Q269 -16 209 7.5Q149 31 113 76.5Q77 122 62 188Q47 254 47 339Q47 424 62 490Q77 556 113 601.5Q149 647 209 670.5Q269 694 359 694Q449 694 509 670.5Q569 647 605 601.5Q641 556 656 490Q671 424 671 339Z" glyph-name="Otilde" horiz-adv-x="718" unicode="&#213;" /><glyph d="M539 915H179V999H539ZM437 822Q460 822 490.5 834Q521 846 541 861V778Q533 771 520.5 764Q508 757 493.5 751.5Q479 746 463.5 742.5Q448 739 435 739Q411 739 392 744Q373 749 356.5 755Q340 761 323 766Q306 771 287 771Q263 771 232 759Q201 747 178 733V817Q187 823 200 830Q213 837 228 843Q243 849 258.5 852.5Q274 856 287 856Q312 856 330.5 850.5Q349 845 366 839Q383 833 399.5 827.5Q416 822 437 822ZM523 339Q523 408 514.5 456Q506 504 486.5 533.5Q467 563 436 576Q405 589 359 589Q313 589 282 576Q251 563 231.5 533.5Q212 504 203.5 456Q195 408 195 339Q195 270 203.5 222Q212 174 231.5 144.5Q251 115 282 102Q313 89 359 89Q404 89 435.5 102Q467 115 486.5 144.5Q506 174 514.5 222Q523 270 523 339ZM671 339Q671 254 656 188Q641 122 605 76.5Q569 31 509 7.5Q449 -16 359 -16Q269 -16 209 7.5Q149 31 113 76.5Q77 122 62 188Q47 254 47 339Q47 424 62 490Q77 556 113 601.5Q149 647 209 670.5Q269 694 359 694Q449 694 509 670.5Q569 647 605 601.5Q641 556 656 490Q671 424 671 339Z" glyph-name="Otildemacron" horiz-adv-x="718" unicode="&#556;" /><glyph d="M412 -254H307V-74H412ZM671 339Q671 254 656 188Q641 122 605 76.5Q569 31 509 7.5Q449 -16 359 -16Q269 -16 209 7.5Q149 31 113 76.5Q77 122 62 188Q47 254 47 339Q47 424 62 490Q77 556 113 601.5Q149 647 209 670.5Q269 694 359 694Q449 694 509 670.5Q569 647 605 601.5Q641 556 656 490Q671 424 671 339ZM523 339Q523 408 514.5 456Q506 504 486.5 533.5Q467 563 436 576Q405 589 359 589Q313 589 282 576Q251 563 231.5 533.5Q212 504 203.5 456Q195 408 195 339Q195 270 203.5 222Q212 174 231.5 144.5Q251 115 282 102Q313 89 359 89Q404 89 435.5 102Q467 115 486.5 144.5Q506 174 514.5 222Q523 270 523 339Z" glyph-name="Ounderlineaccent" horiz-adv-x="718" unicode="&#57633;" /><glyph d="M219 329H329Q370 329 395 330.5Q420 332 437 349Q451 363 458.5 387.5Q466 412 466 450Q466 488 458.5 512.5Q451 537 437 551Q420 568 395 569.5Q370 571 329 571H219ZM219 0H81V678H340Q421 678 471.5 667Q522 656 556 622Q583 595 597.5 550.5Q612 506 612 450Q612 394 597.5 349Q583 304 556 277Q522 243 471.5 232Q421 221 340 221H219Z" glyph-name="P" horiz-adv-x="640" unicode="P" /><glyph d="M491 756H131V846H491ZM219 329H329Q370 329 395 330.5Q420 332 437 349Q451 363 458.5 387.5Q466 412 466 450Q466 488 458.5 512.5Q451 537 437 551Q420 568 395 569.5Q370 571 329 571H219ZM219 0H81V678H340Q421 678 471.5 667Q522 656 556 622Q583 595 597.5 550.5Q612 506 612 450Q612 394 597.5 349Q583 304 556 277Q522 243 471.5 232Q421 221 340 221H219Z" glyph-name="Pmacron" horiz-adv-x="640" unicode="&#57635;" /><glyph d="M523 339Q523 408 514.5 456Q506 504 486.5 533.5Q467 563 436 576Q405 589 359 589Q313 589 282 576Q251 563 231.5 533.5Q212 504 203.5 456Q195 408 195 339Q195 270 203.5 222Q212 174 231.5 145Q251 116 282 102.5Q313 89 359 89Q404 89 435.5 102.5Q467 116 486.5 145Q506 174 514.5 222Q523 270 523 339ZM671 339Q671 224 643 145Q615 66 544 25L674 -118H512L414 -13Q388 -16 359 -16Q269 -16 209 7.5Q149 31 113 76.5Q77 122 62 188Q47 254 47 339Q47 424 62 490Q77 556 113 601.5Q149 647 209 670.5Q269 694 359 694Q449 694 509 670.5Q569 647 605 601.5Q641 556 656 490Q671 424 671 339Z" glyph-name="Q" horiz-adv-x="718" unicode="Q" /><glyph d="M219 571V364H341Q376 364 400 365.5Q424 367 438 382Q450 394 458.5 414.5Q467 435 467 467Q467 500 458.5 520.5Q450 541 438 553Q424 567 400 569Q376 571 341 571ZM81 0V678H354Q428 678 476 668Q524 658 556 627Q581 602 595 560.5Q609 519 609 467Q609 415 595 374.5Q581 334 556 309Q540 294 515 280Q490 266 461 260L632 0H474L308 257H219V0Z" glyph-name="R" horiz-adv-x="654" unicode="R" /><glyph d="M351 733H242L354 846H511ZM219 571V364H341Q376 364 400 365.5Q424 367 438 382Q450 394 458.5 414.5Q467 435 467 467Q467 500 458.5 520.5Q450 541 438 553Q424 567 400 569Q376 571 341 571ZM81 0V678H354Q428 678 476 668Q524 658 556 627Q581 602 595 560.5Q609 519 609 467Q609 415 595 374.5Q581 334 556 309Q540 294 515 280Q490 266 461 260L632 0H474L308 257H219V0Z" glyph-name="Racute" horiz-adv-x="654" unicode="&#340;" /><glyph d="M263 729 142 849H261L322 792L383 849H503L381 729ZM219 571V364H341Q376 364 400 365.5Q424 367 438 382Q450 394 458.5 414.5Q467 435 467 467Q467 500 458.5 520.5Q450 541 438 553Q424 567 400 569Q376 571 341 571ZM81 0V678H354Q428 678 476 668Q524 658 556 627Q581 602 595 560.5Q609 519 609 467Q609 415 595 374.5Q581 334 556 309Q540 294 515 280Q490 266 461 260L632 0H474L308 257H219V0Z" glyph-name="Rcaron" horiz-adv-x="654" unicode="&#344;" /><glyph d="M326 -38Q367 -40 392.5 -48Q418 -56 432 -67Q446 -78 451 -90Q456 -102 456 -112Q456 -147 423 -165.5Q390 -184 320 -184Q299 -184 276.5 -181.5Q254 -179 225 -170V-102Q254 -111 272 -114Q290 -117 302 -117Q322 -117 334 -113Q346 -109 346 -97Q346 -86 335 -81.5Q324 -77 306 -74ZM219 571V364H341Q376 364 400 365.5Q424 367 438 382Q450 394 458.5 414.5Q467 435 467 467Q467 500 458.5 520.5Q450 541 438 553Q424 567 400 569Q376 571 341 571ZM81 0V678H354Q428 678 476 668Q524 658 556 627Q581 602 595 560.5Q609 519 609 467Q609 415 595 374.5Q581 334 556 309Q540 294 515 280Q490 266 461 260L632 0H474L308 257H219V0Z" glyph-name="Rcedilla" horiz-adv-x="654" unicode="&#57639;" /><glyph d="M280 -74H409L311 -268H238ZM219 571V364H341Q376 364 400 365.5Q424 367 438 382Q450 394 458.5 414.5Q467 435 467 467Q467 500 458.5 520.5Q450 541 438 553Q424 567 400 569Q376 571 341 571ZM81 0V678H354Q428 678 476 668Q524 658 556 627Q581 602 595 560.5Q609 519 609 467Q609 415 595 374.5Q581 334 556 309Q540 294 515 280Q490 266 461 260L632 0H474L308 257H219V0Z" glyph-name="Rcommaaccent" horiz-adv-x="654" unicode="&#342;" /><glyph d="M405 -197H281V-88H405ZM219 571V364H341Q376 364 400 365.5Q424 367 438 382Q450 394 458.5 414.5Q467 435 467 467Q467 500 458.5 520.5Q450 541 438 553Q424 567 400 569Q376 571 341 571ZM81 0V678H354Q428 678 476 668Q524 658 556 627Q581 602 595 560.5Q609 519 609 467Q609 415 595 374.5Q581 334 556 309Q540 294 515 280Q490 266 461 260L632 0H474L308 257H219V0Z" glyph-name="Rdotbelow" horiz-adv-x="654" unicode="&#7770;" /><glyph d="M496 756H136V846H496ZM405 -197H281V-88H405ZM219 571V364H341Q376 364 400 365.5Q424 367 438 382Q450 394 458.5 414.5Q467 435 467 467Q467 500 458.5 520.5Q450 541 438 553Q424 567 400 569Q376 571 341 571ZM81 0V678H354Q428 678 476 668Q524 658 556 627Q581 602 595 560.5Q609 519 609 467Q609 415 595 374.5Q581 334 556 309Q540 294 515 280Q490 266 461 260L632 0H474L308 257H219V0Z" glyph-name="Rdotbelowmacron" horiz-adv-x="654" unicode="&#7772;" /><glyph d="M27 846H170L280 731H185ZM214 846H357L467 731H372ZM219 571V364H341Q376 364 400 365.5Q424 367 438 382Q450 394 458.5 414.5Q467 435 467 467Q467 500 458.5 520.5Q450 541 438 553Q424 567 400 569Q376 571 341 571ZM81 0V678H354Q428 678 476 668Q524 658 556 627Q581 602 595 560.5Q609 519 609 467Q609 415 595 374.5Q581 334 556 309Q540 294 515 280Q490 266 461 260L632 0H474L308 257H219V0Z" glyph-name="Rdoublegrave" horiz-adv-x="654" unicode="&#57637;" /><glyph d="M319 782Q285 782 263.5 771Q242 760 234 731H130Q135 765 151.5 789Q168 813 192.5 828.5Q217 844 249.5 851Q282 858 319 858Q356 858 388.5 851Q421 844 445.5 828.5Q470 813 486.5 789Q503 765 508 731H404Q396 760 374.5 771Q353 782 319 782ZM219 571V364H341Q376 364 400 365.5Q424 367 438 382Q450 394 458.5 414.5Q467 435 467 467Q467 500 458.5 520.5Q450 541 438 553Q424 567 400 569Q376 571 341 571ZM81 0V678H354Q428 678 476 668Q524 658 556 627Q581 602 595 560.5Q609 519 609 467Q609 415 595 374.5Q581 334 556 309Q540 294 515 280Q490 266 461 260L632 0H474L308 257H219V0Z" glyph-name="Rinvertedbreve" horiz-adv-x="654" unicode="&#530;" /><glyph d="M276 98Q322 98 352.5 105Q383 112 402 124.5Q421 137 429 155Q437 173 437 194Q437 224 427.5 241.5Q418 259 399 268Q380 277 352.5 280.5Q325 284 289 286Q239 289 196 298Q153 307 121 329Q89 351 71 388.5Q53 426 53 486Q53 541 73.5 580.5Q94 620 131.5 645.5Q169 671 221.5 682.5Q274 694 338 694Q351 694 373.5 692.5Q396 691 422 688Q448 685 474 680.5Q500 676 520 669V566Q494 572 468 576Q442 580 418 582Q394 584 374 585Q354 586 341 586Q194 586 194 500Q194 470 204 453Q214 436 232.5 428Q251 420 278.5 417Q306 414 342 413Q391 411 434 401.5Q477 392 509 369Q541 346 559.5 306Q578 266 578 204Q578 148 556.5 106.5Q535 65 495.5 38Q456 11 401 -2.5Q346 -16 279 -16Q265 -16 241.5 -15Q218 -14 188.5 -10.5Q159 -7 127.5 -1Q96 5 67 14V123Q94 116 124 111Q154 106 183 103Q212 100 236.5 99Q261 98 276 98Z" glyph-name="S" horiz-adv-x="613" unicode="S" /><glyph d="M350 733H241L353 846H510ZM276 98Q322 98 352.5 105Q383 112 402 124.5Q421 137 429 155Q437 173 437 194Q437 224 427.5 241.5Q418 259 399 268Q380 277 352.5 280.5Q325 284 289 286Q239 289 196 298Q153 307 121 329Q89 351 71 388.5Q53 426 53 486Q53 541 73.5 580.5Q94 620 131.5 645.5Q169 671 221.5 682.5Q274 694 338 694Q351 694 373.5 692.5Q396 691 422 688Q448 685 474 680.5Q500 676 520 669V566Q494 572 468 576Q442 580 418 582Q394 584 374 585Q354 586 341 586Q194 586 194 500Q194 470 204 453Q214 436 232.5 428Q251 420 278.5 417Q306 414 342 413Q391 411 434 401.5Q477 392 509 369Q541 346 559.5 306Q578 266 578 204Q578 148 556.5 106.5Q535 65 495.5 38Q456 11 401 -2.5Q346 -16 279 -16Q265 -16 241.5 -15Q218 -14 188.5 -10.5Q159 -7 127.5 -1Q96 5 67 14V123Q94 116 124 111Q154 106 183 103Q212 100 236.5 99Q261 98 276 98Z" glyph-name="Sacute" horiz-adv-x="613" unicode="&#346;" /><glyph d="M248 729 127 849H246L307 792L368 849H488L366 729ZM276 98Q322 98 352.5 105Q383 112 402 124.5Q421 137 429 155Q437 173 437 194Q437 224 427.5 241.5Q418 259 399 268Q380 277 352.5 280.5Q325 284 289 286Q239 289 196 298Q153 307 121 329Q89 351 71 388.5Q53 426 53 486Q53 541 73.5 580.5Q94 620 131.5 645.5Q169 671 221.5 682.5Q274 694 338 694Q351 694 373.5 692.5Q396 691 422 688Q448 685 474 680.5Q500 676 520 669V566Q494 572 468 576Q442 580 418 582Q394 584 374 585Q354 586 341 586Q194 586 194 500Q194 470 204 453Q214 436 232.5 428Q251 420 278.5 417Q306 414 342 413Q391 411 434 401.5Q477 392 509 369Q541 346 559.5 306Q578 266 578 204Q578 148 556.5 106.5Q535 65 495.5 38Q456 11 401 -2.5Q346 -16 279 -16Q265 -16 241.5 -15Q218 -14 188.5 -10.5Q159 -7 127.5 -1Q96 5 67 14V123Q94 116 124 111Q154 106 183 103Q212 100 236.5 99Q261 98 276 98Z" glyph-name="Scaron" horiz-adv-x="613" unicode="&#352;" /><glyph d="M268 -16Q252 -16 228.5 -14.5Q205 -13 178 -9.5Q151 -6 122 -0.5Q93 5 67 14V123Q94 116 124 111Q154 106 183 103Q212 100 236.5 99Q261 98 276 98Q322 98 352.5 105Q383 112 402 124.5Q421 137 429 155Q437 173 437 194Q437 224 427.5 241.5Q418 259 399 268Q380 277 352.5 280.5Q325 284 289 286Q239 289 196 298Q153 307 121 329Q89 351 71 388.5Q53 426 53 486Q53 541 73.5 580.5Q94 620 131.5 645.5Q169 671 221.5 682.5Q274 694 338 694Q351 694 373.5 692.5Q396 691 422 688Q448 685 474 680.5Q500 676 520 669V566Q494 572 468 576Q442 580 418 582Q394 584 374 585Q354 586 341 586Q194 586 194 500Q194 470 204 453Q214 436 232.5 428Q251 420 278.5 417Q306 414 342 413Q391 411 434 401.5Q477 392 509 369Q541 346 559.5 306Q578 266 578 204Q578 157 563 121Q548 85 520 58Q492 31 453 14Q414 -3 365 -10L351 -43Q388 -56 400 -73.5Q412 -91 412 -108Q412 -143 379 -163.5Q346 -184 276 -184Q255 -184 232.5 -181.5Q210 -179 181 -170V-102Q210 -111 228 -114Q246 -117 258 -117Q278 -117 290 -113Q302 -109 302 -97Q302 -86 289.5 -81Q277 -76 260 -75L254 -48Z" glyph-name="Scedilla" horiz-adv-x="613" unicode="&#350;" /><glyph d="M332 90Q366 90 399 98Q432 106 454 128Q475 151 485 182Q495 213 499 265H187Q186 257 186 250Q186 243 186 235Q186 205 193.5 176.5Q201 148 223 125Q243 105 270.5 97.5Q298 90 332 90ZM501 372Q501 431 491 472Q481 513 456.5 538.5Q432 564 391.5 575Q351 586 290 586Q272 586 246 584.5Q220 583 190.5 579Q161 575 131.5 569.5Q102 564 78 556V663Q102 672 132 677.5Q162 683 193 687Q224 691 255 692.5Q286 694 313 694Q406 694 470 672.5Q534 651 573.5 607Q613 563 631 496.5Q649 430 649 340Q649 238 624 169.5Q599 101 556 60Q513 19 455.5 1.5Q398 -16 333 -16Q185 -16 116 55Q47 126 47 269Q47 277 47.5 289.5Q48 302 48.5 316.5Q49 331 50 345.5Q51 360 53 372Z" glyph-name="Schwa" horiz-adv-x="696" unicode="&#399;" /><glyph d="M365 849 487 729H367L306 786L245 729H126L247 849ZM276 98Q322 98 352.5 105Q383 112 402 124.5Q421 137 429 155Q437 173 437 194Q437 224 427.5 241.5Q418 259 399 268Q380 277 352.5 280.5Q325 284 289 286Q239 289 196 298Q153 307 121 329Q89 351 71 388.5Q53 426 53 486Q53 541 73.5 580.5Q94 620 131.5 645.5Q169 671 221.5 682.5Q274 694 338 694Q351 694 373.5 692.5Q396 691 422 688Q448 685 474 680.5Q500 676 520 669V566Q494 572 468 576Q442 580 418 582Q394 584 374 585Q354 586 341 586Q194 586 194 500Q194 470 204 453Q214 436 232.5 428Q251 420 278.5 417Q306 414 342 413Q391 411 434 401.5Q477 392 509 369Q541 346 559.5 306Q578 266 578 204Q578 148 556.5 106.5Q535 65 495.5 38Q456 11 401 -2.5Q346 -16 279 -16Q265 -16 241.5 -15Q218 -14 188.5 -10.5Q159 -7 127.5 -1Q96 5 67 14V123Q94 116 124 111Q154 106 183 103Q212 100 236.5 99Q261 98 276 98Z" glyph-name="Scircumflex" horiz-adv-x="613" unicode="&#348;" /><glyph d="M250 -74H379L281 -268H208ZM276 98Q322 98 352.5 105Q383 112 402 124.5Q421 137 429 155Q437 173 437 194Q437 224 427.5 241.5Q418 259 399 268Q380 277 352.5 280.5Q325 284 289 286Q239 289 196 298Q153 307 121 329Q89 351 71 388.5Q53 426 53 486Q53 541 73.5 580.5Q94 620 131.5 645.5Q169 671 221.5 682.5Q274 694 338 694Q351 694 373.5 692.5Q396 691 422 688Q448 685 474 680.5Q500 676 520 669V566Q494 572 468 576Q442 580 418 582Q394 584 374 585Q354 586 341 586Q194 586 194 500Q194 470 204 453Q214 436 232.5 428Q251 420 278.5 417Q306 414 342 413Q391 411 434 401.5Q477 392 509 369Q541 346 559.5 306Q578 266 578 204Q578 148 556.5 106.5Q535 65 495.5 38Q456 11 401 -2.5Q346 -16 279 -16Q265 -16 241.5 -15Q218 -14 188.5 -10.5Q159 -7 127.5 -1Q96 5 67 14V123Q94 116 124 111Q154 106 183 103Q212 100 236.5 99Q261 98 276 98Z" glyph-name="Scommaaccent" horiz-adv-x="613" unicode="&#536;" /><glyph d="M369 -197H245V-88H369ZM276 98Q322 98 352.5 105Q383 112 402 124.5Q421 137 429 155Q437 173 437 194Q437 224 427.5 241.5Q418 259 399 268Q380 277 352.5 280.5Q325 284 289 286Q239 289 196 298Q153 307 121 329Q89 351 71 388.5Q53 426 53 486Q53 541 73.5 580.5Q94 620 131.5 645.5Q169 671 221.5 682.5Q274 694 338 694Q351 694 373.5 692.5Q396 691 422 688Q448 685 474 680.5Q500 676 520 669V566Q494 572 468 576Q442 580 418 582Q394 584 374 585Q354 586 341 586Q194 586 194 500Q194 470 204 453Q214 436 232.5 428Q251 420 278.5 417Q306 414 342 413Q391 411 434 401.5Q477 392 509 369Q541 346 559.5 306Q578 266 578 204Q578 148 556.5 106.5Q535 65 495.5 38Q456 11 401 -2.5Q346 -16 279 -16Q265 -16 241.5 -15Q218 -14 188.5 -10.5Q159 -7 127.5 -1Q96 5 67 14V123Q94 116 124 111Q154 106 183 103Q212 100 236.5 99Q261 98 276 98Z" glyph-name="Sdotbelow" horiz-adv-x="613" unicode="&#7778;" /><glyph d="M334 0H196V571H6V678H524V571H334Z" glyph-name="T" horiz-adv-x="530" unicode="T" /><glyph d="M471 292H334V0H196V292H56V399H196V571H6V678H524V571H334V399H471Z" glyph-name="Tbar" horiz-adv-x="530" unicode="&#358;" /><glyph d="M206 729 85 849H204L265 792L326 849H446L324 729ZM334 0H196V571H6V678H524V571H334Z" glyph-name="Tcaron" horiz-adv-x="530" unicode="&#356;" /><glyph d="M248 -38Q289 -40 314.5 -48Q340 -56 354 -67Q368 -78 373 -90Q378 -102 378 -112Q378 -147 345 -165.5Q312 -184 242 -184Q221 -184 198.5 -181.5Q176 -179 147 -170V-102Q176 -111 194 -114Q212 -117 224 -117Q244 -117 256 -113Q268 -109 268 -97Q268 -86 257 -81.5Q246 -77 228 -74ZM334 0H196V571H6V678H524V571H334Z" glyph-name="Tcedilla" horiz-adv-x="530" unicode="&#57641;" /><glyph d="M202 -74H331L233 -268H160ZM334 0H196V571H6V678H524V571H334Z" glyph-name="Tcommaaccent" horiz-adv-x="530" unicode="&#354;" /><glyph d="M327 -197H203V-88H327ZM334 0H196V571H6V678H524V571H334Z" glyph-name="Tdotbelow" horiz-adv-x="530" unicode="&#7788;" /><glyph d="M219 223H329Q370 223 395 224.5Q420 226 437 243Q451 257 458.5 281.5Q466 306 466 344Q466 382 458.5 406.5Q451 431 437 445Q420 462 395 463.5Q370 465 329 465H219ZM219 0H81V678H219V572H340Q421 572 471.5 561Q522 550 556 516Q583 489 597.5 444.5Q612 400 612 344Q612 288 597.5 243Q583 198 556 171Q522 137 471.5 126Q421 115 340 115H219Z" glyph-name="Thorn" horiz-adv-x="650" unicode="&#222;" /><glyph d="M345 90Q388 90 414.5 98.5Q441 107 458 124Q476 142 481.5 167Q487 192 487 213V678H625V230Q625 172 612 127Q599 82 567 50Q532 15 478 -0.5Q424 -16 345 -16Q267 -16 213 -0.5Q159 15 124 50Q92 82 79 127Q66 172 66 230V678H204V213Q204 192 209.5 167Q215 142 233 124Q250 107 276 98.5Q302 90 345 90Z" glyph-name="U" horiz-adv-x="691" unicode="U" /><glyph d="M345 90Q381 90 409 98Q437 106 455 124Q470 139 478.5 161Q487 183 487 213V678H932V571H624V399H888V292H624V107H939V0H469Q418 -16 345 -16Q267 -16 213 -0.5Q159 15 124 50Q92 82 79 127Q66 172 66 230V678H204V213Q204 192 209.5 167Q215 142 233 124Q250 107 276 98.5Q302 90 345 90Z" glyph-name="UE" horiz-adv-x="970" unicode="&#59481;" /><glyph d="M388 733H279L391 846H548ZM345 90Q388 90 414.5 98.5Q441 107 458 124Q476 142 481.5 167Q487 192 487 213V678H625V230Q625 172 612 127Q599 82 567 50Q532 15 478 -0.5Q424 -16 345 -16Q267 -16 213 -0.5Q159 15 124 50Q92 82 79 127Q66 172 66 230V678H204V213Q204 192 209.5 167Q215 142 233 124Q250 107 276 98.5Q302 90 345 90Z" glyph-name="Uacute" horiz-adv-x="691" unicode="&#218;" /><glyph d="M345 795Q379 795 400.5 806Q422 817 430 846H534Q529 812 512.5 788Q496 764 471.5 748.5Q447 733 414.5 726Q382 719 345 719Q308 719 275.5 726Q243 733 218.5 748.5Q194 764 177.5 788Q161 812 156 846H260Q268 817 289.5 806Q311 795 345 795ZM345 90Q388 90 414.5 98.5Q441 107 458 124Q476 142 481.5 167Q487 192 487 213V678H625V230Q625 172 612 127Q599 82 567 50Q532 15 478 -0.5Q424 -16 345 -16Q267 -16 213 -0.5Q159 15 124 50Q92 82 79 127Q66 172 66 230V678H204V213Q204 192 209.5 167Q215 142 233 124Q250 107 276 98.5Q302 90 345 90Z" glyph-name="Ubreve" horiz-adv-x="691" unicode="&#364;" /><glyph d="M286 729 165 849H284L345 792L406 849H526L404 729ZM345 90Q388 90 414.5 98.5Q441 107 458 124Q476 142 481.5 167Q487 192 487 213V678H625V230Q625 172 612 127Q599 82 567 50Q532 15 478 -0.5Q424 -16 345 -16Q267 -16 213 -0.5Q159 15 124 50Q92 82 79 127Q66 172 66 230V678H204V213Q204 192 209.5 167Q215 142 233 124Q250 107 276 98.5Q302 90 345 90Z" glyph-name="Ucaron" horiz-adv-x="691" unicode="&#467;" /><glyph d="M404 849 526 729H406L345 786L284 729H165L286 849ZM345 90Q388 90 414.5 98.5Q441 107 458 124Q476 142 481.5 167Q487 192 487 213V678H625V230Q625 172 612 127Q599 82 567 50Q532 15 478 -0.5Q424 -16 345 -16Q267 -16 213 -0.5Q159 15 124 50Q92 82 79 127Q66 172 66 230V678H204V213Q204 192 209.5 167Q215 142 233 124Q250 107 276 98.5Q302 90 345 90Z" glyph-name="Ucircumflex" horiz-adv-x="691" unicode="&#219;" /><glyph d="M521 740H395V844H521ZM296 740H170V844H296ZM345 90Q388 90 414.5 98.5Q441 107 458 124Q476 142 481.5 167Q487 192 487 213V678H625V230Q625 172 612 127Q599 82 567 50Q532 15 478 -0.5Q424 -16 345 -16Q267 -16 213 -0.5Q159 15 124 50Q92 82 79 127Q66 172 66 230V678H204V213Q204 192 209.5 167Q215 142 233 124Q250 107 276 98.5Q302 90 345 90Z" glyph-name="Udieresis" horiz-adv-x="691" unicode="&#220;" /><glyph d="M409 -197H285V-88H409ZM345 90Q388 90 414.5 98.5Q441 107 458 124Q476 142 481.5 167Q487 192 487 213V678H625V230Q625 172 612 127Q599 82 567 50Q532 15 478 -0.5Q424 -16 345 -16Q267 -16 213 -0.5Q159 15 124 50Q92 82 79 127Q66 172 66 230V678H204V213Q204 192 209.5 167Q215 142 233 124Q250 107 276 98.5Q302 90 345 90Z" glyph-name="Udotbelow" horiz-adv-x="691" unicode="&#7908;" /><glyph d="M62 846H205L315 731H220ZM249 846H392L502 731H407ZM345 90Q388 90 414.5 98.5Q441 107 458 124Q476 142 481.5 167Q487 192 487 213V678H625V230Q625 172 612 127Q599 82 567 50Q532 15 478 -0.5Q424 -16 345 -16Q267 -16 213 -0.5Q159 15 124 50Q92 82 79 127Q66 172 66 230V678H204V213Q204 192 209.5 167Q215 142 233 124Q250 107 276 98.5Q302 90 345 90Z" glyph-name="Udoublegrave" horiz-adv-x="691" unicode="&#532;" /><glyph d="M146 846H303L415 733H306ZM345 90Q388 90 414.5 98.5Q441 107 458 124Q476 142 481.5 167Q487 192 487 213V678H625V230Q625 172 612 127Q599 82 567 50Q532 15 478 -0.5Q424 -16 345 -16Q267 -16 213 -0.5Q159 15 124 50Q92 82 79 127Q66 172 66 230V678H204V213Q204 192 209.5 167Q215 142 233 124Q250 107 276 98.5Q302 90 345 90Z" glyph-name="Ugrave" horiz-adv-x="691" unicode="&#217;" /><glyph d="M474 731H379L489 846H632ZM287 731H192L302 846H445ZM345 90Q388 90 414.5 98.5Q441 107 458 124Q476 142 481.5 167Q487 192 487 213V678H625V230Q625 172 612 127Q599 82 567 50Q532 15 478 -0.5Q424 -16 345 -16Q267 -16 213 -0.5Q159 15 124 50Q92 82 79 127Q66 172 66 230V678H204V213Q204 192 209.5 167Q215 142 233 124Q250 107 276 98.5Q302 90 345 90Z" glyph-name="Uhungarumlaut" horiz-adv-x="691" unicode="&#368;" /><glyph d="M345 782Q311 782 289.5 771Q268 760 260 731H156Q161 765 177.5 789Q194 813 218.5 828.5Q243 844 275.5 851Q308 858 345 858Q382 858 414.5 851Q447 844 471.5 828.5Q496 813 512.5 789Q529 765 534 731H430Q422 760 400.5 771Q379 782 345 782ZM345 90Q388 90 414.5 98.5Q441 107 458 124Q476 142 481.5 167Q487 192 487 213V678H625V230Q625 172 612 127Q599 82 567 50Q532 15 478 -0.5Q424 -16 345 -16Q267 -16 213 -0.5Q159 15 124 50Q92 82 79 127Q66 172 66 230V678H204V213Q204 192 209.5 167Q215 142 233 124Q250 107 276 98.5Q302 90 345 90Z" glyph-name="Uinvertedbreve" horiz-adv-x="691" unicode="&#534;" /><glyph d="M525 756H165V846H525ZM345 90Q388 90 414.5 98.5Q441 107 458 124Q476 142 481.5 167Q487 192 487 213V678H625V230Q625 172 612 127Q599 82 567 50Q532 15 478 -0.5Q424 -16 345 -16Q267 -16 213 -0.5Q159 15 124 50Q92 82 79 127Q66 172 66 230V678H204V213Q204 192 209.5 167Q215 142 233 124Q250 107 276 98.5Q302 90 345 90Z" glyph-name="Umacron" horiz-adv-x="691" unicode="&#362;" /><glyph d="M525 -168H165V-78H525ZM345 90Q388 90 414.5 98.5Q441 107 458 124Q476 142 481.5 167Q487 192 487 213V678H625V230Q625 172 612 127Q599 82 567 50Q532 15 478 -0.5Q424 -16 345 -16Q267 -16 213 -0.5Q159 15 124 50Q92 82 79 127Q66 172 66 230V678H204V213Q204 192 209.5 167Q215 142 233 124Q250 107 276 98.5Q302 90 345 90Z" glyph-name="Umacronbelow" horiz-adv-x="691" unicode="&#57643;" /><glyph d="M353 -82Q353 -113 393 -113Q410 -113 425.5 -111Q441 -109 461 -102V-170Q440 -178 413.5 -181Q387 -184 370 -184Q316 -184 287 -163.5Q258 -143 258 -106Q258 -81 269.5 -57.5Q281 -34 301 -14Q241 -10 197.5 5Q154 20 124 50Q92 82 79 127Q66 172 66 230V678H204V213Q204 192 209.5 167Q215 142 233 124Q250 107 276 98.5Q302 90 345 90Q388 90 414.5 98.5Q441 107 458 124Q476 142 481.5 167Q487 192 487 213V678H625V230Q625 172 612 127Q599 82 567 50Q537 20 494.5 5Q452 -10 392 -14Q369 -32 361 -50Q353 -68 353 -82Z" glyph-name="Uogonek" horiz-adv-x="691" unicode="&#370;" /><glyph d="M449 801Q449 758 422.5 739.5Q396 721 346 721Q296 721 269 739.5Q242 758 242 801Q242 844 269 862.5Q296 881 346 881Q396 881 422.5 862.5Q449 844 449 801ZM380 801Q380 833 346 833Q311 833 311 801Q311 771 346 771Q380 771 380 801ZM345 90Q388 90 414.5 98.5Q441 107 458 124Q476 142 481.5 167Q487 192 487 213V678H625V230Q625 172 612 127Q599 82 567 50Q532 15 478 -0.5Q424 -16 345 -16Q267 -16 213 -0.5Q159 15 124 50Q92 82 79 127Q66 172 66 230V678H204V213Q204 192 209.5 167Q215 142 233 124Q250 107 276 98.5Q302 90 345 90Z" glyph-name="Uring" horiz-adv-x="691" unicode="&#366;" /><glyph d="M423 828Q446 828 476.5 840Q507 852 527 867V779Q519 772 506.5 765Q494 758 479.5 752.5Q465 747 449.5 743.5Q434 740 421 740Q397 740 378 745Q359 750 342.5 756Q326 762 309 767Q292 772 273 772Q249 772 218 760Q187 748 164 734V823Q173 829 186 836Q199 843 214 849Q229 855 244.5 858.5Q260 862 273 862Q298 862 316.5 856.5Q335 851 352 845Q369 839 385.5 833.5Q402 828 423 828ZM345 90Q388 90 414.5 98.5Q441 107 458 124Q476 142 481.5 167Q487 192 487 213V678H625V230Q625 172 612 127Q599 82 567 50Q532 15 478 -0.5Q424 -16 345 -16Q267 -16 213 -0.5Q159 15 124 50Q92 82 79 127Q66 172 66 230V678H204V213Q204 192 209.5 167Q215 142 233 124Q250 107 276 98.5Q302 90 345 90Z" glyph-name="Utilde" horiz-adv-x="691" unicode="&#360;" /><glyph d="M324 129Q344 196 362.5 259Q381 322 398 373L498 678H640L407 0H233L0 678H148L248 373Q265 322 283.5 259Q302 196 321 129Z" glyph-name="V" horiz-adv-x="640" unicode="V" /><glyph d="M523 678 637 333Q653 285 667.5 234.5Q682 184 693 136H697Q706 184 716.5 236Q727 288 739 336L827 678H964L779 0H621L536 253Q522 293 510 334Q498 375 487 407H484Q474 375 461.5 334Q449 293 435 254L348 0H190L5 678H148L235 337Q248 288 259 236.5Q270 185 278 136H282Q294 184 308 231.5Q322 279 338 326L419 567L381 678Z" glyph-name="W" horiz-adv-x="969" unicode="W" /><glyph d="M503 733H394L506 846H663ZM523 678 637 333Q653 285 667.5 234.5Q682 184 693 136H697Q706 184 716.5 236Q727 288 739 336L827 678H964L779 0H621L536 253Q522 293 510 334Q498 375 487 407H484Q474 375 461.5 334Q449 293 435 254L348 0H190L5 678H148L235 337Q248 288 259 236.5Q270 185 278 136H282Q294 184 308 231.5Q322 279 338 326L419 567L381 678Z" glyph-name="Wacute" horiz-adv-x="969" unicode="&#7810;" /><glyph d="M539 849 661 729H541L480 786L419 729H300L421 849ZM523 678 637 333Q653 285 667.5 234.5Q682 184 693 136H697Q706 184 716.5 236Q727 288 739 336L827 678H964L779 0H621L536 253Q522 293 510 334Q498 375 487 407H484Q474 375 461.5 334Q449 293 435 254L348 0H190L5 678H148L235 337Q248 288 259 236.5Q270 185 278 136H282Q294 184 308 231.5Q322 279 338 326L419 567L381 678Z" glyph-name="Wcircumflex" horiz-adv-x="969" unicode="&#372;" /><glyph d="M650 740H524V844H650ZM425 740H299V844H425ZM523 678 637 333Q653 285 667.5 234.5Q682 184 693 136H697Q706 184 716.5 236Q727 288 739 336L827 678H964L779 0H621L536 253Q522 293 510 334Q498 375 487 407H484Q474 375 461.5 334Q449 293 435 254L348 0H190L5 678H148L235 337Q248 288 259 236.5Q270 185 278 136H282Q294 184 308 231.5Q322 279 338 326L419 567L381 678Z" glyph-name="Wdieresis" horiz-adv-x="969" unicode="&#7812;" /><glyph d="M231 846H388L500 733H391ZM523 678 637 333Q653 285 667.5 234.5Q682 184 693 136H697Q706 184 716.5 236Q727 288 739 336L827 678H964L779 0H621L536 253Q522 293 510 334Q498 375 487 407H484Q474 375 461.5 334Q449 293 435 254L348 0H190L5 678H148L235 337Q248 288 259 236.5Q270 185 278 136H282Q294 184 308 231.5Q322 279 338 326L419 567L381 678Z" glyph-name="Wgrave" horiz-adv-x="969" unicode="&#7808;" /><glyph d="M441 678H596L374 349L606 0H442L292 233L143 0H-10L217 342L-8 678H155L298 457Z" glyph-name="X" horiz-adv-x="596" unicode="X" /><glyph d="M481 678H625L376 247V0H239V246L-5 678H146L310 367H313Z" glyph-name="Y" horiz-adv-x="620" unicode="Y" /><glyph d="M357 733H248L360 846H517ZM481 678H625L376 247V0H239V246L-5 678H146L310 367H313Z" glyph-name="Yacute" horiz-adv-x="620" unicode="&#221;" /><glyph d="M373 849 495 729H375L314 786L253 729H134L255 849ZM481 678H625L376 247V0H239V246L-5 678H146L310 367H313Z" glyph-name="Ycircumflex" horiz-adv-x="620" unicode="&#374;" /><glyph d="M264 740H138V844H264ZM489 740H363V844H489ZM481 678H625L376 247V0H239V246L-5 678H146L310 367H313Z" glyph-name="Ydieresis" horiz-adv-x="620" unicode="&#376;" /><glyph d="M109 846H266L378 733H269ZM481 678H625L376 247V0H239V246L-5 678H146L310 367H313Z" glyph-name="Ygrave" horiz-adv-x="620" unicode="&#7922;" /><glyph d="M493 756H133V846H493ZM481 678H625L376 247V0H239V246L-5 678H146L310 367H313Z" glyph-name="Ymacron" horiz-adv-x="620" unicode="&#562;" /><glyph d="M376 104Q376 148 361.5 174.5Q347 201 322.5 215Q298 229 266 233Q234 237 200 237Q182 237 166 236.5Q150 236 127 234L122 320L327 569V571H24V678H493V581L297 344Q341 340 381 324.5Q421 309 451 280.5Q481 252 499 210Q517 168 517 110Q517 44 492 -2.5Q467 -49 423.5 -78Q380 -107 322.5 -120.5Q265 -134 199 -134Q185 -134 164 -133Q143 -132 117 -128.5Q91 -125 61.5 -119Q32 -113 3 -104V5Q30 -2 58 -7Q86 -12 111.5 -15Q137 -18 159 -19Q181 -20 196 -20Q283 -20 329.5 12Q376 44 376 104Z" glyph-name="Yogh" horiz-adv-x="560" unicode="&#439;" /><glyph d="M202 729 81 849H200L261 792L322 849H442L320 729ZM376 104Q376 148 361.5 174.5Q347 201 322.5 215Q298 229 266 233Q234 237 200 237Q182 237 166 236.5Q150 236 127 234L122 320L327 569V571H24V678H493V581L297 344Q341 340 381 324.5Q421 309 451 280.5Q481 252 499 210Q517 168 517 110Q517 44 492 -2.5Q467 -49 423.5 -78Q380 -107 322.5 -120.5Q265 -134 199 -134Q185 -134 164 -133Q143 -132 117 -128.5Q91 -125 61.5 -119Q32 -113 3 -104V5Q30 -2 58 -7Q86 -12 111.5 -15Q137 -18 159 -19Q181 -20 196 -20Q283 -20 329.5 12Q376 44 376 104Z" glyph-name="Yoghcaron" horiz-adv-x="557" unicode="&#59526;" /><glyph d="M391 834Q414 834 444.5 846Q475 858 495 873V785Q487 778 474.5 771Q462 764 447.5 758.5Q433 753 417.5 749.5Q402 746 389 746Q365 746 346 751Q327 756 310.5 762Q294 768 277 773Q260 778 241 778Q217 778 186 766Q155 754 132 740V829Q141 835 154 842Q167 849 182 855Q197 861 212.5 864.5Q228 868 241 868Q266 868 284.5 862.5Q303 857 320 851Q337 845 353.5 839.5Q370 834 391 834ZM481 678H625L376 247V0H239V246L-5 678H146L310 367H313Z" glyph-name="Ytilde" horiz-adv-x="620" unicode="&#7928;" /><glyph d="M32 0V96L359 569V571H59V678H528V581L201 109V107H531V0Z" glyph-name="Z" horiz-adv-x="564" unicode="Z" /><glyph d="M326 733H217L329 846H486ZM32 0V96L359 569V571H59V678H528V581L201 109V107H531V0Z" glyph-name="Zacute" horiz-adv-x="564" unicode="&#377;" /><glyph d="M235 729 114 849H233L294 792L355 849H475L353 729ZM32 0V96L359 569V571H59V678H528V581L201 109V107H531V0Z" glyph-name="Zcaron" horiz-adv-x="564" unicode="&#381;" /><glyph d="M361 742H229V846H361ZM32 0V96L359 569V571H59V678H528V581L201 109V107H531V0Z" glyph-name="Zdotaccent" horiz-adv-x="564" unicode="&#379;" /><glyph d="M289 231Q254 231 229.5 226Q205 221 190 207Q183 200 178.5 188Q174 176 174 156Q174 135 180.5 122Q187 109 198.5 102.5Q210 96 225.5 93.5Q241 91 259 91Q301 91 325.5 105Q350 119 365 141V228Q342 230 322 230.5Q302 231 289 231ZM365 361Q365 378 363 391Q361 404 349.5 412.5Q338 421 313 425Q288 429 242 429Q216 429 172.5 425Q129 421 81 410V506Q104 512 131 516Q158 520 184 522Q210 524 232.5 525Q255 526 269 526Q331 526 374 518Q417 510 444 490.5Q471 471 483 438Q495 405 495 355V0H404L387 52H386Q361 23 320 6Q279 -11 232 -11Q187 -11 148 -0.5Q109 10 82 36Q62 56 51 85Q40 114 40 150Q40 186 49.5 215Q59 244 79 264Q95 280 119 290.5Q143 301 170 307Q197 313 226 315Q255 317 282 317Q304 317 323.5 316.5Q343 316 365 314Z" glyph-name="a" horiz-adv-x="562" unicode="a" /><glyph d="M411 386Q401 394 387 401Q374 407 355 412Q336 417 307 417Q238 417 212.5 377Q187 337 187 254Q187 175 210 134Q233 93 294 93Q323 93 345.5 102Q368 111 382 122Q399 135 411 152ZM459 510H543V0H451L436 56H435Q429 50 416.5 39Q404 28 384.5 16.5Q365 5 339 -3.5Q313 -12 279 -12Q238 -12 196.5 -2Q155 8 121.5 37Q88 66 67 118Q46 170 46 254Q46 336 70 388Q94 440 131 470Q168 500 212 511Q256 522 295 522Q328 522 352.5 516.5Q377 511 394.5 503.5Q412 496 423 488Q434 480 441 475H443Z" glyph-name="a.hist" horiz-adv-x="619" unicode="&#59153;" /><glyph d="M211 218H343L308 323Q301 343 292.5 372Q284 401 278 430H276Q271 402 262 372.5Q253 343 246 322ZM376 122H176L132 0H-1L207 541H350L558 0H420Z" glyph-name="a.small" horiz-adv-x="557" unicode="&#63329;" /><glyph d="M181 425Q159 425 148.5 422.5Q138 420 130 412Q120 402 120 380Q120 357 132.5 349.5Q145 342 163 342Q184 342 197.5 349Q211 356 219 367V425ZM219 484V507Q219 516 218 523Q217 530 210.5 534.5Q204 539 190.5 541.5Q177 544 153 544Q136 544 109 541Q82 538 47 530V600Q63 604 81 606.5Q99 609 116 610.5Q133 612 147 612.5Q161 613 169 613Q209 613 237.5 608Q266 603 283 590.5Q300 578 308 557Q316 536 316 504V279H244L236 307H235Q230 300 220 294Q210 288 198 283Q186 278 172.5 275Q159 272 146 272Q117 272 92 279Q67 286 50 303Q21 332 21 376Q21 423 47 449Q68 470 104.5 477Q141 484 177 484Z" glyph-name="a.superior" horiz-adv-x="362" unicode="&#58209;" /><glyph d="M311 565H202L314 678H471ZM289 231Q254 231 229.5 226Q205 221 190 207Q183 200 178.5 188Q174 176 174 156Q174 135 180.5 122Q187 109 198.5 102.5Q210 96 225.5 93.5Q241 91 259 91Q301 91 325.5 105Q350 119 365 141V228Q342 230 322 230.5Q302 231 289 231ZM365 361Q365 378 363 391Q361 404 349.5 412.5Q338 421 313 425Q288 429 242 429Q216 429 172.5 425Q129 421 81 410V506Q104 512 131 516Q158 520 184 522Q210 524 232.5 525Q255 526 269 526Q331 526 374 518Q417 510 444 490.5Q471 471 483 438Q495 405 495 355V0H404L387 52H386Q361 23 320 6Q279 -11 232 -11Q187 -11 148 -0.5Q109 10 82 36Q62 56 51 85Q40 114 40 150Q40 186 49.5 215Q59 244 79 264Q95 280 119 290.5Q143 301 170 307Q197 313 226 315Q255 317 282 317Q304 317 323.5 316.5Q343 316 365 314Z" glyph-name="aacute" horiz-adv-x="562" unicode="&#225;" /><glyph d="M336 565H227L339 678H496ZM411 386Q401 394 387 401Q374 407 355 412Q336 417 307 417Q238 417 212.5 377Q187 337 187 254Q187 175 210 134Q233 93 294 93Q323 93 345.5 102Q368 111 382 122Q399 135 411 152ZM459 510H543V0H451L436 56H435Q429 50 416.5 39Q404 28 384.5 16.5Q365 5 339 -3.5Q313 -12 279 -12Q238 -12 196.5 -2Q155 8 121.5 37Q88 66 67 118Q46 170 46 254Q46 336 70 388Q94 440 131 470Q168 500 212 511Q256 522 295 522Q328 522 352.5 516.5Q377 511 394.5 503.5Q412 496 423 488Q434 480 441 475H443Z" glyph-name="aacute.hist" horiz-adv-x="619" unicode="&#59154;" /><glyph d="M211 218H343L308 323Q301 343 292.5 372Q284 401 278 430H276Q271 402 262 372.5Q253 343 246 322ZM333 597H224L336 710H493ZM376 122H176L132 0H-1L207 541H350L558 0H420Z" glyph-name="aacute.small" horiz-adv-x="557" unicode="&#63457;" /><glyph d="M275 627Q309 627 330.5 638Q352 649 360 678H464Q459 644 442.5 620Q426 596 401.5 580.5Q377 565 344.5 558Q312 551 275 551Q238 551 205.5 558Q173 565 148.5 580.5Q124 596 107.5 620Q91 644 86 678H190Q198 649 219.5 638Q241 627 275 627ZM289 231Q254 231 229.5 226Q205 221 190 207Q183 200 178.5 188Q174 176 174 156Q174 135 180.5 122Q187 109 198.5 102.5Q210 96 225.5 93.5Q241 91 259 91Q301 91 325.5 105Q350 119 365 141V228Q342 230 322 230.5Q302 231 289 231ZM365 361Q365 378 363 391Q361 404 349.5 412.5Q338 421 313 425Q288 429 242 429Q216 429 172.5 425Q129 421 81 410V506Q104 512 131 516Q158 520 184 522Q210 524 232.5 525Q255 526 269 526Q331 526 374 518Q417 510 444 490.5Q471 471 483 438Q495 405 495 355V0H404L387 52H386Q361 23 320 6Q279 -11 232 -11Q187 -11 148 -0.5Q109 10 82 36Q62 56 51 85Q40 114 40 150Q40 186 49.5 215Q59 244 79 264Q95 280 119 290.5Q143 301 170 307Q197 313 226 315Q255 317 282 317Q304 317 323.5 316.5Q343 316 365 314Z" glyph-name="abreve" horiz-adv-x="562" unicode="&#259;" /><glyph d="M314 627Q348 627 369.5 638Q391 649 399 678H503Q498 644 481.5 620Q465 596 440.5 580.5Q416 565 383.5 558Q351 551 314 551Q277 551 244.5 558Q212 565 187.5 580.5Q163 596 146.5 620Q130 644 125 678H229Q237 649 258.5 638Q280 627 314 627ZM411 386Q401 394 387 401Q374 407 355 412Q336 417 307 417Q238 417 212.5 377Q187 337 187 254Q187 175 210 134Q233 93 294 93Q323 93 345.5 102Q368 111 382 122Q399 135 411 152ZM459 510H543V0H451L436 56H435Q429 50 416.5 39Q404 28 384.5 16.5Q365 5 339 -3.5Q313 -12 279 -12Q238 -12 196.5 -2Q155 8 121.5 37Q88 66 67 118Q46 170 46 254Q46 336 70 388Q94 440 131 470Q168 500 212 511Q256 522 295 522Q328 522 352.5 516.5Q377 511 394.5 503.5Q412 496 423 488Q434 480 441 475H443Z" glyph-name="abreve.hist" horiz-adv-x="619" unicode="&#59155;" /><glyph d="M211 218H343L308 323Q301 343 292.5 372Q284 401 278 430H276Q271 402 262 372.5Q253 343 246 322ZM278 659Q312 659 333.5 670Q355 681 363 710H467Q462 676 445.5 652Q429 628 404.5 612.5Q380 597 347.5 590Q315 583 278 583Q241 583 208.5 590Q176 597 151.5 612.5Q127 628 110.5 652Q94 676 89 710H193Q201 681 222.5 670Q244 659 278 659ZM376 122H176L132 0H-1L207 541H350L558 0H420Z" glyph-name="abreve.small" horiz-adv-x="557" unicode="&#63040;" /><glyph d="M217 561 96 681H215L276 624L337 681H457L335 561ZM289 231Q254 231 229.5 226Q205 221 190 207Q183 200 178.5 188Q174 176 174 156Q174 135 180.5 122Q187 109 198.5 102.5Q210 96 225.5 93.5Q241 91 259 91Q301 91 325.5 105Q350 119 365 141V228Q342 230 322 230.5Q302 231 289 231ZM365 361Q365 378 363 391Q361 404 349.5 412.5Q338 421 313 425Q288 429 242 429Q216 429 172.5 425Q129 421 81 410V506Q104 512 131 516Q158 520 184 522Q210 524 232.5 525Q255 526 269 526Q331 526 374 518Q417 510 444 490.5Q471 471 483 438Q495 405 495 355V0H404L387 52H386Q361 23 320 6Q279 -11 232 -11Q187 -11 148 -0.5Q109 10 82 36Q62 56 51 85Q40 114 40 150Q40 186 49.5 215Q59 244 79 264Q95 280 119 290.5Q143 301 170 307Q197 313 226 315Q255 317 282 317Q304 317 323.5 316.5Q343 316 365 314Z" glyph-name="acaron" horiz-adv-x="562" unicode="&#462;" /><glyph d="M244 561 123 681H242L303 624L364 681H484L362 561ZM411 386Q401 394 387 401Q374 407 355 412Q336 417 307 417Q238 417 212.5 377Q187 337 187 254Q187 175 210 134Q233 93 294 93Q323 93 345.5 102Q368 111 382 122Q399 135 411 152ZM459 510H543V0H451L436 56H435Q429 50 416.5 39Q404 28 384.5 16.5Q365 5 339 -3.5Q313 -12 279 -12Q238 -12 196.5 -2Q155 8 121.5 37Q88 66 67 118Q46 170 46 254Q46 336 70 388Q94 440 131 470Q168 500 212 511Q256 522 295 522Q328 522 352.5 516.5Q377 511 394.5 503.5Q412 496 423 488Q434 480 441 475H443Z" glyph-name="acaron.hist" horiz-adv-x="619" unicode="&#59156;" /><glyph d="M211 218H343L308 323Q301 343 292.5 372Q284 401 278 430H276Q271 402 262 372.5Q253 343 246 322ZM219 593 98 713H217L278 656L339 713H459L337 593ZM376 122H176L132 0H-1L207 541H350L558 0H420Z" glyph-name="acaron.small" horiz-adv-x="557" unicode="&#59157;" /><glyph d="M337 681 459 561H339L278 618L217 561H98L219 681ZM289 231Q254 231 229.5 226Q205 221 190 207Q183 200 178.5 188Q174 176 174 156Q174 135 180.5 122Q187 109 198.5 102.5Q210 96 225.5 93.5Q241 91 259 91Q301 91 325.5 105Q350 119 365 141V228Q342 230 322 230.5Q302 231 289 231ZM365 361Q365 378 363 391Q361 404 349.5 412.5Q338 421 313 425Q288 429 242 429Q216 429 172.5 425Q129 421 81 410V506Q104 512 131 516Q158 520 184 522Q210 524 232.5 525Q255 526 269 526Q331 526 374 518Q417 510 444 490.5Q471 471 483 438Q495 405 495 355V0H404L387 52H386Q361 23 320 6Q279 -11 232 -11Q187 -11 148 -0.5Q109 10 82 36Q62 56 51 85Q40 114 40 150Q40 186 49.5 215Q59 244 79 264Q95 280 119 290.5Q143 301 170 307Q197 313 226 315Q255 317 282 317Q304 317 323.5 316.5Q343 316 365 314Z" glyph-name="acircumflex" horiz-adv-x="562" unicode="&#226;" /><glyph d="M362 681 484 561H364L303 618L242 561H123L244 681ZM411 386Q401 394 387 401Q374 407 355 412Q336 417 307 417Q238 417 212.5 377Q187 337 187 254Q187 175 210 134Q233 93 294 93Q323 93 345.5 102Q368 111 382 122Q399 135 411 152ZM459 510H543V0H451L436 56H435Q429 50 416.5 39Q404 28 384.5 16.5Q365 5 339 -3.5Q313 -12 279 -12Q238 -12 196.5 -2Q155 8 121.5 37Q88 66 67 118Q46 170 46 254Q46 336 70 388Q94 440 131 470Q168 500 212 511Q256 522 295 522Q328 522 352.5 516.5Q377 511 394.5 503.5Q412 496 423 488Q434 480 441 475H443Z" glyph-name="acircumflex.hist" horiz-adv-x="619" unicode="&#59158;" /><glyph d="M211 218H343L308 323Q301 343 292.5 372Q284 401 278 430H276Q271 402 262 372.5Q253 343 246 322ZM338 713 459 593H340L279 650L218 593H98L220 713ZM376 122H176L132 0H-1L207 541H350L558 0H420Z" glyph-name="acircumflex.small" horiz-adv-x="557" unicode="&#63458;" /><glyph d="M354 565H245L357 678H514Z" glyph-name="acute" horiz-adv-x="600" unicode="&#180;" /><glyph d="M354 733H245L357 846H514Z" glyph-name="acute.cap" horiz-adv-x="600" unicode="&#58402;" /><glyph d="M354 597H245L357 710H514Z" glyph-name="acute.small" horiz-adv-x="600" unicode="&#63412;" /><glyph d="M450 572H324V676H450ZM225 572H99V676H225ZM289 231Q254 231 229.5 226Q205 221 190 207Q183 200 178.5 188Q174 176 174 156Q174 135 180.5 122Q187 109 198.5 102.5Q210 96 225.5 93.5Q241 91 259 91Q301 91 325.5 105Q350 119 365 141V228Q342 230 322 230.5Q302 231 289 231ZM365 361Q365 378 363 391Q361 404 349.5 412.5Q338 421 313 425Q288 429 242 429Q216 429 172.5 425Q129 421 81 410V506Q104 512 131 516Q158 520 184 522Q210 524 232.5 525Q255 526 269 526Q331 526 374 518Q417 510 444 490.5Q471 471 483 438Q495 405 495 355V0H404L387 52H386Q361 23 320 6Q279 -11 232 -11Q187 -11 148 -0.5Q109 10 82 36Q62 56 51 85Q40 114 40 150Q40 186 49.5 215Q59 244 79 264Q95 280 119 290.5Q143 301 170 307Q197 313 226 315Q255 317 282 317Q304 317 323.5 316.5Q343 316 365 314Z" glyph-name="adieresis" horiz-adv-x="562" unicode="&#228;" /><glyph d="M486 572H360V676H486ZM261 572H135V676H261ZM411 386Q401 394 387 401Q374 407 355 412Q336 417 307 417Q238 417 212.5 377Q187 337 187 254Q187 175 210 134Q233 93 294 93Q323 93 345.5 102Q368 111 382 122Q399 135 411 152ZM459 510H543V0H451L436 56H435Q429 50 416.5 39Q404 28 384.5 16.5Q365 5 339 -3.5Q313 -12 279 -12Q238 -12 196.5 -2Q155 8 121.5 37Q88 66 67 118Q46 170 46 254Q46 336 70 388Q94 440 131 470Q168 500 212 511Q256 522 295 522Q328 522 352.5 516.5Q377 511 394.5 503.5Q412 496 423 488Q434 480 441 475H443Z" glyph-name="adieresis.hist" horiz-adv-x="619" unicode="&#59159;" /><glyph d="M454 604H328V708H454ZM229 604H103V708H229ZM211 218H343L308 323Q301 343 292.5 372Q284 401 278 430H276Q271 402 262 372.5Q253 343 246 322ZM376 122H176L132 0H-1L207 541H350L558 0H420Z" glyph-name="adieresis.small" horiz-adv-x="557" unicode="&#63460;" /><glyph d="M454 744H94V834H454ZM452 570H322V678H452ZM227 570H97V678H227ZM289 231Q254 231 229.5 226Q205 221 190 207Q183 200 178.5 188Q174 176 174 156Q174 135 180.5 122Q187 109 198.5 102.5Q210 96 225.5 93.5Q241 91 259 91Q301 91 325.5 105Q350 119 365 141V228Q342 230 322 230.5Q302 231 289 231ZM365 361Q365 378 363 391Q361 404 349.5 412.5Q338 421 313 425Q288 429 242 429Q216 429 172.5 425Q129 421 81 410V506Q104 512 131 516Q158 520 184 522Q210 524 232.5 525Q255 526 269 526Q331 526 374 518Q417 510 444 490.5Q471 471 483 438Q495 405 495 355V0H404L387 52H386Q361 23 320 6Q279 -11 232 -11Q187 -11 148 -0.5Q109 10 82 36Q62 56 51 85Q40 114 40 150Q40 186 49.5 215Q59 244 79 264Q95 280 119 290.5Q143 301 170 307Q197 313 226 315Q255 317 282 317Q304 317 323.5 316.5Q343 316 365 314Z" glyph-name="adieresismacron" horiz-adv-x="562" unicode="&#479;" /><glyph d="M492 570H362V678H492ZM267 570H137V678H267ZM494 744H134V834H494ZM411 386Q401 394 387 401Q374 407 355 412Q336 417 307 417Q238 417 212.5 377Q187 337 187 254Q187 175 210 134Q233 93 294 93Q323 93 345.5 102Q368 111 382 122Q399 135 411 152ZM459 510H543V0H451L436 56H435Q429 50 416.5 39Q404 28 384.5 16.5Q365 5 339 -3.5Q313 -12 279 -12Q238 -12 196.5 -2Q155 8 121.5 37Q88 66 67 118Q46 170 46 254Q46 336 70 388Q94 440 131 470Q168 500 212 511Q256 522 295 522Q328 522 352.5 516.5Q377 511 394.5 503.5Q412 496 423 488Q434 480 441 475H443Z" glyph-name="adieresismacron.hist" horiz-adv-x="619" unicode="&#59160;" /><glyph d="M454 604H328V708H454ZM229 604H103V708H229ZM211 218H343L308 323Q301 343 292.5 372Q284 401 278 430H276Q271 402 262 372.5Q253 343 246 322ZM457 779H97V869H457ZM376 122H176L132 0H-1L207 541H350L558 0H420Z" glyph-name="adieresismacron.small" horiz-adv-x="557" unicode="&#59161;" /><glyph d="M340 574H208V678H340ZM289 231Q254 231 229.5 226Q205 221 190 207Q183 200 178.5 188Q174 176 174 156Q174 135 180.5 122Q187 109 198.5 102.5Q210 96 225.5 93.5Q241 91 259 91Q301 91 325.5 105Q350 119 365 141V228Q342 230 322 230.5Q302 231 289 231ZM365 361Q365 378 363 391Q361 404 349.5 412.5Q338 421 313 425Q288 429 242 429Q216 429 172.5 425Q129 421 81 410V506Q104 512 131 516Q158 520 184 522Q210 524 232.5 525Q255 526 269 526Q331 526 374 518Q417 510 444 490.5Q471 471 483 438Q495 405 495 355V0H404L387 52H386Q361 23 320 6Q279 -11 232 -11Q187 -11 148 -0.5Q109 10 82 36Q62 56 51 85Q40 114 40 150Q40 186 49.5 215Q59 244 79 264Q95 280 119 290.5Q143 301 170 307Q197 313 226 315Q255 317 282 317Q304 317 323.5 316.5Q343 316 365 314Z" glyph-name="adotabove" horiz-adv-x="562" unicode="&#551;" /><glyph d="M377 574H245V678H377ZM411 386Q401 394 387 401Q374 407 355 412Q336 417 307 417Q238 417 212.5 377Q187 337 187 254Q187 175 210 134Q233 93 294 93Q323 93 345.5 102Q368 111 382 122Q399 135 411 152ZM459 510H543V0H451L436 56H435Q429 50 416.5 39Q404 28 384.5 16.5Q365 5 339 -3.5Q313 -12 279 -12Q238 -12 196.5 -2Q155 8 121.5 37Q88 66 67 118Q46 170 46 254Q46 336 70 388Q94 440 131 470Q168 500 212 511Q256 522 295 522Q328 522 352.5 516.5Q377 511 394.5 503.5Q412 496 423 488Q434 480 441 475H443Z" glyph-name="adotabove.hist" horiz-adv-x="619" unicode="&#59168;" /><glyph d="M211 218H343L308 323Q301 343 292.5 372Q284 401 278 430H276Q271 402 262 372.5Q253 343 246 322ZM344 606H212V710H344ZM376 122H176L132 0H-1L207 541H350L558 0H420Z" glyph-name="adotabove.small" horiz-adv-x="557" unicode="&#59169;" /><glyph d="M-8 678H135L245 563H150ZM179 678H322L432 563H337ZM289 231Q254 231 229.5 226Q205 221 190 207Q183 200 178.5 188Q174 176 174 156Q174 135 180.5 122Q187 109 198.5 102.5Q210 96 225.5 93.5Q241 91 259 91Q301 91 325.5 105Q350 119 365 141V228Q342 230 322 230.5Q302 231 289 231ZM365 361Q365 378 363 391Q361 404 349.5 412.5Q338 421 313 425Q288 429 242 429Q216 429 172.5 425Q129 421 81 410V506Q104 512 131 516Q158 520 184 522Q210 524 232.5 525Q255 526 269 526Q331 526 374 518Q417 510 444 490.5Q471 471 483 438Q495 405 495 355V0H404L387 52H386Q361 23 320 6Q279 -11 232 -11Q187 -11 148 -0.5Q109 10 82 36Q62 56 51 85Q40 114 40 150Q40 186 49.5 215Q59 244 79 264Q95 280 119 290.5Q143 301 170 307Q197 313 226 315Q255 317 282 317Q304 317 323.5 316.5Q343 316 365 314Z" glyph-name="adoublegrave" horiz-adv-x="562" unicode="&#59170;" /><glyph d="M53 678H196L306 563H211ZM240 678H383L493 563H398ZM411 386Q401 394 387 401Q374 407 355 412Q336 417 307 417Q238 417 212.5 377Q187 337 187 254Q187 175 210 134Q233 93 294 93Q323 93 345.5 102Q368 111 382 122Q399 135 411 152ZM459 510H543V0H451L436 56H435Q429 50 416.5 39Q404 28 384.5 16.5Q365 5 339 -3.5Q313 -12 279 -12Q238 -12 196.5 -2Q155 8 121.5 37Q88 66 67 118Q46 170 46 254Q46 336 70 388Q94 440 131 470Q168 500 212 511Q256 522 295 522Q328 522 352.5 516.5Q377 511 394.5 503.5Q412 496 423 488Q434 480 441 475H443Z" glyph-name="adoublegrave.hist" horiz-adv-x="619" unicode="&#59171;" /><glyph d="M211 218H343L308 323Q301 343 292.5 372Q284 401 278 430H276Q271 402 262 372.5Q253 343 246 322ZM170 710H313L423 595H328ZM-17 710H126L236 595H141ZM376 122H176L132 0H-1L207 541H350L558 0H420Z" glyph-name="adoublegrave.small" horiz-adv-x="557" unicode="&#59172;" /><glyph d="M613 429Q591 429 569.5 423.5Q548 418 534 404Q520 390 512.5 368Q505 346 503 316H705Q706 326 706 331Q706 336 706 337Q706 384 684 406Q671 419 653 424Q635 429 613 429ZM289 231Q254 231 229.5 226Q205 221 190 207Q183 200 178.5 188Q174 176 174 156Q174 135 180.5 122Q187 109 198.5 102.5Q210 96 225.5 93.5Q241 91 259 91Q292 91 321.5 104.5Q351 118 371 146Q366 164 364 184.5Q362 205 360 228Q339 230 320 230.5Q301 231 289 231ZM500 225Q500 192 506 165Q512 138 532 118Q551 99 579 92Q607 85 650 85Q664 85 683.5 86.5Q703 88 724.5 90.5Q746 93 768 96.5Q790 100 809 105V10Q790 4 766.5 -0.5Q743 -5 718.5 -8.5Q694 -12 669.5 -14Q645 -16 624 -16Q547 -16 495.5 3Q444 22 412 61Q369 20 321.5 4.5Q274 -11 232 -11Q187 -11 148 -0.5Q109 10 82 36Q62 56 51 85Q40 114 40 150Q40 186 49.5 215Q59 244 79 264Q95 280 119 290.5Q143 301 170 307Q197 313 226 315Q255 317 282 317Q304 317 323.5 316.5Q343 316 365 314V361Q365 378 363 391Q361 404 349.5 412.5Q338 421 313 425Q288 429 242 429Q216 429 172.5 425Q129 421 81 410V506Q104 512 131 516Q158 520 184 522Q210 524 232.5 525Q255 526 269 526Q343 526 386 514.5Q429 503 452 474Q484 502 522.5 514Q561 526 609 526Q724 526 777.5 471.5Q831 417 831 307Q831 293 829.5 268Q828 243 826 225Z" glyph-name="ae" horiz-adv-x="881" unicode="&#230;" /><glyph d="M242 218H388L390 437H388Q370 404 353 377Q336 350 319 325ZM781 0H388V122H170L79 0H-78L338 541H775V443H521V325H739V227H521V99H781Z" glyph-name="ae.small" horiz-adv-x="814" unicode="&#63462;" /><glyph d="M496 568H387L499 681H656ZM613 429Q591 429 569.5 423.5Q548 418 534 404Q520 390 512.5 368Q505 346 503 316H705Q706 326 706 331Q706 336 706 337Q706 384 684 406Q671 419 653 424Q635 429 613 429ZM289 231Q254 231 229.5 226Q205 221 190 207Q183 200 178.5 188Q174 176 174 156Q174 135 180.5 122Q187 109 198.5 102.5Q210 96 225.5 93.5Q241 91 259 91Q292 91 321.5 104.5Q351 118 371 146Q366 164 364 184.5Q362 205 360 228Q339 230 320 230.5Q301 231 289 231ZM500 225Q500 192 506 165Q512 138 532 118Q551 99 579 92Q607 85 650 85Q664 85 683.5 86.5Q703 88 724.5 90.5Q746 93 768 96.5Q790 100 809 105V10Q790 4 766.5 -0.5Q743 -5 718.5 -8.5Q694 -12 669.5 -14Q645 -16 624 -16Q547 -16 495.5 3Q444 22 412 61Q369 20 321.5 4.5Q274 -11 232 -11Q187 -11 148 -0.5Q109 10 82 36Q62 56 51 85Q40 114 40 150Q40 186 49.5 215Q59 244 79 264Q95 280 119 290.5Q143 301 170 307Q197 313 226 315Q255 317 282 317Q304 317 323.5 316.5Q343 316 365 314V361Q365 378 363 391Q361 404 349.5 412.5Q338 421 313 425Q288 429 242 429Q216 429 172.5 425Q129 421 81 410V506Q104 512 131 516Q158 520 184 522Q210 524 232.5 525Q255 526 269 526Q343 526 386 514.5Q429 503 452 474Q484 502 522.5 514Q561 526 609 526Q724 526 777.5 471.5Q831 417 831 307Q831 293 829.5 268Q828 243 826 225Z" glyph-name="aeacute" horiz-adv-x="881" unicode="&#509;" /><glyph d="M556 597H447L559 710H716ZM242 218H388L390 437H388Q370 404 353 377Q336 350 319 325ZM781 0H388V122H170L79 0H-78L338 541H775V443H521V325H739V227H521V99H781Z" glyph-name="aeacute.small" horiz-adv-x="814" unicode="&#63012;" /><glyph d="M635 588H275V678H635ZM613 429Q591 429 569.5 423.5Q548 418 534 404Q520 390 512.5 368Q505 346 503 316H705Q706 326 706 331Q706 336 706 337Q706 384 684 406Q671 419 653 424Q635 429 613 429ZM289 231Q254 231 229.5 226Q205 221 190 207Q183 200 178.5 188Q174 176 174 156Q174 135 180.5 122Q187 109 198.5 102.5Q210 96 225.5 93.5Q241 91 259 91Q292 91 321.5 104.5Q351 118 371 146Q366 164 364 184.5Q362 205 360 228Q339 230 320 230.5Q301 231 289 231ZM500 225Q500 192 506 165Q512 138 532 118Q551 99 579 92Q607 85 650 85Q664 85 683.5 86.5Q703 88 724.5 90.5Q746 93 768 96.5Q790 100 809 105V10Q790 4 766.5 -0.5Q743 -5 718.5 -8.5Q694 -12 669.5 -14Q645 -16 624 -16Q547 -16 495.5 3Q444 22 412 61Q369 20 321.5 4.5Q274 -11 232 -11Q187 -11 148 -0.5Q109 10 82 36Q62 56 51 85Q40 114 40 150Q40 186 49.5 215Q59 244 79 264Q95 280 119 290.5Q143 301 170 307Q197 313 226 315Q255 317 282 317Q304 317 323.5 316.5Q343 316 365 314V361Q365 378 363 391Q361 404 349.5 412.5Q338 421 313 425Q288 429 242 429Q216 429 172.5 425Q129 421 81 410V506Q104 512 131 516Q158 520 184 522Q210 524 232.5 525Q255 526 269 526Q343 526 386 514.5Q429 503 452 474Q484 502 522.5 514Q561 526 609 526Q724 526 777.5 471.5Q831 417 831 307Q831 293 829.5 268Q828 243 826 225Z" glyph-name="aemacron" horiz-adv-x="881" unicode="&#483;" /><glyph d="M646 620H286V710H646ZM242 218H388L390 437H388Q370 404 353 377Q336 350 319 325ZM781 0H388V122H170L79 0H-78L338 541H775V443H521V325H739V227H521V99H781Z" glyph-name="aemacron.small" horiz-adv-x="814" unicode="&#59173;" /><glyph d="M236 380Q245 398 253.5 420Q262 442 268.5 466Q275 490 278.5 514Q282 538 282 559Q282 576 277.5 585.5Q273 595 261 595Q245 595 240.5 570Q236 545 236 480ZM54 225Q66 230 84 238.5Q102 247 114 257V489Q114 549 124.5 588.5Q135 628 154 651.5Q173 675 199 684.5Q225 694 257 694Q320 694 356.5 657.5Q393 621 393 552Q393 504 378.5 457Q364 410 341.5 368Q319 326 293 290.5Q267 255 243 230V157Q243 121 249.5 107Q256 93 281 93Q289 93 304.5 94Q320 95 339 100V3Q316 -5 293 -7Q270 -9 249 -9Q219 -9 194.5 -3.5Q170 2 153 18Q136 34 126.5 64Q117 94 116 143Q102 137 88 131.5Q74 126 54 118Z" glyph-name="afii61289" horiz-adv-x="436" unicode="&#8467;" /><glyph d="M84 678H241L353 565H244ZM289 231Q254 231 229.5 226Q205 221 190 207Q183 200 178.5 188Q174 176 174 156Q174 135 180.5 122Q187 109 198.5 102.5Q210 96 225.5 93.5Q241 91 259 91Q301 91 325.5 105Q350 119 365 141V228Q342 230 322 230.5Q302 231 289 231ZM365 361Q365 378 363 391Q361 404 349.5 412.5Q338 421 313 425Q288 429 242 429Q216 429 172.5 425Q129 421 81 410V506Q104 512 131 516Q158 520 184 522Q210 524 232.5 525Q255 526 269 526Q331 526 374 518Q417 510 444 490.5Q471 471 483 438Q495 405 495 355V0H404L387 52H386Q361 23 320 6Q279 -11 232 -11Q187 -11 148 -0.5Q109 10 82 36Q62 56 51 85Q40 114 40 150Q40 186 49.5 215Q59 244 79 264Q95 280 119 290.5Q143 301 170 307Q197 313 226 315Q255 317 282 317Q304 317 323.5 316.5Q343 316 365 314Z" glyph-name="agrave" horiz-adv-x="562" unicode="&#224;" /><glyph d="M100 678H257L369 565H260ZM411 386Q401 394 387 401Q374 407 355 412Q336 417 307 417Q238 417 212.5 377Q187 337 187 254Q187 175 210 134Q233 93 294 93Q323 93 345.5 102Q368 111 382 122Q399 135 411 152ZM459 510H543V0H451L436 56H435Q429 50 416.5 39Q404 28 384.5 16.5Q365 5 339 -3.5Q313 -12 279 -12Q238 -12 196.5 -2Q155 8 121.5 37Q88 66 67 118Q46 170 46 254Q46 336 70 388Q94 440 131 470Q168 500 212 511Q256 522 295 522Q328 522 352.5 516.5Q377 511 394.5 503.5Q412 496 423 488Q434 480 441 475H443Z" glyph-name="agrave.hist" horiz-adv-x="619" unicode="&#59174;" /><glyph d="M211 218H343L308 323Q301 343 292.5 372Q284 401 278 430H276Q271 402 262 372.5Q253 343 246 322ZM63 710H220L332 597H223ZM376 122H176L132 0H-1L207 541H350L558 0H420Z" glyph-name="agrave.small" horiz-adv-x="557" unicode="&#63456;" /><glyph d="M274 614Q240 614 218.5 603Q197 592 189 563H85Q90 597 106.5 621Q123 645 147.5 660.5Q172 676 204.5 683Q237 690 274 690Q311 690 343.5 683Q376 676 400.5 660.5Q425 645 441.5 621Q458 597 463 563H359Q351 592 329.5 603Q308 614 274 614ZM289 231Q254 231 229.5 226Q205 221 190 207Q183 200 178.5 188Q174 176 174 156Q174 135 180.5 122Q187 109 198.5 102.5Q210 96 225.5 93.5Q241 91 259 91Q301 91 325.5 105Q350 119 365 141V228Q342 230 322 230.5Q302 231 289 231ZM365 361Q365 378 363 391Q361 404 349.5 412.5Q338 421 313 425Q288 429 242 429Q216 429 172.5 425Q129 421 81 410V506Q104 512 131 516Q158 520 184 522Q210 524 232.5 525Q255 526 269 526Q331 526 374 518Q417 510 444 490.5Q471 471 483 438Q495 405 495 355V0H404L387 52H386Q361 23 320 6Q279 -11 232 -11Q187 -11 148 -0.5Q109 10 82 36Q62 56 51 85Q40 114 40 150Q40 186 49.5 215Q59 244 79 264Q95 280 119 290.5Q143 301 170 307Q197 313 226 315Q255 317 282 317Q304 317 323.5 316.5Q343 316 365 314Z" glyph-name="ainvertedbreve" horiz-adv-x="562" unicode="&#515;" /><glyph d="M307 614Q273 614 251.5 603Q230 592 222 563H118Q123 597 139.5 621Q156 645 180.5 660.5Q205 676 237.5 683Q270 690 307 690Q344 690 376.5 683Q409 676 433.5 660.5Q458 645 474.5 621Q491 597 496 563H392Q384 592 362.5 603Q341 614 307 614ZM411 386Q401 394 387 401Q374 407 355 412Q336 417 307 417Q238 417 212.5 377Q187 337 187 254Q187 175 210 134Q233 93 294 93Q323 93 345.5 102Q368 111 382 122Q399 135 411 152ZM459 510H543V0H451L436 56H435Q429 50 416.5 39Q404 28 384.5 16.5Q365 5 339 -3.5Q313 -12 279 -12Q238 -12 196.5 -2Q155 8 121.5 37Q88 66 67 118Q46 170 46 254Q46 336 70 388Q94 440 131 470Q168 500 212 511Q256 522 295 522Q328 522 352.5 516.5Q377 511 394.5 503.5Q412 496 423 488Q434 480 441 475H443Z" glyph-name="ainvertedbreve.hist" horiz-adv-x="619" unicode="&#59175;" /><glyph d="M211 218H343L308 323Q301 343 292.5 372Q284 401 278 430H276Q271 402 262 372.5Q253 343 246 322ZM278 646Q244 646 222.5 635Q201 624 193 595H89Q94 629 110.5 653Q127 677 151.5 692.5Q176 708 208.5 715Q241 722 278 722Q315 722 347.5 715Q380 708 404.5 692.5Q429 677 445.5 653Q462 629 467 595H363Q355 624 333.5 635Q312 646 278 646ZM376 122H176L132 0H-1L207 541H350L558 0H420Z" glyph-name="ainvertedbreve.small" horiz-adv-x="557" unicode="&#59176;" /><glyph d="M287 -38Q328 -40 353.5 -48Q379 -56 393 -67Q407 -78 412 -90Q417 -102 417 -112Q417 -147 384 -165.5Q351 -184 281 -184Q260 -184 237.5 -181.5Q215 -179 186 -170V-102Q215 -111 233 -114Q251 -117 263 -117Q283 -117 295 -113Q307 -109 307 -97Q307 -86 296 -81.5Q285 -77 267 -74Z" glyph-name="altcedilla" horiz-adv-x="600" unicode="&#58390;" /><glyph d="M456 588H96V678H456ZM289 231Q254 231 229.5 226Q205 221 190 207Q183 200 178.5 188Q174 176 174 156Q174 135 180.5 122Q187 109 198.5 102.5Q210 96 225.5 93.5Q241 91 259 91Q301 91 325.5 105Q350 119 365 141V228Q342 230 322 230.5Q302 231 289 231ZM365 361Q365 378 363 391Q361 404 349.5 412.5Q338 421 313 425Q288 429 242 429Q216 429 172.5 425Q129 421 81 410V506Q104 512 131 516Q158 520 184 522Q210 524 232.5 525Q255 526 269 526Q331 526 374 518Q417 510 444 490.5Q471 471 483 438Q495 405 495 355V0H404L387 52H386Q361 23 320 6Q279 -11 232 -11Q187 -11 148 -0.5Q109 10 82 36Q62 56 51 85Q40 114 40 150Q40 186 49.5 215Q59 244 79 264Q95 280 119 290.5Q143 301 170 307Q197 313 226 315Q255 317 282 317Q304 317 323.5 316.5Q343 316 365 314Z" glyph-name="amacron" horiz-adv-x="562" unicode="&#257;" /><glyph d="M485 588H125V678H485ZM411 386Q401 394 387 401Q374 407 355 412Q336 417 307 417Q238 417 212.5 377Q187 337 187 254Q187 175 210 134Q233 93 294 93Q323 93 345.5 102Q368 111 382 122Q399 135 411 152ZM459 510H543V0H451L436 56H435Q429 50 416.5 39Q404 28 384.5 16.5Q365 5 339 -3.5Q313 -12 279 -12Q238 -12 196.5 -2Q155 8 121.5 37Q88 66 67 118Q46 170 46 254Q46 336 70 388Q94 440 131 470Q168 500 212 511Q256 522 295 522Q328 522 352.5 516.5Q377 511 394.5 503.5Q412 496 423 488Q434 480 441 475H443Z" glyph-name="amacron.hist" horiz-adv-x="619" unicode="&#59177;" /><glyph d="M211 218H343L308 323Q301 343 292.5 372Q284 401 278 430H276Q271 402 262 372.5Q253 343 246 322ZM458 620H98V710H458ZM376 122H176L132 0H-1L207 541H350L558 0H420Z" glyph-name="amacron.small" horiz-adv-x="557" unicode="&#63041;" /><glyph d="M446 294H350Q311 294 284.5 287.5Q258 281 237 260Q225 248 215.5 230Q206 212 206 191Q206 140 235.5 115.5Q265 91 319 91Q364 91 398 109.5Q432 128 446 152ZM473 44Q447 19 399.5 1.5Q352 -16 295 -16Q257 -16 215.5 -6Q174 4 140 27.5Q106 51 84 88.5Q62 126 62 181Q62 212 71 238.5Q80 265 95.5 286.5Q111 308 131.5 323.5Q152 339 175 349V351Q130 374 104 414.5Q78 455 78 512Q78 560 96 594.5Q114 629 147 651Q180 673 225 683.5Q270 694 324 694Q334 694 352 692.5Q370 691 389.5 689Q409 687 428 684Q447 681 460 677V574Q429 582 399 585.5Q369 589 347 589Q305 589 280 581.5Q255 574 242.5 561Q230 548 226 531Q222 514 222 495Q222 473 230 456Q238 439 252 425Q267 410 291 403.5Q315 397 350 397H460L493 484H577V397H696V294H577V160Q577 120 593.5 107Q610 94 652 94Q665 94 679.5 95Q694 96 713 100V2Q687 -6 662.5 -8Q638 -10 614 -10Q556 -10 523 5.5Q490 21 475 44Z" glyph-name="ampersand" horiz-adv-x="744" unicode="&amp;" /><glyph d="M271 396Q257 351 246.5 316.5Q236 282 224 247L139 0H5L195 512H358L549 0H407L319 247Q307 282 297 316.5Q287 351 273 396Z" glyph-name="anocross" horiz-adv-x="554" unicode="&#59184;" /><glyph d="M207 541H350L558 0H417L333 241Q327 258 319.5 280.5Q312 303 304.5 327Q297 351 290 374.5Q283 398 277 417H275Q269 398 262.5 374.5Q256 351 248.5 327Q241 303 234 280.5Q227 258 221 241L135 0H-1Z" glyph-name="anocross.small" horiz-adv-x="557" unicode="&#59186;" /><glyph d="M289 231Q254 231 229.5 226Q205 221 190 207Q183 200 178.5 188Q174 176 174 156Q174 135 180.5 122Q187 109 198.5 102.5Q210 96 225.5 93.5Q241 91 259 91Q301 91 325.5 105Q350 119 365 141V228Q342 230 322 230.5Q302 231 289 231ZM365 361Q365 378 363 391Q361 404 349.5 412.5Q338 421 313 425Q288 429 242 429Q216 429 172.5 425Q129 421 81 410V506Q104 512 131 516Q158 520 184 522Q210 524 232.5 525Q255 526 269 526Q331 526 374 518Q417 510 444 490.5Q471 471 483 438Q495 405 495 355V0Q457 -20 445 -43Q433 -66 433 -82Q433 -113 473 -113Q490 -113 505.5 -111Q521 -109 541 -102V-170Q520 -178 493.5 -181Q467 -184 450 -184Q396 -184 367 -163.5Q338 -143 338 -106Q338 -77 356 -47.5Q374 -18 403 2L387 52H386Q361 23 320 6Q279 -11 232 -11Q187 -11 148 -0.5Q109 10 82 36Q62 56 51 85Q40 114 40 150Q40 186 49.5 215Q59 244 79 264Q95 280 119 290.5Q143 301 170 307Q197 313 226 315Q255 317 282 317Q304 317 323.5 316.5Q343 316 365 314Z" glyph-name="aogonek" horiz-adv-x="562" unicode="&#261;" /><glyph d="M411 386Q401 394 387 401Q374 407 355 412Q336 417 307 417Q238 417 212.5 377Q187 337 187 254Q187 175 210 134Q233 93 294 93Q323 93 345.5 102Q368 111 382 122Q399 135 411 152ZM459 510H543V0Q505 -20 493 -43Q481 -66 481 -82Q481 -113 521 -113Q538 -113 553.5 -111Q569 -109 589 -102V-170Q568 -178 541.5 -181Q515 -184 498 -184Q444 -184 415 -163.5Q386 -143 386 -106Q386 -77 403.5 -48Q421 -19 450 1L436 56H435Q429 50 416.5 39Q404 28 384.5 16.5Q365 5 339 -3.5Q313 -12 279 -12Q238 -12 196.5 -2Q155 8 121.5 37Q88 66 67 118Q46 170 46 254Q46 336 70 388Q94 440 131 470Q168 500 212 511Q256 522 295 522Q328 522 352.5 516.5Q377 511 394.5 503.5Q412 496 423 488Q434 480 441 475H443Z" glyph-name="aogonek.hist" horiz-adv-x="619" unicode="&#59187;" /><glyph d="M211 218H343L308 323Q301 343 292.5 372Q284 401 278 430H276Q271 402 262 372.5Q253 343 246 322ZM496 -82Q496 -113 536 -113Q553 -113 568.5 -111Q584 -109 604 -102V-170Q583 -178 556.5 -181Q530 -184 513 -184Q459 -184 430 -163.5Q401 -143 401 -106Q401 -77 417.5 -48.5Q434 -20 463 0H558Q520 -20 508 -43Q496 -66 496 -82ZM376 122H176L132 0H-1L207 541H350L558 0H420Z" glyph-name="aogonek.small" horiz-adv-x="557" unicode="&#63042;" /><glyph d="M444 192Q485 192 528.5 204Q572 216 614 236V127Q583 112 541.5 98.5Q500 85 445 85Q416 85 386 92.5Q356 100 326.5 109Q297 118 268.5 125.5Q240 133 213 133Q175 133 132 121Q89 109 47 89V198Q77 213 118.5 226.5Q160 240 214 240Q243 240 272 232.5Q301 225 330.5 216Q360 207 388.5 199.5Q417 192 444 192ZM444 409Q485 409 528.5 421Q572 433 614 453V344Q583 329 541.5 315.5Q500 302 445 302Q416 302 386 309.5Q356 317 326.5 326Q297 335 268.5 342.5Q240 350 213 350Q175 350 132 338Q89 326 47 306V415Q77 430 118.5 443.5Q160 457 214 457Q243 457 272 449.5Q301 442 330.5 433Q360 424 388.5 416.5Q417 409 444 409Z" glyph-name="approxequal" horiz-adv-x="661" unicode="&#8776;" /><glyph d="M380 633Q380 590 353.5 571.5Q327 553 277 553Q227 553 200 571.5Q173 590 173 633Q173 676 200 694.5Q227 713 277 713Q327 713 353.5 694.5Q380 676 380 633ZM311 633Q311 665 277 665Q242 665 242 633Q242 603 277 603Q311 603 311 633ZM289 231Q254 231 229.5 226Q205 221 190 207Q183 200 178.5 188Q174 176 174 156Q174 135 180.5 122Q187 109 198.5 102.5Q210 96 225.5 93.5Q241 91 259 91Q301 91 325.5 105Q350 119 365 141V228Q342 230 322 230.5Q302 231 289 231ZM365 361Q365 378 363 391Q361 404 349.5 412.5Q338 421 313 425Q288 429 242 429Q216 429 172.5 425Q129 421 81 410V506Q104 512 131 516Q158 520 184 522Q210 524 232.5 525Q255 526 269 526Q331 526 374 518Q417 510 444 490.5Q471 471 483 438Q495 405 495 355V0H404L387 52H386Q361 23 320 6Q279 -11 232 -11Q187 -11 148 -0.5Q109 10 82 36Q62 56 51 85Q40 114 40 150Q40 186 49.5 215Q59 244 79 264Q95 280 119 290.5Q143 301 170 307Q197 313 226 315Q255 317 282 317Q304 317 323.5 316.5Q343 316 365 314Z" glyph-name="aring" horiz-adv-x="562" unicode="&#229;" /><glyph d="M333 633Q333 665 299 665Q264 665 264 633Q264 603 299 603Q333 603 333 633ZM402 633Q402 590 375.5 571.5Q349 553 299 553Q249 553 222 571.5Q195 590 195 633Q195 676 222 694.5Q249 713 299 713Q349 713 375.5 694.5Q402 676 402 633ZM411 386Q401 394 387 401Q374 407 355 412Q336 417 307 417Q238 417 212.5 377Q187 337 187 254Q187 175 210 134Q233 93 294 93Q323 93 345.5 102Q368 111 382 122Q399 135 411 152ZM459 510H543V0H451L436 56H435Q429 50 416.5 39Q404 28 384.5 16.5Q365 5 339 -3.5Q313 -12 279 -12Q238 -12 196.5 -2Q155 8 121.5 37Q88 66 67 118Q46 170 46 254Q46 336 70 388Q94 440 131 470Q168 500 212 511Q256 522 295 522Q328 522 352.5 516.5Q377 511 394.5 503.5Q412 496 423 488Q434 480 441 475H443Z" glyph-name="aring.hist" horiz-adv-x="619" unicode="&#59188;" /><glyph d="M313 665Q313 697 279 697Q244 697 244 665Q244 635 279 635Q313 635 313 665ZM211 218H343L308 323Q301 343 292.5 372Q284 401 278 430H276Q271 402 262 372.5Q253 343 246 322ZM382 665Q382 622 355.5 603.5Q329 585 279 585Q229 585 202 603.5Q175 622 175 665Q175 708 202 726.5Q229 745 279 745Q329 745 355.5 726.5Q382 708 382 665ZM376 122H176L132 0H-1L207 541H350L558 0H420Z" glyph-name="aring.small" horiz-adv-x="557" unicode="&#63461;" /><glyph d="M326 631Q326 663 292 663Q257 663 257 631Q257 601 292 601Q326 601 326 631ZM395 633Q395 590 367.5 571.5Q340 553 292 553Q244 553 216 571.5Q188 590 188 633Q188 653 198.5 670Q209 687 224 704L307 787H393L315 709Q353 707 374 688Q395 669 395 633ZM289 231Q254 231 229.5 226Q205 221 190 207Q183 200 178.5 188Q174 176 174 156Q174 135 180.5 122Q187 109 198.5 102.5Q210 96 225.5 93.5Q241 91 259 91Q301 91 325.5 105Q350 119 365 141V228Q342 230 322 230.5Q302 231 289 231ZM365 361Q365 378 363 391Q361 404 349.5 412.5Q338 421 313 425Q288 429 242 429Q216 429 172.5 425Q129 421 81 410V506Q104 512 131 516Q158 520 184 522Q210 524 232.5 525Q255 526 269 526Q331 526 374 518Q417 510 444 490.5Q471 471 483 438Q495 405 495 355V0H404L387 52H386Q361 23 320 6Q279 -11 232 -11Q187 -11 148 -0.5Q109 10 82 36Q62 56 51 85Q40 114 40 150Q40 186 49.5 215Q59 244 79 264Q95 280 119 290.5Q143 301 170 307Q197 313 226 315Q255 317 282 317Q304 317 323.5 316.5Q343 316 365 314Z" glyph-name="aringacute" horiz-adv-x="562" unicode="&#507;" /><glyph d="M337 631Q337 663 303 663Q268 663 268 631Q268 601 303 601Q337 601 337 631ZM406 633Q406 590 378.5 571.5Q351 553 303 553Q255 553 227 571.5Q199 590 199 633Q199 653 209.5 670Q220 687 235 704L318 787H404L326 709Q364 707 385 688Q406 669 406 633ZM411 386Q401 394 387 401Q374 407 355 412Q336 417 307 417Q238 417 212.5 377Q187 337 187 254Q187 175 210 134Q233 93 294 93Q323 93 345.5 102Q368 111 382 122Q399 135 411 152ZM459 510H543V0H451L436 56H435Q429 50 416.5 39Q404 28 384.5 16.5Q365 5 339 -3.5Q313 -12 279 -12Q238 -12 196.5 -2Q155 8 121.5 37Q88 66 67 118Q46 170 46 254Q46 336 70 388Q94 440 131 470Q168 500 212 511Q256 522 295 522Q328 522 352.5 516.5Q377 511 394.5 503.5Q412 496 423 488Q434 480 441 475H443Z" glyph-name="aringacute.hist" horiz-adv-x="619" unicode="&#59189;" /><glyph d="M322 663Q322 695 288 695Q253 695 253 663Q253 633 288 633Q322 633 322 663ZM211 218H343L308 323Q301 343 292.5 372Q284 401 278 430H276Q271 402 262 372.5Q253 343 246 322ZM391 665Q391 622 363.5 603.5Q336 585 288 585Q240 585 212 603.5Q184 622 184 665Q184 685 194.5 702Q205 719 220 736L303 819H389L311 741Q349 739 370 720Q391 701 391 665ZM376 122H176L132 0H-1L207 541H350L558 0H420Z" glyph-name="aringacute.small" horiz-adv-x="557" unicode="&#63013;" /><glyph d="M162 440 441 177V678H548V176L827 440V304L523 0H466L162 304Z" glyph-name="arrowdown" horiz-adv-x="990" unicode="&#8595;" /><glyph d="M602 678 339 399H840V292H338L602 13H466L162 317V374L466 678Z" glyph-name="arrowleft" horiz-adv-x="990" unicode="&#8592;" /><glyph d="M524 678 828 374V317L524 13H388L652 292H150V399H651L388 678Z" glyph-name="arrowright" horiz-adv-x="990" unicode="&#8594;" /><glyph d="M162 374 466 678H523L827 374V238L548 502V0H441V501L162 238Z" glyph-name="arrowup" horiz-adv-x="990" unicode="&#8593;" /><glyph d="M263 585 144 376H41L220 678H303L481 376H376Z" glyph-name="asciicircum" horiz-adv-x="522" unicode="^" /><glyph d="M444 373Q485 373 528.5 385Q572 397 614 417V312Q583 297 541.5 283.5Q500 270 445 270Q416 270 386 277.5Q356 285 326.5 294Q297 303 268.5 310.5Q240 318 213 318Q175 318 132 306Q89 294 47 274V379Q77 394 118.5 407.5Q160 421 214 421Q243 421 272 413.5Q301 406 330.5 397Q360 388 388.5 380.5Q417 373 444 373Z" glyph-name="asciitilde" horiz-adv-x="661" unicode="~" /><glyph d="M465 636 490 561 369 518 443 412 379 365 300 468 223 367 158 414 230 518 111 561 136 636 257 600 261 730H340L343 600Z" glyph-name="asterisk" horiz-adv-x="600" unicode="*" /><glyph d="M468 301Q462 302 453.5 302.5Q445 303 440 303Q418 303 401 293.5Q384 284 372.5 268.5Q361 253 355 233Q349 213 349 192Q349 164 360.5 152.5Q372 141 387 141Q404 141 425 158Q446 175 452 208ZM478 119Q467 98 452.5 85.5Q438 73 422.5 65.5Q407 58 392 55.5Q377 53 367 53Q338 53 316 64Q294 75 279 93.5Q264 112 256 137.5Q248 163 248 192Q248 231 259.5 265.5Q271 300 294.5 325.5Q318 351 354 365.5Q390 380 439 380Q479 380 514 373Q549 366 576 355L550 194Q546 170 561 152.5Q576 135 605 135Q620 135 634 140.5Q648 146 659 159Q670 172 677 193Q684 214 684 246Q684 304 666 349Q648 394 614.5 425.5Q581 457 533.5 473.5Q486 490 426 490Q364 490 315.5 468.5Q267 447 232.5 410Q198 373 180 323Q162 273 162 216Q162 157 178 109Q194 61 226 26.5Q258 -8 305.5 -27Q353 -46 417 -46Q428 -46 445 -44.5Q462 -43 480.5 -39.5Q499 -36 518 -31Q537 -26 552 -19V-109Q529 -120 493.5 -126.5Q458 -133 417 -133Q333 -133 266.5 -109.5Q200 -86 153.5 -41.5Q107 3 82.5 68Q58 133 58 216Q58 297 83.5 363.5Q109 430 156.5 477.5Q204 525 272 551Q340 577 426 577Q510 577 574 552.5Q638 528 682 483.5Q726 439 748.5 378Q771 317 771 245Q771 196 758.5 160Q746 124 724 100.5Q702 77 673.5 65.5Q645 54 612 54Q557 54 527 69.5Q497 85 480 119Z" glyph-name="at" horiz-adv-x="829" unicode="@" /><glyph d="M468 418Q462 419 453.5 419.5Q445 420 440 420Q418 420 401 410.5Q384 401 372.5 385.5Q361 370 355 350Q349 330 349 309Q349 281 360.5 269.5Q372 258 387 258Q404 258 425 275Q446 292 452 325ZM478 236Q467 215 452.5 202.5Q438 190 422.5 182.5Q407 175 392 172.5Q377 170 367 170Q338 170 316 181Q294 192 279 210.5Q264 229 256 254.5Q248 280 248 309Q248 348 259.5 382.5Q271 417 294.5 442.5Q318 468 354 482.5Q390 497 439 497Q479 497 514 490Q549 483 576 472L550 311Q546 287 561 269.5Q576 252 605 252Q620 252 634 257.5Q648 263 659 276Q670 289 677 310Q684 331 684 363Q684 421 666 466Q648 511 614.5 542.5Q581 574 533.5 590.5Q486 607 426 607Q364 607 315.5 585.5Q267 564 232.5 527Q198 490 180 440Q162 390 162 333Q162 274 178 226Q194 178 226 143.5Q258 109 305.5 90Q353 71 417 71Q428 71 445 72.5Q462 74 480.5 77.5Q499 81 518 86Q537 91 552 98V8Q529 -3 493.5 -9.5Q458 -16 417 -16Q333 -16 266.5 7.5Q200 31 153.5 75.5Q107 120 82.5 185Q58 250 58 333Q58 414 83.5 480.5Q109 547 156.5 594.5Q204 642 272 668Q340 694 426 694Q510 694 574 669.5Q638 645 682 600.5Q726 556 748.5 495Q771 434 771 362Q771 313 758.5 277Q746 241 724 217.5Q702 194 673.5 182.5Q645 171 612 171Q557 171 527 186.5Q497 202 480 236Z" glyph-name="at.cap" horiz-adv-x="829" unicode="&#58643;" /><glyph d="M289 231Q254 231 229.5 226Q205 221 190 207Q183 200 178.5 188Q174 176 174 156Q174 135 180.5 122Q187 109 198.5 102.5Q210 96 225.5 93.5Q241 91 259 91Q301 91 325.5 105Q350 119 365 141V228Q342 230 322 230.5Q302 231 289 231ZM346 660Q369 660 399.5 672Q430 684 450 699V611Q442 604 429.5 597Q417 590 402.5 584.5Q388 579 372.5 575.5Q357 572 344 572Q320 572 301 577Q282 582 265.5 588Q249 594 232 599Q215 604 196 604Q172 604 141 592Q110 580 87 566V655Q96 661 109 668Q122 675 137 681Q152 687 167.5 690.5Q183 694 196 694Q221 694 239.5 688.5Q258 683 275 677Q292 671 308.5 665.5Q325 660 346 660ZM365 361Q365 378 363 391Q361 404 349.5 412.5Q338 421 313 425Q288 429 242 429Q216 429 172.5 425Q129 421 81 410V506Q104 512 131 516Q158 520 184 522Q210 524 232.5 525Q255 526 269 526Q331 526 374 518Q417 510 444 490.5Q471 471 483 438Q495 405 495 355V0H404L387 52H386Q361 23 320 6Q279 -11 232 -11Q187 -11 148 -0.5Q109 10 82 36Q62 56 51 85Q40 114 40 150Q40 186 49.5 215Q59 244 79 264Q95 280 119 290.5Q143 301 170 307Q197 313 226 315Q255 317 282 317Q304 317 323.5 316.5Q343 316 365 314Z" glyph-name="atilde" horiz-adv-x="562" unicode="&#227;" /><glyph d="M385 660Q408 660 438.5 672Q469 684 489 699V611Q481 604 468.5 597Q456 590 441.5 584.5Q427 579 411.5 575.5Q396 572 383 572Q359 572 340 577Q321 582 304.5 588Q288 594 271 599Q254 604 235 604Q211 604 180 592Q149 580 126 566V655Q135 661 148 668Q161 675 176 681Q191 687 206.5 690.5Q222 694 235 694Q260 694 278.5 688.5Q297 683 314 677Q331 671 347.5 665.5Q364 660 385 660ZM411 386Q401 394 387 401Q374 407 355 412Q336 417 307 417Q238 417 212.5 377Q187 337 187 254Q187 175 210 134Q233 93 294 93Q323 93 345.5 102Q368 111 382 122Q399 135 411 152ZM459 510H543V0H451L436 56H435Q429 50 416.5 39Q404 28 384.5 16.5Q365 5 339 -3.5Q313 -12 279 -12Q238 -12 196.5 -2Q155 8 121.5 37Q88 66 67 118Q46 170 46 254Q46 336 70 388Q94 440 131 470Q168 500 212 511Q256 522 295 522Q328 522 352.5 516.5Q377 511 394.5 503.5Q412 496 423 488Q434 480 441 475H443Z" glyph-name="atilde.hist" horiz-adv-x="619" unicode="&#59190;" /><glyph d="M211 218H343L308 323Q301 343 292.5 372Q284 401 278 430H276Q271 402 262 372.5Q253 343 246 322ZM356 692Q379 692 409.5 704Q440 716 460 731V643Q452 636 439.5 629Q427 622 412.5 616.5Q398 611 382.5 607.5Q367 604 354 604Q330 604 311 609Q292 614 275.5 620Q259 626 242 631Q225 636 206 636Q182 636 151 624Q120 612 97 598V687Q106 693 119 700Q132 707 147 713Q162 719 177.5 722.5Q193 726 206 726Q231 726 249.5 720.5Q268 715 285 709Q302 703 318.5 697.5Q335 692 356 692ZM376 122H176L132 0H-1L207 541H350L558 0H420Z" glyph-name="atilde.small" horiz-adv-x="557" unicode="&#63459;" /><glyph d="M432 255Q432 302 425 333.5Q418 365 403.5 383.5Q389 402 367.5 409.5Q346 417 317 417Q285 417 257.5 400.5Q230 384 208 358V130Q231 108 258.5 100.5Q286 93 315 93Q351 93 374 105Q397 117 409.5 138Q422 159 427 189Q432 219 432 255ZM325 -12Q290 -12 251 -1.5Q212 9 178 35H176L160 0H76V678H208V473H210Q266 522 338 522Q455 522 514 458Q573 394 573 255Q573 189 555 139.5Q537 90 504.5 56Q472 22 426.5 5Q381 -12 325 -12Z" glyph-name="b" horiz-adv-x="619" unicode="b" /><glyph d="M372 385Q372 402 368 414.5Q364 427 358 433Q348 443 332.5 445Q317 447 294 447H206V322H294Q317 322 332.5 324Q348 326 358 336Q372 350 372 385ZM389 162Q389 199 373 215Q364 224 347.5 227Q331 230 307 230H206V94H307Q331 94 347.5 97Q364 100 373 109Q389 125 389 162ZM442 280Q455 273 469.5 262Q484 251 496.5 236Q509 221 517 200.5Q525 180 525 153Q525 114 514.5 88Q504 62 482 40Q456 14 409.5 7Q363 0 304 0H74V541H291Q350 541 397 532.5Q444 524 470 498Q488 480 498.5 455.5Q509 431 509 398Q509 372 502.5 353Q496 334 486.5 320.5Q477 307 465 298Q453 289 442 282Z" glyph-name="b.small" horiz-adv-x="560" unicode="&#63330;" /><glyph d="M269 442Q269 498 253.5 517.5Q238 537 206 537Q173 537 146 507V364Q160 354 174.5 350.5Q189 347 204 347Q244 347 256.5 373Q269 399 269 442ZM115 279H49V708H146V587Q183 612 223 612Q296 612 334 571Q372 530 372 442Q372 357 328 314Q284 271 211 271Q191 271 167 278Q143 285 123 298Z" glyph-name="b.superior" horiz-adv-x="398" unicode="&#58210;" /><glyph d="M-20 763H100L393 -85H273Z" glyph-name="backslash" horiz-adv-x="373" unicode="\" /><glyph d="M320 -85H210V763H320Z" glyph-name="bar" horiz-adv-x="530" unicode="|" /><glyph d="M359 89Q399 89 428.5 99.5Q458 110 477.5 133Q497 156 507.5 193.5Q518 231 521 285H196Q199 231 209.5 193.5Q220 156 239.5 133Q259 110 288.5 99.5Q318 89 359 89ZM359 589Q317 589 286.5 578Q256 567 236.5 542Q217 517 207 476.5Q197 436 195 378H522Q520 436 510 476.5Q500 517 480.5 542Q461 567 431 578Q401 589 359 589ZM671 339Q671 254 656 188Q641 122 605 76.5Q569 31 509 7.5Q449 -16 359 -16Q269 -16 209 7.5Q149 31 113 76.5Q77 122 62 188Q47 254 47 339Q47 424 62 490Q77 556 113 601.5Q149 647 209 670.5Q269 694 359 694Q449 694 509 670.5Q569 647 605 601.5Q641 556 656 490Q671 424 671 339Z" glyph-name="barredO" horiz-adv-x="718" unicode="&#59192;" /><glyph d="M387 107Q417 137 423 211H188Q194 137 225 107Q240 92 260.5 86Q281 80 306 80Q331 80 351.5 86Q372 92 387 107ZM225 403Q192 370 188 293H424Q418 370 387 403Q372 418 351.5 424Q331 430 306 430Q281 430 260.5 424Q240 418 225 403ZM566 255Q566 175 546 123Q526 71 491 40Q456 9 408.5 -3.5Q361 -16 306 -16Q251 -16 203.5 -3.5Q156 9 121 40Q86 71 66 123Q46 175 46 255Q46 334 66 386.5Q86 439 121 470Q156 501 203.5 513.5Q251 526 306 526Q361 526 408.5 513.5Q456 501 491 470Q526 439 546 386.5Q566 334 566 255Z" glyph-name="barredo" horiz-adv-x="612" unicode="&#59191;" /><glyph d="M310 84Q371 84 399.5 115Q428 146 434 222H186Q192 146 220 115Q248 84 310 84ZM310 457Q245 457 217 421.5Q189 386 185 301H435Q432 386 403.5 421.5Q375 457 310 457ZM577 271Q577 203 564 150Q551 97 520.5 61Q490 25 438.5 6Q387 -13 310 -13Q233 -13 182 6Q131 25 100.5 61Q70 97 57 150Q44 203 44 271Q44 338 57 391Q70 444 100.5 480Q131 516 182 535Q233 554 310 554Q387 554 438.5 535Q490 516 520.5 480Q551 444 564 391Q577 338 577 271Z" glyph-name="barredo.small" horiz-adv-x="621" unicode="&#59193;" /><glyph d="M495 693Q568 693 632.5 665Q697 637 745 589Q793 541 821 476.5Q849 412 849 339Q849 266 821 201.5Q793 137 745 89Q697 41 632.5 13Q568 -15 495 -15Q422 -15 357.5 13Q293 41 245 89Q197 137 169 201.5Q141 266 141 339Q141 412 169 476.5Q197 541 245 589Q293 637 357.5 665Q422 693 495 693Z" glyph-name="blackcircle" horiz-adv-x="990" unicode="&#9679;" /><glyph d="M240 510H750V0H240Z" glyph-name="blacksmallsquare" horiz-adv-x="990" unicode="&#9642;" /><glyph d="M156 678H834V0H156Z" glyph-name="blacksquare" horiz-adv-x="990" unicode="&#59200;" /><glyph d="M219 319Q233 293 238.5 269.5Q244 246 244 222Q244 210 241.5 186Q239 162 236 135.5Q233 109 230.5 84Q228 59 228 43Q228 14 239.5 -5Q251 -24 283 -24Q290 -24 296.5 -24Q303 -24 320 -22V-115Q310 -117 292 -117.5Q274 -118 265 -118Q215 -118 183.5 -106.5Q152 -95 134 -73Q116 -51 109.5 -19Q103 13 103 54Q103 75 105 100.5Q107 126 110 151Q113 176 116 199Q119 222 121 238L59 309V329L121 400Q118 432 110.5 476Q103 520 103 562Q103 603 109.5 634.5Q116 666 134 687Q152 708 183.5 719Q215 730 265 730Q274 730 292 729.5Q310 729 320 727V634Q303 636 296.5 636Q290 636 283 636Q251 636 239.5 619Q228 602 228 573Q228 557 230.5 535.5Q233 514 236 491.5Q239 469 241.5 448.5Q244 428 244 416Q244 392 238.5 368.5Q233 345 219 319Z" glyph-name="braceleft" horiz-adv-x="355" unicode="{" /><glyph d="M219 352Q233 326 238.5 302.5Q244 279 244 255Q244 243 241.5 219Q239 195 236 168.5Q233 142 230.5 117Q228 92 228 76Q228 47 239.5 28Q251 9 283 9Q290 9 296.5 9Q303 9 320 11V-82Q310 -84 292 -84.5Q274 -85 265 -85Q215 -85 183.5 -73.5Q152 -62 134 -40Q116 -18 109.5 14Q103 46 103 87Q103 108 105 133.5Q107 159 110 184Q113 209 116 232Q119 255 121 271L59 342V362L121 433Q118 465 110.5 509Q103 553 103 595Q103 636 109.5 667.5Q116 699 134 720Q152 741 183.5 752Q215 763 265 763Q274 763 292 762.5Q310 762 320 760V667Q303 669 296.5 669Q290 669 283 669Q251 669 239.5 652Q228 635 228 606Q228 590 230.5 568.5Q233 547 236 524.5Q239 502 241.5 481.5Q244 461 244 449Q244 425 238.5 401.5Q233 378 219 352Z" glyph-name="braceleft.cap" horiz-adv-x="355" unicode="&#58517;" /><glyph d="M136 319Q122 345 116.5 368.5Q111 392 111 416Q111 428 113.5 448.5Q116 469 119 491.5Q122 514 124.5 535.5Q127 557 127 573Q127 602 115.5 619Q104 636 72 636Q65 636 58.5 636Q52 636 35 634V727Q45 729 63 729.5Q81 730 90 730Q140 730 171.5 719Q203 708 221 687Q239 666 245.5 634.5Q252 603 252 562Q252 520 244.5 476Q237 432 234 400L296 329V309L234 238Q235 222 238 199Q241 176 244 151Q247 126 249.5 100.5Q252 75 252 54Q252 13 245.5 -19Q239 -51 221 -73Q203 -95 171.5 -106.5Q140 -118 90 -118Q81 -118 63 -117.5Q45 -117 35 -115V-22Q52 -24 58.5 -24Q65 -24 72 -24Q104 -24 115.5 -5Q127 14 127 43Q127 59 124.5 84Q122 109 119 135.5Q116 162 113.5 186Q111 210 111 222Q111 246 116.5 269.5Q122 293 136 319Z" glyph-name="braceright" horiz-adv-x="355" unicode="}" /><glyph d="M136 352Q122 378 116.5 401.5Q111 425 111 449Q111 461 113.5 481.5Q116 502 119 524.5Q122 547 124.5 568.5Q127 590 127 606Q127 635 115.5 652Q104 669 72 669Q65 669 58.5 669Q52 669 35 667V760Q45 762 63 762.5Q81 763 90 763Q140 763 171.5 752Q203 741 221 720Q239 699 245.5 667.5Q252 636 252 595Q252 553 244.5 509Q237 465 234 433L296 362V342L234 271Q235 255 238 232Q241 209 244 184Q247 159 249.5 133.5Q252 108 252 87Q252 46 245.5 14Q239 -18 221 -40Q203 -62 171.5 -73.5Q140 -85 90 -85Q81 -85 63 -84.5Q45 -84 35 -82V11Q52 9 58.5 9Q65 9 72 9Q104 9 115.5 28Q127 47 127 76Q127 92 124.5 117Q122 142 119 168.5Q116 195 113.5 219Q111 243 111 255Q111 279 116.5 302.5Q122 326 136 352Z" glyph-name="braceright.cap" horiz-adv-x="355" unicode="&#58518;" /><glyph d="M316 -118H93V730H316V634H225V-23H316Z" glyph-name="bracketleft" horiz-adv-x="351" unicode="[" /><glyph d="M316 -85H93V763H316V667H225V10H316Z" glyph-name="bracketleft.cap" horiz-adv-x="351" unicode="&#58515;" /><glyph d="M35 -23H126V634H35V730H258V-118H35Z" glyph-name="bracketright" horiz-adv-x="351" unicode="]" /><glyph d="M35 10H126V667H35V763H258V-85H35Z" glyph-name="bracketright.cap" horiz-adv-x="351" unicode="&#58516;" /><glyph d="M300 627Q334 627 355.5 638Q377 649 385 678H489Q484 644 467.5 620Q451 596 426.5 580.5Q402 565 369.5 558Q337 551 300 551Q263 551 230.5 558Q198 565 173.5 580.5Q149 596 132.5 620Q116 644 111 678H215Q223 649 244.5 638Q266 627 300 627Z" glyph-name="breve" horiz-adv-x="600" unicode="&#728;" /><glyph d="M300 795Q334 795 355.5 806Q377 817 385 846H489Q484 812 467.5 788Q451 764 426.5 748.5Q402 733 369.5 726Q337 719 300 719Q263 719 230.5 726Q198 733 173.5 748.5Q149 764 132.5 788Q116 812 111 846H215Q223 817 244.5 806Q266 795 300 795Z" glyph-name="breve.cap" horiz-adv-x="600" unicode="&#58406;" /><glyph d="M300 659Q334 659 355.5 670Q377 681 385 710H489Q484 676 467.5 652Q451 628 426.5 612.5Q402 597 369.5 590Q337 583 300 583Q263 583 230.5 590Q198 597 173.5 612.5Q149 628 132.5 652Q116 676 111 710H215Q223 681 244.5 670Q266 659 300 659Z" glyph-name="breve.small" horiz-adv-x="600" unicode="&#63220;" /><glyph d="M210 398V763H320V398ZM320 293V-85H210V293Z" glyph-name="brokenbar" horiz-adv-x="530" unicode="&#166;" /><glyph d="M144 343Q144 375 156.5 403.5Q169 432 190 453Q211 474 239.5 486.5Q268 499 300 499Q332 499 360.5 486.5Q389 474 410 453Q431 432 443.5 403.5Q456 375 456 343Q456 311 443.5 282.5Q431 254 410 233Q389 212 360.5 199.5Q332 187 300 187Q268 187 239.5 199.5Q211 212 190 233Q169 254 156.5 282.5Q144 311 144 343Z" glyph-name="bullet" horiz-adv-x="600" unicode="&#8226;" /><glyph d="M331 91Q349 91 385.5 95.5Q422 100 460 112V10Q416 -4 376 -10Q336 -16 307 -16Q169 -16 107.5 50.5Q46 117 46 255Q46 308 56 357Q66 406 95 443.5Q124 481 176.5 503.5Q229 526 315 526Q338 526 375 522Q412 518 449 506V410Q420 418 387 421.5Q354 425 331 425Q293 425 266.5 418.5Q240 412 222 394Q205 377 196 339.5Q187 302 187 255Q187 208 196 173.5Q205 139 222 122Q240 104 266.5 97.5Q293 91 331 91Z" glyph-name="c" horiz-adv-x="494" unicode="c" /><glyph d="M44 270Q44 419 108 488Q172 557 306 557Q313 557 331 556.5Q349 556 371 554Q393 552 417 548Q441 544 460 537V441Q418 451 380.5 453.5Q343 456 332 456Q293 456 265 448Q237 440 219.5 419Q202 398 193.5 362.5Q185 327 185 272Q185 215 193 179.5Q201 144 218.5 124.5Q236 105 262.5 98Q289 91 325 91Q337 91 354.5 92.5Q372 94 392 96.5Q412 99 433 103Q454 107 472 112V10Q453 3 430 -2Q407 -7 384 -10Q361 -13 340.5 -14.5Q320 -16 306 -16Q244 -16 195 0Q146 16 112.5 50.5Q79 85 61.5 139Q44 193 44 270Z" glyph-name="c.small" horiz-adv-x="508" unicode="&#63331;" /><glyph d="M211 344Q221 344 244.5 347Q268 350 298 360V287Q267 276 240.5 272.5Q214 269 195 269Q105 269 65.5 311.5Q26 354 26 442Q26 475 32.5 506Q39 537 58 561Q77 585 111 599.5Q145 614 200 614Q215 614 240 611.5Q265 609 291 600V531Q268 538 245.5 540Q223 542 211 542Q189 542 174 538Q159 534 148 523Q139 514 134 492Q129 470 129 442Q129 414 133.5 393.5Q138 373 148 363Q167 344 211 344Z" glyph-name="c.superior" horiz-adv-x="318" unicode="&#58211;" /><glyph d="M307 565H198L310 678H467ZM331 91Q349 91 385.5 95.5Q422 100 460 112V10Q416 -4 376 -10Q336 -16 307 -16Q169 -16 107.5 50.5Q46 117 46 255Q46 308 56 357Q66 406 95 443.5Q124 481 176.5 503.5Q229 526 315 526Q338 526 375 522Q412 518 449 506V410Q420 418 387 421.5Q354 425 331 425Q293 425 266.5 418.5Q240 412 222 394Q205 377 196 339.5Q187 302 187 255Q187 208 196 173.5Q205 139 222 122Q240 104 266.5 97.5Q293 91 331 91Z" glyph-name="cacute" horiz-adv-x="494" unicode="&#263;" /><glyph d="M323 597H214L326 710H483ZM44 270Q44 419 108 488Q172 557 306 557Q313 557 331 556.5Q349 556 371 554Q393 552 417 548Q441 544 460 537V441Q418 451 380.5 453.5Q343 456 332 456Q293 456 265 448Q237 440 219.5 419Q202 398 193.5 362.5Q185 327 185 272Q185 215 193 179.5Q201 144 218.5 124.5Q236 105 262.5 98Q289 91 325 91Q337 91 354.5 92.5Q372 94 392 96.5Q412 99 433 103Q454 107 472 112V10Q453 3 430 -2Q407 -7 384 -10Q361 -13 340.5 -14.5Q320 -16 306 -16Q244 -16 195 0Q146 16 112.5 50.5Q79 85 61.5 139Q44 193 44 270Z" glyph-name="cacute.small" horiz-adv-x="508" unicode="&#63043;" /><glyph d="M241 561 120 681H239L300 624L361 681H481L359 561Z" glyph-name="caron" horiz-adv-x="600" unicode="&#711;" /><glyph d="M241 729 120 849H239L300 792L361 849H481L359 729Z" glyph-name="caron.cap" horiz-adv-x="600" unicode="&#58413;" /><glyph d="M241 593 120 713H239L300 656L361 713H481L359 593Z" glyph-name="caron.small" horiz-adv-x="600" unicode="&#63221;" /><glyph d="M378 678H507L409 484H336Z" glyph-name="caronSlovak" horiz-adv-x="600" unicode="&#58387;" /><glyph d="M212 561 91 681H210L271 624L332 681H452L330 561ZM331 91Q349 91 385.5 95.5Q422 100 460 112V10Q416 -4 376 -10Q336 -16 307 -16Q169 -16 107.5 50.5Q46 117 46 255Q46 308 56 357Q66 406 95 443.5Q124 481 176.5 503.5Q229 526 315 526Q338 526 375 522Q412 518 449 506V410Q420 418 387 421.5Q354 425 331 425Q293 425 266.5 418.5Q240 412 222 394Q205 377 196 339.5Q187 302 187 255Q187 208 196 173.5Q205 139 222 122Q240 104 266.5 97.5Q293 91 331 91Z" glyph-name="ccaron" horiz-adv-x="494" unicode="&#269;" /><glyph d="M215 593 94 713H213L274 656L335 713H455L333 593ZM44 270Q44 419 108 488Q172 557 306 557Q313 557 331 556.5Q349 556 371 554Q393 552 417 548Q441 544 460 537V441Q418 451 380.5 453.5Q343 456 332 456Q293 456 265 448Q237 440 219.5 419Q202 398 193.5 362.5Q185 327 185 272Q185 215 193 179.5Q201 144 218.5 124.5Q236 105 262.5 98Q289 91 325 91Q337 91 354.5 92.5Q372 94 392 96.5Q412 99 433 103Q454 107 472 112V10Q453 3 430 -2Q407 -7 384 -10Q361 -13 340.5 -14.5Q320 -16 306 -16Q244 -16 195 0Q146 16 112.5 50.5Q79 85 61.5 139Q44 193 44 270Z" glyph-name="ccaron.small" horiz-adv-x="508" unicode="&#63044;" /><glyph d="M249 -13Q142 0 94 65.5Q46 131 46 255Q46 308 56 357Q66 406 95 443.5Q124 481 176.5 503.5Q229 526 315 526Q338 526 375 522Q412 518 449 506V410Q420 418 387 421.5Q354 425 331 425Q293 425 266.5 418.5Q240 412 222 394Q205 377 196 339.5Q187 302 187 255Q187 208 196 173.5Q205 139 222 122Q240 104 266.5 97.5Q293 91 331 91Q349 91 385.5 95.5Q422 100 460 112V10Q428 0 398.5 -6Q369 -12 343 -14L331 -43Q368 -56 380 -73.5Q392 -91 392 -108Q392 -143 359 -163.5Q326 -184 256 -184Q235 -184 212.5 -181.5Q190 -179 161 -170V-102Q190 -111 208 -114Q226 -117 238 -117Q258 -117 270 -113Q282 -109 282 -97Q282 -86 269.5 -81Q257 -76 240 -75L234 -48Z" glyph-name="ccedilla" horiz-adv-x="494" unicode="&#231;" /><glyph d="M251 -12Q152 0 98 67Q44 134 44 270Q44 419 108 488Q172 557 306 557Q313 557 331 556.5Q349 556 371 554Q393 552 417 548Q441 544 460 537V441Q418 451 380.5 453.5Q343 456 332 456Q293 456 265 448Q237 440 219.5 419Q202 398 193.5 362.5Q185 327 185 272Q185 215 193 179.5Q201 144 218.5 124.5Q236 105 262.5 98Q289 91 325 91Q337 91 354.5 92.5Q372 94 392 96.5Q412 99 433 103Q454 107 472 112V10Q445 0 409.5 -6Q374 -12 345 -14L333 -43Q370 -56 382 -73.5Q394 -91 394 -108Q394 -143 361 -163.5Q328 -184 258 -184Q237 -184 214.5 -181.5Q192 -179 163 -170V-102Q192 -111 210 -114Q228 -117 240 -117Q260 -117 272 -113Q284 -109 284 -97Q284 -86 271.5 -81Q259 -76 242 -75L236 -48Z" glyph-name="ccedilla.small" horiz-adv-x="508" unicode="&#63463;" /><glyph d="M341 681 463 561H343L282 618L221 561H102L223 681ZM331 91Q349 91 385.5 95.5Q422 100 460 112V10Q416 -4 376 -10Q336 -16 307 -16Q169 -16 107.5 50.5Q46 117 46 255Q46 308 56 357Q66 406 95 443.5Q124 481 176.5 503.5Q229 526 315 526Q338 526 375 522Q412 518 449 506V410Q420 418 387 421.5Q354 425 331 425Q293 425 266.5 418.5Q240 412 222 394Q205 377 196 339.5Q187 302 187 255Q187 208 196 173.5Q205 139 222 122Q240 104 266.5 97.5Q293 91 331 91Z" glyph-name="ccircumflex" horiz-adv-x="494" unicode="&#265;" /><glyph d="M342 713 463 593H344L283 650L222 593H102L224 713ZM44 270Q44 419 108 488Q172 557 306 557Q313 557 331 556.5Q349 556 371 554Q393 552 417 548Q441 544 460 537V441Q418 451 380.5 453.5Q343 456 332 456Q293 456 265 448Q237 440 219.5 419Q202 398 193.5 362.5Q185 327 185 272Q185 215 193 179.5Q201 144 218.5 124.5Q236 105 262.5 98Q289 91 325 91Q337 91 354.5 92.5Q372 94 392 96.5Q412 99 433 103Q454 107 472 112V10Q453 3 430 -2Q407 -7 384 -10Q361 -13 340.5 -14.5Q320 -16 306 -16Q244 -16 195 0Q146 16 112.5 50.5Q79 85 61.5 139Q44 193 44 270Z" glyph-name="ccircumflex.small" horiz-adv-x="508" unicode="&#63016;" /><glyph d="M331 91Q349 91 385.5 95.5Q422 100 460 112V10Q416 -4 376 -10Q336 -16 307 -16Q169 -16 107.5 50.5Q46 117 46 255Q46 308 56 357Q66 406 95 443.5Q124 481 176.5 503.5Q229 526 315 526Q338 526 375 522Q412 518 449 506V410Q420 418 387 421.5Q354 425 331 425Q293 425 266.5 418.5Q240 412 222 394Q205 377 196 339.5Q187 302 187 255Q187 208 196 173.5Q205 139 222 122Q240 104 266.5 97.5Q293 91 331 91ZM341 574H209V678H341Z" glyph-name="cdotaccent" horiz-adv-x="494" unicode="&#267;" /><glyph d="M339 606H207V710H339ZM44 270Q44 419 108 488Q172 557 306 557Q313 557 331 556.5Q349 556 371 554Q393 552 417 548Q441 544 460 537V441Q418 451 380.5 453.5Q343 456 332 456Q293 456 265 448Q237 440 219.5 419Q202 398 193.5 362.5Q185 327 185 272Q185 215 193 179.5Q201 144 218.5 124.5Q236 105 262.5 98Q289 91 325 91Q337 91 354.5 92.5Q372 94 392 96.5Q412 99 433 103Q454 107 472 112V10Q453 3 430 -2Q407 -7 384 -10Q361 -13 340.5 -14.5Q320 -16 306 -16Q244 -16 195 0Q146 16 112.5 50.5Q79 85 61.5 139Q44 193 44 270Z" glyph-name="cdotaccent.small" horiz-adv-x="508" unicode="&#63017;" /><glyph d="M276 0H370L352 -43Q389 -56 401 -73.5Q413 -91 413 -108Q413 -143 380 -163.5Q347 -184 277 -184Q256 -184 233.5 -181.5Q211 -179 182 -170V-102Q211 -111 229 -114Q247 -117 259 -117Q279 -117 291 -113Q303 -109 303 -97Q303 -86 290.5 -81Q278 -76 261 -75L255 -48Z" glyph-name="cedilla" horiz-adv-x="600" unicode="&#184;" /><glyph d="M347 91Q365 91 401.5 95.5Q438 100 476 112V10Q438 -4 395 -10Q352 -16 323 -16Q298 -16 277 -13L250 -118H138L174 15Q115 47 88.5 112Q62 177 62 278Q62 332 70.5 383Q79 434 104 474Q129 514 174 540Q219 566 292 572L317 678H429L402 567Q417 565 433 560.5Q449 556 465 551V455Q435 464 402.5 468.5Q370 473 347 473Q297 473 268 460Q239 447 224.5 422.5Q210 398 206.5 361.5Q203 325 203 278Q203 231 208 195.5Q213 160 228.5 137Q244 114 272.5 102.5Q301 91 347 91Z" glyph-name="cent" horiz-adv-x="518" unicode="&#162;" /><glyph d="M409 160Q427 160 463.5 164.5Q500 169 538 181V79Q500 65 457 59Q414 53 385 53Q373 53 361.5 53.5Q350 54 339 55L312 -49H200L236 84Q177 116 150.5 181Q124 246 124 347Q124 401 132.5 452Q141 503 166 543Q191 583 236 609Q281 635 354 641L379 747H491L464 636Q479 634 495 629.5Q511 625 527 620V524Q497 533 464.5 537.5Q432 542 409 542Q359 542 330 528.5Q301 515 286.5 490Q272 465 268.5 429Q265 393 265 347Q265 302 270 267Q275 232 290.5 208Q306 184 334.5 172Q363 160 409 160Z" glyph-name="cent.LP" horiz-adv-x="660" unicode="&#58659;" /><glyph d="M495 525Q551 525 600 503.5Q649 482 686 445.5Q723 409 744 359.5Q765 310 765 254Q765 198 744 149Q723 100 686 63Q649 26 600 5Q551 -16 495 -16Q439 -16 390 5Q341 26 304 63Q267 100 246 149Q225 198 225 254Q225 310 246 359.5Q267 409 304 445.5Q341 482 390 503.5Q439 525 495 525Z" glyph-name="circle" horiz-adv-x="990" unicode="&#59201;" /><glyph d="M359 681 481 561H361L300 618L239 561H120L241 681Z" glyph-name="circumflex" horiz-adv-x="600" unicode="&#710;" /><glyph d="M359 849 481 729H361L300 786L239 729H120L241 849Z" glyph-name="circumflex.cap" horiz-adv-x="600" unicode="&#58403;" /><glyph d="M365 713 486 593H367L306 650L245 593H125L247 713Z" glyph-name="circumflex.small" horiz-adv-x="600" unicode="&#63222;" /><glyph d="M229 0H74V137H229ZM229 373H74V510H229Z" glyph-name="colon" horiz-adv-x="303" unicode=":" /><glyph d="M104 154H263L138 -139H35Z" glyph-name="comma" horiz-adv-x="303" unicode="," /><glyph d="M307 678H436L338 484H265Z" glyph-name="commaabovecmb" horiz-adv-x="600" unicode="&#787;" /><glyph d="M238 -74H367L269 -268H196Z" glyph-name="commaaccent" horiz-adv-x="600" unicode="&#63171;" /><glyph d="M607 563H478L576 757H649Z" glyph-name="commaturnedabove" horiz-adv-x="700" unicode="&#59202;" /><glyph d="M165 336Q165 211 233 140.5Q301 70 444 70Q587 70 655 138Q723 206 723 336Q723 467 655 537Q587 607 444 607Q371 607 318.5 588.5Q266 570 232 534.5Q198 499 181.5 449Q165 399 165 336ZM61 336Q61 421 86 487.5Q111 554 160 600Q209 646 280.5 670Q352 694 444 694Q534 694 605.5 670.5Q677 647 726 602Q775 557 801 490Q827 423 827 336Q827 250 801 184.5Q775 119 726 74.5Q677 30 605.5 7Q534 -16 444 -16Q353 -16 282 7.5Q211 31 162 76Q113 121 87 186.5Q61 252 61 336ZM294 342Q294 440 336 483.5Q378 527 460 527Q477 527 501.5 524.5Q526 522 552 514V443Q535 448 513 451Q491 454 475 454Q453 454 438 449Q423 444 414 431Q405 418 401 396.5Q397 375 397 342Q397 309 401 287.5Q405 266 414 253Q423 240 438 235Q453 230 475 230Q489 230 509 232.5Q529 235 546 238V168Q521 161 499 158.5Q477 156 460 156Q378 156 336 200.5Q294 245 294 342Z" glyph-name="copyright" horiz-adv-x="888" unicode="&#169;" /><glyph d="M252 360Q265 360 293 364Q321 368 356 379V290Q321 279 289.5 274.5Q258 270 235 270Q129 270 82 319.5Q35 369 35 474Q35 514 42.5 550.5Q50 587 72.5 615.5Q95 644 135 661Q175 678 241 678Q258 678 287.5 675Q317 672 348 661V578Q321 586 295 589.5Q269 593 252 593Q227 593 208.5 588.5Q190 584 178 572Q167 561 161.5 534.5Q156 508 156 474Q156 441 161 416.5Q166 392 178 380Q190 368 208.5 364Q227 360 252 360Z" glyph-name="cordinal" horiz-adv-x="381" unicode="&#57729;" /><glyph d="M33 485Q33 597 82 648Q131 699 233 699Q239 699 252 698.5Q265 698 282 696.5Q299 695 318 691Q337 687 355 680V598Q318 610 288 612.5Q258 615 248 615Q223 615 205.5 609.5Q188 604 176.5 589.5Q165 575 159.5 550Q154 525 154 487Q154 447 159.5 422Q165 397 176.5 383.5Q188 370 205.5 365Q223 360 248 360Q264 360 298 365Q332 370 364 378V293Q349 287 330.5 283Q312 279 294 276.5Q276 274 259.5 273Q243 272 233 272Q185 272 148 283.5Q111 295 85.5 320.5Q60 346 46.5 386.5Q33 427 33 485Z" glyph-name="cordinal.small" horiz-adv-x="391" unicode="&#59203;" /><glyph d="M425 156Q457 156 488 165.5Q519 175 544 196.5Q569 218 584 253Q599 288 599 340Q599 392 584 427Q569 462 544 483.5Q519 505 488 514Q457 523 425 523Q393 523 362.5 514Q332 505 307 483.5Q282 462 267 427Q252 392 252 340Q252 288 267 253Q282 218 307 196.5Q332 175 362.5 165.5Q393 156 425 156ZM425 48Q378 48 334 57.5Q290 67 251 87L157 -8L74 74L163 163Q140 197 126.5 240.5Q113 284 113 341Q113 397 126 440Q139 483 162 516L74 605L157 687L250 592Q289 613 333.5 622.5Q378 632 425 632Q473 632 518 622Q563 612 602 592L696 687L779 605L690 516Q713 483 726 439.5Q739 396 739 341Q739 284 725.5 240.5Q712 197 689 164L779 74L696 -8L601 88Q562 67 517.5 57.5Q473 48 425 48Z" glyph-name="currency" horiz-adv-x="853" unicode="&#164;" /><glyph d="M411 386Q392 404 360.5 410.5Q329 417 304 417Q268 417 245 405Q222 393 209.5 372Q197 351 192 321Q187 291 187 255Q187 208 194 176.5Q201 145 215 126.5Q229 108 251 100.5Q273 93 302 93Q334 93 361.5 109.5Q389 126 411 152ZM46 255Q46 321 64 370.5Q82 420 114.5 454Q147 488 192.5 505Q238 522 294 522Q314 522 347.5 517.5Q381 513 411 495V678H543V0H451L436 56H435Q369 -12 281 -12Q164 -12 105 52Q46 116 46 255Z" glyph-name="d" horiz-adv-x="619" unicode="d" /><glyph d="M74 0V541H285Q354 541 408 527Q462 513 497 478Q565 410 565 271Q565 197 547.5 146Q530 95 492 57Q461 26 413 13Q365 0 297 0ZM300 98Q324 98 345 101.5Q366 105 380 119Q400 139 412 174.5Q424 210 424 271Q424 328 413.5 363Q403 398 382 419Q366 435 346 439Q326 443 301 443H207V98Z" glyph-name="d.small" horiz-adv-x="609" unicode="&#63332;" /><glyph d="M252 522Q240 529 222.5 532.5Q205 536 194 536Q154 536 141.5 510Q129 484 129 441Q129 385 144.5 365.5Q160 346 192 346Q209 346 224 354.5Q239 363 252 377ZM268 308H267Q248 291 225 281Q202 271 179 271Q103 271 64.5 312Q26 353 26 441Q26 526 70 569Q114 612 187 612Q198 612 216.5 609.5Q235 607 252 600V708H349V279H277Z" glyph-name="d.superior" horiz-adv-x="398" unicode="&#58212;" /><glyph d="M261 -85H180L169 388L25 376V488L169 476L157 678H284L272 476L416 488V376L272 388Z" glyph-name="dagger" horiz-adv-x="441" unicode="&#8224;" /><glyph d="M269 269 387 279V184L267 193L261 -85H180L173 193L54 184V279L172 269L169 388L25 376V488L169 476L157 678H284L272 476L416 488V376L272 388Z" glyph-name="daggerdbl" horiz-adv-x="441" unicode="&#8225;" /><glyph d="M650 678H779L681 484H608ZM411 386Q392 404 360.5 410.5Q329 417 304 417Q268 417 245 405Q222 393 209.5 372Q197 351 192 321Q187 291 187 255Q187 208 194 176.5Q201 145 215 126.5Q229 108 251 100.5Q273 93 302 93Q334 93 361.5 109.5Q389 126 411 152ZM46 255Q46 321 64 370.5Q82 420 114.5 454Q147 488 192.5 505Q238 522 294 522Q314 522 347.5 517.5Q381 513 411 495V678H543V0H451L436 56H435Q369 -12 281 -12Q164 -12 105 52Q46 116 46 255Z" glyph-name="dcaron" horiz-adv-x="770" unicode="&#271;" /><glyph d="M236 593 115 713H234L295 656L356 713H476L354 593ZM74 0V541H285Q354 541 408 527Q462 513 497 478Q565 410 565 271Q565 197 547.5 146Q530 95 492 57Q461 26 413 13Q365 0 297 0ZM300 98Q324 98 345 101.5Q366 105 380 119Q400 139 412 174.5Q424 210 424 271Q424 328 413.5 363Q403 398 382 419Q366 435 346 439Q326 443 301 443H207V98Z" glyph-name="dcaron.small" horiz-adv-x="609" unicode="&#63045;" /><glyph d="M288 -38Q329 -40 354.5 -48Q380 -56 394 -67Q408 -78 413 -90Q418 -102 418 -112Q418 -147 385 -165.5Q352 -184 282 -184Q261 -184 238.5 -181.5Q216 -179 187 -170V-102Q216 -111 234 -114Q252 -117 264 -117Q284 -117 296 -113Q308 -109 308 -97Q308 -86 297 -81.5Q286 -77 268 -74ZM411 386Q392 404 360.5 410.5Q329 417 304 417Q268 417 245 405Q222 393 209.5 372Q197 351 192 321Q187 291 187 255Q187 208 194 176.5Q201 145 215 126.5Q229 108 251 100.5Q273 93 302 93Q334 93 361.5 109.5Q389 126 411 152ZM46 255Q46 321 64 370.5Q82 420 114.5 454Q147 488 192.5 505Q238 522 294 522Q314 522 347.5 517.5Q381 513 411 495V678H543V0H451L436 56H435Q369 -12 281 -12Q164 -12 105 52Q46 116 46 255Z" glyph-name="dcedilla" horiz-adv-x="619" unicode="&#7697;" /><glyph d="M280 -38Q321 -40 346.5 -48Q372 -56 386 -67Q400 -78 405 -90Q410 -102 410 -112Q410 -147 377 -165.5Q344 -184 274 -184Q253 -184 230.5 -181.5Q208 -179 179 -170V-102Q208 -111 226 -114Q244 -117 256 -117Q276 -117 288 -113Q300 -109 300 -97Q300 -86 289 -81.5Q278 -77 260 -74ZM74 0V541H285Q354 541 408 527Q462 513 497 478Q565 410 565 271Q565 197 547.5 146Q530 95 492 57Q461 26 413 13Q365 0 297 0ZM300 98Q324 98 345 101.5Q366 105 380 119Q400 139 412 174.5Q424 210 424 271Q424 328 413.5 363Q403 398 382 419Q366 435 346 439Q326 443 301 443H207V98Z" glyph-name="dcedilla.small" horiz-adv-x="609" unicode="&#59207;" /><glyph d="M411 386Q392 404 360.5 410.5Q329 417 304 417Q268 417 245 405Q222 393 209.5 372Q197 351 192 321Q187 291 187 255Q187 208 194 176.5Q201 145 215 126.5Q229 108 251 100.5Q273 93 302 93Q334 93 361.5 109.5Q389 126 411 152ZM643 548H543V0H451L436 56H435Q369 -12 281 -12Q164 -12 105 52Q46 116 46 255Q46 321 64 370.5Q82 420 114.5 454Q147 488 192.5 505Q238 522 294 522Q314 522 347.5 517.5Q381 513 411 495V548H289V630H411V678H543V630H643Z" glyph-name="dcroat" horiz-adv-x="619" unicode="&#273;" /><glyph d="M315 98Q339 98 360 101.5Q381 105 395 119Q415 139 427 174.5Q439 210 439 271Q439 328 428.5 363Q418 398 397 419Q381 435 361 439Q341 443 316 443H222V314H367V235H222V98ZM89 0V235H8V314H89V541H300Q369 541 423 527Q477 513 512 478Q580 410 580 271Q580 197 562.5 146Q545 95 507 57Q476 26 428 13Q380 0 312 0Z" glyph-name="dcroat.small" horiz-adv-x="624" unicode="&#63046;" /><glyph d="M363 -197H239V-88H363ZM411 386Q392 404 360.5 410.5Q329 417 304 417Q268 417 245 405Q222 393 209.5 372Q197 351 192 321Q187 291 187 255Q187 208 194 176.5Q201 145 215 126.5Q229 108 251 100.5Q273 93 302 93Q334 93 361.5 109.5Q389 126 411 152ZM46 255Q46 321 64 370.5Q82 420 114.5 454Q147 488 192.5 505Q238 522 294 522Q314 522 347.5 517.5Q381 513 411 495V678H543V0H451L436 56H435Q369 -12 281 -12Q164 -12 105 52Q46 116 46 255Z" glyph-name="ddotbelow" horiz-adv-x="619" unicode="&#7693;" /><glyph d="M348 -197H224V-88H348ZM74 0V541H285Q354 541 408 527Q462 513 497 478Q565 410 565 271Q565 197 547.5 146Q530 95 492 57Q461 26 413 13Q365 0 297 0ZM300 98Q324 98 345 101.5Q366 105 380 119Q400 139 412 174.5Q424 210 424 271Q424 328 413.5 363Q403 398 382 419Q366 435 346 439Q326 443 301 443H207V98Z" glyph-name="ddotbelow.small" horiz-adv-x="609" unicode="&#59208;" /><glyph d="M227 362Q186 362 150 372Q114 382 88 402.5Q62 423 47 454.5Q32 486 32 528Q32 570 47 601.5Q62 633 88 654Q114 675 150 685Q186 695 227 695Q269 695 304.5 685Q340 675 366 654Q392 633 407 601.5Q422 570 422 528Q422 486 407 454.5Q392 423 366 402.5Q340 382 304.5 372Q269 362 227 362ZM227 445Q273 445 299.5 465Q326 485 326 528Q326 572 299.5 592Q273 612 227 612Q182 612 155.5 592Q129 572 129 528Q129 485 155.5 465Q182 445 227 445Z" glyph-name="degree" horiz-adv-x="454" unicode="&#176;" /><glyph d="M476 572H350V676H476ZM251 572H125V676H251Z" glyph-name="dieresis" horiz-adv-x="600" unicode="&#168;" /><glyph d="M476 740H350V844H476ZM251 740H125V844H251Z" glyph-name="dieresis.cap" horiz-adv-x="600" unicode="&#58409;" /><glyph d="M476 604H350V708H476ZM251 604H125V708H251Z" glyph-name="dieresis.small" horiz-adv-x="600" unicode="&#63400;" /><glyph d="M454 744H94V834H454ZM452 570H322V678H452ZM227 570H97V678H227Z" glyph-name="dieresismacron" horiz-adv-x="0" unicode="&#59209;" /><glyph d="M500 912H140V1002H500ZM498 738H368V846H498ZM273 738H143V846H273Z" glyph-name="dieresismacron.cap" horiz-adv-x="0" unicode="&#59216;" /><glyph d="M378 27H250V140H378ZM581 215H47V322H581ZM378 398H250V511H378Z" glyph-name="divide" horiz-adv-x="628" unicode="&#247;" /><glyph d="M393 104H265V217H393ZM611 292H47V399H611ZM393 475H265V588H393Z" glyph-name="divide.cap" horiz-adv-x="658" unicode="&#58772;" /><glyph d="M229 89Q291 89 323 106.5Q355 124 355 159Q355 182 348 195.5Q341 209 327 215.5Q313 222 292.5 224.5Q272 227 246 227Q209 227 173.5 233.5Q138 240 110 258Q82 276 64.5 307.5Q47 339 47 389Q47 437 63 471Q79 505 108 527Q137 549 176.5 560Q216 571 264 573L289 678H401L373 565Q392 562 409.5 558.5Q427 555 440 551V455Q418 460 395 463.5Q372 467 350.5 469Q329 471 311.5 472Q294 473 283 473Q234 473 206.5 459.5Q179 446 179 407Q179 384 187 371.5Q195 359 209 353Q223 347 241.5 346Q260 345 282 344Q319 343 355.5 336.5Q392 330 421 313Q450 296 468 264.5Q486 233 486 181Q486 133 469 97.5Q452 62 420.5 37.5Q389 13 345.5 0Q302 -13 248 -15L222 -118H110L139 -8Q119 -5 97.5 -0.5Q76 4 56 10V111Q79 105 104 101Q129 97 152.5 94.5Q176 92 196 90.5Q216 89 229 89Z" glyph-name="dollar" horiz-adv-x="528" unicode="$" /><glyph d="M304 131Q344 131 370.5 137Q397 143 413 153Q429 163 435.5 177Q442 191 442 207Q442 230 432.5 244Q423 258 406.5 266Q390 274 367 277Q344 280 317 281Q275 282 236 291Q197 300 166.5 320.5Q136 341 118 376Q100 411 100 465Q100 552 161.5 601.5Q223 651 326 659L361 795H482L446 654Q468 651 489 646.5Q510 642 527 636V533Q481 545 437 549Q393 553 369 553Q304 553 273.5 536.5Q243 520 243 479Q243 455 253 442Q263 429 280 423Q297 417 320.5 415.5Q344 414 370 412Q412 409 451 400.5Q490 392 519.5 371Q549 350 567 313Q585 276 585 217Q585 172 566.5 136.5Q548 101 515 75Q482 49 435.5 34.5Q389 20 332 17L297 -118H176L212 24Q188 27 162.5 33Q137 39 114 47V156Q138 149 166 144Q194 139 220 136Q246 133 268 132Q290 131 304 131Z" glyph-name="dollar.LP" horiz-adv-x="660" unicode="&#58658;" /><glyph d="M486 731H126V821H486ZM372 574H240V678H372Z" glyph-name="dotabovemacron" horiz-adv-x="0" unicode="&#59218;" /><glyph d="M426 742H294V846H426ZM539 912H179V1002H539Z" glyph-name="dotabovemacron.cap" horiz-adv-x="0" unicode="&#59219;" /><glyph d="M488 779H128V869H488ZM372 623H240V727H372Z" glyph-name="dotabovemacron.small" horiz-adv-x="0" unicode="&#59220;" /><glyph d="M366 574H234V678H366Z" glyph-name="dotaccent" horiz-adv-x="600" unicode="&#729;" /><glyph d="M366 742H234V846H366Z" glyph-name="dotaccent.cap" horiz-adv-x="600" unicode="&#58408;" /><glyph d="M366 606H234V710H366Z" glyph-name="dotaccent.small" horiz-adv-x="600" unicode="&#63223;" /><glyph d="M81 0V678H219V0Z" glyph-name="dotlessI" horiz-adv-x="300" unicode="&#59221;" /><glyph d="M13 -118Q50 -56 69.5 12.5Q89 81 89 165V678H227V200Q227 147 223 103Q219 59 209.5 21.5Q200 -16 183.5 -50Q167 -84 143 -118Z" glyph-name="dotlessJ" horiz-adv-x="308" unicode="&#59223;" /><glyph d="M208 0H76V511H208Z" glyph-name="dotlessi" horiz-adv-x="284" unicode="&#305;" /><glyph d="M74 0V541H207V0Z" glyph-name="dotlessi.small" horiz-adv-x="281" unicode="&#59222;" /><glyph d="M24 -168Q50 -124 65.5 -63.5Q81 -3 81 60V510H213V163Q213 107 212 61Q211 15 204.5 -24.5Q198 -64 184 -99Q170 -134 145 -168Z" glyph-name="dotlessj" horiz-adv-x="289" unicode="&#567;" /><glyph d="M12 -91Q46 -38 63.5 16.5Q81 71 81 136V541H214V163Q214 121 210.5 86Q207 51 198.5 21Q190 -9 176.5 -36Q163 -63 142 -91Z" glyph-name="dotlessj.small" horiz-adv-x="288" unicode="&#59224;" /><glyph d="M417 -85H334V763H417ZM293 -85H210V763H293Z" glyph-name="doublebar" horiz-adv-x="627" unicode="&#8214;" /><glyph d="M2 678H145L255 563H160ZM189 678H332L442 563H347Z" glyph-name="doublegrave" horiz-adv-x="600" unicode="&#58386;" /><glyph d="M2 846H145L255 731H160ZM189 846H332L442 731H347Z" glyph-name="doublegrave.cap" horiz-adv-x="600" unicode="&#58412;" /><glyph d="M2 710H145L255 595H160ZM189 710H332L442 595H347Z" glyph-name="doublegrave.small" horiz-adv-x="600" unicode="&#59225;" /><glyph d="M299 429Q277 429 255.5 423.5Q234 418 220 404Q206 390 198.5 368Q191 346 189 316H391Q392 326 392 331Q392 336 392 337Q392 384 370 406Q357 419 339 424Q321 429 299 429ZM186 225Q186 192 192 165Q198 138 218 118Q237 99 265 92Q293 85 336 85Q350 85 369.5 86.5Q389 88 410.5 90.5Q432 93 454 96.5Q476 100 495 105V10Q476 4 452.5 -0.5Q429 -5 404.5 -8.5Q380 -12 355.5 -14Q331 -16 310 -16Q239 -16 188.5 0.5Q138 17 106.5 51Q75 85 60.5 136Q46 187 46 255Q46 333 66 385Q86 437 120.5 468.5Q155 500 200 513Q245 526 295 526Q410 526 463.5 471.5Q517 417 517 307Q517 293 515.5 268Q514 243 512 225Z" glyph-name="e" horiz-adv-x="567" unicode="e" /><glyph d="M467 0H74V541H461V443H207V326H425V225H207V98H467Z" glyph-name="e.small" horiz-adv-x="500" unicode="&#63333;" /><glyph d="M190 546Q178 546 166.5 543Q155 540 147 532Q136 521 134 509.5Q132 498 130 481H243V492Q243 520 230 533Q223 540 212.5 543Q202 546 190 546ZM128 418Q128 400 132 384.5Q136 369 146 359Q156 349 173.5 345.5Q191 342 214 342Q231 342 261.5 345.5Q292 349 320 355V287Q293 279 258.5 274Q224 269 197 269Q105 269 65.5 312Q26 355 26 442Q26 491 39 524Q52 557 74.5 576.5Q97 596 126.5 604.5Q156 613 188 613Q263 613 298 578Q333 543 333 473Q333 466 332.5 455.5Q332 445 331 434Q331 431 330.5 425.5Q330 420 330 418Z" glyph-name="e.superior" horiz-adv-x="359" unicode="&#58213;" /><glyph d="M327 565H218L330 678H487ZM299 429Q277 429 255.5 423.5Q234 418 220 404Q206 390 198.5 368Q191 346 189 316H391Q392 326 392 331Q392 336 392 337Q392 384 370 406Q357 419 339 424Q321 429 299 429ZM186 225Q186 192 192 165Q198 138 218 118Q237 99 265 92Q293 85 336 85Q350 85 369.5 86.5Q389 88 410.5 90.5Q432 93 454 96.5Q476 100 495 105V10Q476 4 452.5 -0.5Q429 -5 404.5 -8.5Q380 -12 355.5 -14Q331 -16 310 -16Q239 -16 188.5 0.5Q138 17 106.5 51Q75 85 60.5 136Q46 187 46 255Q46 333 66 385Q86 437 120.5 468.5Q155 500 200 513Q245 526 295 526Q410 526 463.5 471.5Q517 417 517 307Q517 293 515.5 268Q514 243 512 225Z" glyph-name="eacute" horiz-adv-x="567" unicode="&#233;" /><glyph d="M310 597H201L313 710H470ZM467 0H74V541H461V443H207V326H425V225H207V98H467Z" glyph-name="eacute.small" horiz-adv-x="500" unicode="&#63465;" /><glyph d="M299 429Q277 429 255.5 423.5Q234 418 220 404Q206 390 198.5 368Q191 346 189 316H391Q392 326 392 331Q392 336 392 337Q392 384 370 406Q357 419 339 424Q321 429 299 429ZM186 225Q186 192 192 165Q198 138 218 118Q237 99 265 92Q293 85 336 85Q350 85 369.5 86.5Q389 88 410.5 90.5Q432 93 454 96.5Q476 100 495 105V10Q476 4 452.5 -0.5Q429 -5 404.5 -8.5Q380 -12 355.5 -14Q331 -16 310 -16Q239 -16 188.5 0.5Q138 17 106.5 51Q75 85 60.5 136Q46 187 46 255Q46 333 66 385Q86 437 120.5 468.5Q155 500 200 513Q245 526 295 526Q410 526 463.5 471.5Q517 417 517 307Q517 293 515.5 268Q514 243 512 225ZM327 565H218L330 678H487ZM359 -197H235V-88H359Z" glyph-name="eacutedotbelow" horiz-adv-x="567" unicode="&#59232;" /><glyph d="M310 597H201L313 710H470ZM329 -197H205V-88H329ZM467 0H74V541H461V443H207V326H425V225H207V98H467Z" glyph-name="eacutedotbelow.small" horiz-adv-x="500" unicode="&#59234;" /><glyph d="M299 429Q277 429 255.5 423.5Q234 418 220 404Q206 390 198.5 368Q191 346 189 316H391Q392 326 392 331Q392 336 392 337Q392 384 370 406Q357 419 339 424Q321 429 299 429ZM186 225Q186 192 192 165Q198 138 218 118Q237 99 265 92Q293 85 336 85Q350 85 369.5 86.5Q389 88 410.5 90.5Q432 93 454 96.5Q476 100 495 105V10Q476 4 452.5 -0.5Q429 -5 404.5 -8.5Q380 -12 355.5 -14Q331 -16 310 -16Q239 -16 188.5 0.5Q138 17 106.5 51Q75 85 60.5 136Q46 187 46 255Q46 333 66 385Q86 437 120.5 468.5Q155 500 200 513Q245 526 295 526Q410 526 463.5 471.5Q517 417 517 307Q517 293 515.5 268Q514 243 512 225ZM293 627Q327 627 348.5 638Q370 649 378 678H482Q477 644 460.5 620Q444 596 419.5 580.5Q395 565 362.5 558Q330 551 293 551Q256 551 223.5 558Q191 565 166.5 580.5Q142 596 125.5 620Q109 644 104 678H208Q216 649 237.5 638Q259 627 293 627Z" glyph-name="ebreve" horiz-adv-x="567" unicode="&#277;" /><glyph d="M268 659Q302 659 323.5 670Q345 681 353 710H457Q452 676 435.5 652Q419 628 394.5 612.5Q370 597 337.5 590Q305 583 268 583Q231 583 198.5 590Q166 597 141.5 612.5Q117 628 100.5 652Q84 676 79 710H183Q191 681 212.5 670Q234 659 268 659ZM467 0H74V541H461V443H207V326H425V225H207V98H467Z" glyph-name="ebreve.small" horiz-adv-x="500" unicode="&#63018;" /><glyph d="M232 561 111 681H230L291 624L352 681H472L350 561ZM299 429Q277 429 255.5 423.5Q234 418 220 404Q206 390 198.5 368Q191 346 189 316H391Q392 326 392 331Q392 336 392 337Q392 384 370 406Q357 419 339 424Q321 429 299 429ZM186 225Q186 192 192 165Q198 138 218 118Q237 99 265 92Q293 85 336 85Q350 85 369.5 86.5Q389 88 410.5 90.5Q432 93 454 96.5Q476 100 495 105V10Q476 4 452.5 -0.5Q429 -5 404.5 -8.5Q380 -12 355.5 -14Q331 -16 310 -16Q239 -16 188.5 0.5Q138 17 106.5 51Q75 85 60.5 136Q46 187 46 255Q46 333 66 385Q86 437 120.5 468.5Q155 500 200 513Q245 526 295 526Q410 526 463.5 471.5Q517 417 517 307Q517 293 515.5 268Q514 243 512 225Z" glyph-name="ecaron" horiz-adv-x="567" unicode="&#283;" /><glyph d="M217 593 96 713H215L276 656L337 713H457L335 593ZM467 0H74V541H461V443H207V326H425V225H207V98H467Z" glyph-name="ecaron.small" horiz-adv-x="500" unicode="&#63047;" /><glyph d="M350 681 472 561H352L291 618L230 561H111L232 681ZM299 429Q277 429 255.5 423.5Q234 418 220 404Q206 390 198.5 368Q191 346 189 316H391Q392 326 392 331Q392 336 392 337Q392 384 370 406Q357 419 339 424Q321 429 299 429ZM186 225Q186 192 192 165Q198 138 218 118Q237 99 265 92Q293 85 336 85Q350 85 369.5 86.5Q389 88 410.5 90.5Q432 93 454 96.5Q476 100 495 105V10Q476 4 452.5 -0.5Q429 -5 404.5 -8.5Q380 -12 355.5 -14Q331 -16 310 -16Q239 -16 188.5 0.5Q138 17 106.5 51Q75 85 60.5 136Q46 187 46 255Q46 333 66 385Q86 437 120.5 468.5Q155 500 200 513Q245 526 295 526Q410 526 463.5 471.5Q517 417 517 307Q517 293 515.5 268Q514 243 512 225Z" glyph-name="ecircumflex" horiz-adv-x="567" unicode="&#234;" /><glyph d="M333 713 454 593H335L274 650L213 593H93L215 713ZM467 0H74V541H461V443H207V326H425V225H207V98H467Z" glyph-name="ecircumflex.small" horiz-adv-x="500" unicode="&#63466;" /><glyph d="M470 572H344V676H470ZM245 572H119V676H245ZM299 429Q277 429 255.5 423.5Q234 418 220 404Q206 390 198.5 368Q191 346 189 316H391Q392 326 392 331Q392 336 392 337Q392 384 370 406Q357 419 339 424Q321 429 299 429ZM186 225Q186 192 192 165Q198 138 218 118Q237 99 265 92Q293 85 336 85Q350 85 369.5 86.5Q389 88 410.5 90.5Q432 93 454 96.5Q476 100 495 105V10Q476 4 452.5 -0.5Q429 -5 404.5 -8.5Q380 -12 355.5 -14Q331 -16 310 -16Q239 -16 188.5 0.5Q138 17 106.5 51Q75 85 60.5 136Q46 187 46 255Q46 333 66 385Q86 437 120.5 468.5Q155 500 200 513Q245 526 295 526Q410 526 463.5 471.5Q517 417 517 307Q517 293 515.5 268Q514 243 512 225Z" glyph-name="edieresis" horiz-adv-x="567" unicode="&#235;" /><glyph d="M443 604H317V708H443ZM218 604H92V708H218ZM467 0H74V541H461V443H207V326H425V225H207V98H467Z" glyph-name="edieresis.small" horiz-adv-x="500" unicode="&#63467;" /><glyph d="M363 574H231V678H363ZM299 429Q277 429 255.5 423.5Q234 418 220 404Q206 390 198.5 368Q191 346 189 316H391Q392 326 392 331Q392 336 392 337Q392 384 370 406Q357 419 339 424Q321 429 299 429ZM186 225Q186 192 192 165Q198 138 218 118Q237 99 265 92Q293 85 336 85Q350 85 369.5 86.5Q389 88 410.5 90.5Q432 93 454 96.5Q476 100 495 105V10Q476 4 452.5 -0.5Q429 -5 404.5 -8.5Q380 -12 355.5 -14Q331 -16 310 -16Q239 -16 188.5 0.5Q138 17 106.5 51Q75 85 60.5 136Q46 187 46 255Q46 333 66 385Q86 437 120.5 468.5Q155 500 200 513Q245 526 295 526Q410 526 463.5 471.5Q517 417 517 307Q517 293 515.5 268Q514 243 512 225Z" glyph-name="edotaccent" horiz-adv-x="567" unicode="&#279;" /><glyph d="M344 606H212V710H344ZM467 0H74V541H461V443H207V326H425V225H207V98H467Z" glyph-name="edotaccent.small" horiz-adv-x="500" unicode="&#63048;" /><glyph d="M11 678H154L264 563H169ZM198 678H341L451 563H356ZM299 429Q277 429 255.5 423.5Q234 418 220 404Q206 390 198.5 368Q191 346 189 316H391Q392 326 392 331Q392 336 392 337Q392 384 370 406Q357 419 339 424Q321 429 299 429ZM186 225Q186 192 192 165Q198 138 218 118Q237 99 265 92Q293 85 336 85Q350 85 369.5 86.5Q389 88 410.5 90.5Q432 93 454 96.5Q476 100 495 105V10Q476 4 452.5 -0.5Q429 -5 404.5 -8.5Q380 -12 355.5 -14Q331 -16 310 -16Q239 -16 188.5 0.5Q138 17 106.5 51Q75 85 60.5 136Q46 187 46 255Q46 333 66 385Q86 437 120.5 468.5Q155 500 200 513Q245 526 295 526Q410 526 463.5 471.5Q517 417 517 307Q517 293 515.5 268Q514 243 512 225Z" glyph-name="edoublegrave" horiz-adv-x="567" unicode="&#513;" /><glyph d="M-10 710H133L243 595H148ZM177 710H320L430 595H335ZM467 0H74V541H461V443H207V326H425V225H207V98H467Z" glyph-name="edoublegrave.small" horiz-adv-x="500" unicode="&#59235;" /><glyph d="M98 678H255L367 565H258ZM299 429Q277 429 255.5 423.5Q234 418 220 404Q206 390 198.5 368Q191 346 189 316H391Q392 326 392 331Q392 336 392 337Q392 384 370 406Q357 419 339 424Q321 429 299 429ZM186 225Q186 192 192 165Q198 138 218 118Q237 99 265 92Q293 85 336 85Q350 85 369.5 86.5Q389 88 410.5 90.5Q432 93 454 96.5Q476 100 495 105V10Q476 4 452.5 -0.5Q429 -5 404.5 -8.5Q380 -12 355.5 -14Q331 -16 310 -16Q239 -16 188.5 0.5Q138 17 106.5 51Q75 85 60.5 136Q46 187 46 255Q46 333 66 385Q86 437 120.5 468.5Q155 500 200 513Q245 526 295 526Q410 526 463.5 471.5Q517 417 517 307Q517 293 515.5 268Q514 243 512 225Z" glyph-name="egrave" horiz-adv-x="567" unicode="&#232;" /><glyph d="M91 710H248L360 597H251ZM467 0H74V541H461V443H207V326H425V225H207V98H467Z" glyph-name="egrave.small" horiz-adv-x="500" unicode="&#63464;" /><glyph d="M299 429Q277 429 255.5 423.5Q234 418 220 404Q206 390 198.5 368Q191 346 189 316H391Q392 326 392 331Q392 336 392 337Q392 384 370 406Q357 419 339 424Q321 429 299 429ZM186 225Q186 192 192 165Q198 138 218 118Q237 99 265 92Q293 85 336 85Q350 85 369.5 86.5Q389 88 410.5 90.5Q432 93 454 96.5Q476 100 495 105V10Q476 4 452.5 -0.5Q429 -5 404.5 -8.5Q380 -12 355.5 -14Q331 -16 310 -16Q239 -16 188.5 0.5Q138 17 106.5 51Q75 85 60.5 136Q46 187 46 255Q46 333 66 385Q86 437 120.5 468.5Q155 500 200 513Q245 526 295 526Q410 526 463.5 471.5Q517 417 517 307Q517 293 515.5 268Q514 243 512 225ZM99 678H256L368 565H259ZM359 -197H235V-88H359Z" glyph-name="egravedotbelow" horiz-adv-x="567" unicode="&#59236;" /><glyph d="M91 710H248L360 597H251ZM329 -197H205V-88H329ZM467 0H74V541H461V443H207V326H425V225H207V98H467Z" glyph-name="egravedotbelow.small" horiz-adv-x="500" unicode="&#59238;" /><glyph d="M331 396Q360 396 380.5 403.5Q401 411 418 428Q441 451 441 496Q441 517 436.5 535Q432 553 419.5 566.5Q407 580 385.5 587.5Q364 595 331 595Q297 595 275.5 587.5Q254 580 241.5 566.5Q229 553 224.5 535Q220 517 220 496Q220 451 243 428Q260 411 281 403.5Q302 396 331 396ZM331 84Q351 84 373 88.5Q395 93 413 104Q431 115 443 135Q455 155 455 187Q455 214 449 232Q443 250 431 262Q414 279 390 287.5Q366 296 331 296Q295 296 271 287.5Q247 279 230 262Q218 250 212 232Q206 214 206 187Q206 155 218 135Q230 115 248.5 104Q267 93 289 88.5Q311 84 331 84ZM331 694Q382 694 427.5 684Q473 674 506.5 652Q540 630 560 596.5Q580 563 580 516Q580 464 560 424Q540 384 494 352V350Q539 327 566.5 285Q594 243 594 184Q594 127 572.5 88.5Q551 50 514.5 26.5Q478 3 430.5 -6.5Q383 -16 331 -16Q280 -16 232 -6.5Q184 3 147.5 26.5Q111 50 89 88.5Q67 127 67 184Q67 243 94.5 285Q122 327 167 350V352Q121 384 101 424Q81 464 81 516Q81 563 101 596.5Q121 630 155 652Q189 674 234.5 684Q280 694 331 694Z" glyph-name="eight" horiz-adv-x="661" unicode="8" /><glyph d="M329 396Q358 396 378.5 403.5Q399 411 416 428Q439 451 439 496Q439 517 434.5 535Q430 553 417.5 566.5Q405 580 383.5 587.5Q362 595 329 595Q295 595 273.5 587.5Q252 580 239.5 566.5Q227 553 222.5 535Q218 517 218 496Q218 451 241 428Q258 411 279 403.5Q300 396 329 396ZM329 84Q349 84 371 88.5Q393 93 411 104Q429 115 441 135Q453 155 453 187Q453 214 447 232Q441 250 429 262Q412 279 388 287.5Q364 296 329 296Q293 296 269 287.5Q245 279 228 262Q216 250 210 232Q204 214 204 187Q204 155 216 135Q228 115 246.5 104Q265 93 287 88.5Q309 84 329 84ZM329 694Q380 694 425.5 684Q471 674 504.5 652Q538 630 558 596.5Q578 563 578 516Q578 464 558 424Q538 384 492 352V350Q537 327 564.5 285Q592 243 592 184Q592 127 570.5 88.5Q549 50 512.5 26.5Q476 3 428.5 -6.5Q381 -16 329 -16Q278 -16 230 -6.5Q182 3 145.5 26.5Q109 50 87 88.5Q65 127 65 184Q65 243 92.5 285Q120 327 165 350V352Q119 384 99 424Q79 464 79 516Q79 563 99 596.5Q119 630 153 652Q187 674 232.5 684Q278 694 329 694Z" glyph-name="eight.LP" horiz-adv-x="656" unicode="&#58685;" /><glyph d="M330 396Q359 396 379.5 403.5Q400 411 417 428Q440 451 440 496Q440 517 435.5 535Q431 553 418.5 566.5Q406 580 384.5 587.5Q363 595 330 595Q296 595 274.5 587.5Q253 580 240.5 566.5Q228 553 223.5 535Q219 517 219 496Q219 451 242 428Q259 411 280 403.5Q301 396 330 396ZM330 84Q350 84 372 88.5Q394 93 412 104Q430 115 442 135Q454 155 454 187Q454 214 448 232Q442 250 430 262Q413 279 389 287.5Q365 296 330 296Q294 296 270 287.5Q246 279 229 262Q217 250 211 232Q205 214 205 187Q205 155 217 135Q229 115 247.5 104Q266 93 288 88.5Q310 84 330 84ZM330 694Q381 694 426.5 684Q472 674 505.5 652Q539 630 559 596.5Q579 563 579 516Q579 464 559 424Q539 384 493 352V350Q538 327 565.5 285Q593 243 593 184Q593 127 571.5 88.5Q550 50 513.5 26.5Q477 3 429.5 -6.5Q382 -16 330 -16Q279 -16 231 -6.5Q183 3 146.5 26.5Q110 50 88 88.5Q66 127 66 184Q66 243 93.5 285Q121 327 166 350V352Q120 384 100 424Q80 464 80 516Q80 563 100 596.5Q120 630 154 652Q188 674 233.5 684Q279 694 330 694Z" glyph-name="eight.LT" horiz-adv-x="660" unicode="&#58696;" /><glyph d="M330 396Q359 396 379.5 403.5Q400 411 417 428Q440 451 440 496Q440 517 435.5 535Q431 553 418.5 566.5Q406 580 384.5 587.5Q363 595 330 595Q296 595 274.5 587.5Q253 580 240.5 566.5Q228 553 223.5 535Q219 517 219 496Q219 451 242 428Q259 411 280 403.5Q301 396 330 396ZM330 84Q350 84 372 88.5Q394 93 412 104Q430 115 442 135Q454 155 454 187Q454 214 448 232Q442 250 430 262Q413 279 389 287.5Q365 296 330 296Q294 296 270 287.5Q246 279 229 262Q217 250 211 232Q205 214 205 187Q205 155 217 135Q229 115 247.5 104Q266 93 288 88.5Q310 84 330 84ZM330 694Q381 694 426.5 684Q472 674 505.5 652Q539 630 559 596.5Q579 563 579 516Q579 464 559 424Q539 384 493 352V350Q538 327 565.5 285Q593 243 593 184Q593 127 571.5 88.5Q550 50 513.5 26.5Q477 3 429.5 -6.5Q382 -16 330 -16Q279 -16 231 -6.5Q183 3 146.5 26.5Q110 50 88 88.5Q66 127 66 184Q66 243 93.5 285Q121 327 166 350V352Q120 384 100 424Q80 464 80 516Q80 563 100 596.5Q120 630 154 652Q188 674 233.5 684Q279 694 330 694Z" glyph-name="eight.OT" horiz-adv-x="660" unicode="&#58718;" /><glyph d="M184 46Q209 46 221 58Q227 64 229 71.5Q231 79 231 90Q231 110 220.5 122Q210 134 184 134Q158 134 147.5 122Q137 110 137 90Q137 68 147 58Q159 46 184 46ZM184 -110Q191 -110 200.5 -108.5Q210 -107 217.5 -102Q225 -97 230.5 -88Q236 -79 236 -65Q236 -41 226 -31Q213 -18 184 -18Q170 -18 160 -20.5Q150 -23 142 -31Q132 -41 132 -65Q132 -79 137.5 -88Q143 -97 150.5 -102Q158 -107 167 -108.5Q176 -110 184 -110ZM184 198Q213 198 238.5 192Q264 186 283.5 174Q303 162 314.5 143.5Q326 125 326 100Q326 75 316.5 54Q307 33 284 16V15Q305 5 319.5 -16.5Q334 -38 334 -67Q334 -98 321.5 -119Q309 -140 288 -152.5Q267 -165 240 -170.5Q213 -176 184 -176Q155 -176 128 -170.5Q101 -165 80 -152.5Q59 -140 46.5 -119Q34 -98 34 -67Q34 -38 48.5 -16.5Q63 5 84 15V16Q61 33 51.5 54Q42 75 42 100Q42 125 53.5 143.5Q65 162 84.5 174Q104 186 129.5 192Q155 198 184 198Z" glyph-name="eight.inf" horiz-adv-x="368" unicode="&#58745;" /><glyph d="M293 614Q259 614 237.5 603Q216 592 208 563H104Q109 597 125.5 621Q142 645 166.5 660.5Q191 676 223.5 683Q256 690 293 690Q330 690 362.5 683Q395 676 419.5 660.5Q444 645 460.5 621Q477 597 482 563H378Q370 592 348.5 603Q327 614 293 614ZM299 429Q277 429 255.5 423.5Q234 418 220 404Q206 390 198.5 368Q191 346 189 316H391Q392 326 392 331Q392 336 392 337Q392 384 370 406Q357 419 339 424Q321 429 299 429ZM186 225Q186 192 192 165Q198 138 218 118Q237 99 265 92Q293 85 336 85Q350 85 369.5 86.5Q389 88 410.5 90.5Q432 93 454 96.5Q476 100 495 105V10Q476 4 452.5 -0.5Q429 -5 404.5 -8.5Q380 -12 355.5 -14Q331 -16 310 -16Q239 -16 188.5 0.5Q138 17 106.5 51Q75 85 60.5 136Q46 187 46 255Q46 333 66 385Q86 437 120.5 468.5Q155 500 200 513Q245 526 295 526Q410 526 463.5 471.5Q517 417 517 307Q517 293 515.5 268Q514 243 512 225Z" glyph-name="einvertedbreve" horiz-adv-x="567" unicode="&#519;" /><glyph d="M267 646Q233 646 211.5 635Q190 624 182 595H78Q83 629 99.5 653Q116 677 140.5 692.5Q165 708 197.5 715Q230 722 267 722Q304 722 336.5 715Q369 708 393.5 692.5Q418 677 434.5 653Q451 629 456 595H352Q344 624 322.5 635Q301 646 267 646ZM467 0H74V541H461V443H207V326H425V225H207V98H467Z" glyph-name="einvertedbreve.small" horiz-adv-x="500" unicode="&#59239;" /><glyph d="M1040 0H885V137H1040ZM616 0H461V137H616ZM192 0H37V137H192Z" glyph-name="ellipsis" horiz-adv-x="1077" unicode="&#8230;" /><glyph d="M471 588H111V678H471ZM299 429Q277 429 255.5 423.5Q234 418 220 404Q206 390 198.5 368Q191 346 189 316H391Q392 326 392 331Q392 336 392 337Q392 384 370 406Q357 419 339 424Q321 429 299 429ZM186 225Q186 192 192 165Q198 138 218 118Q237 99 265 92Q293 85 336 85Q350 85 369.5 86.5Q389 88 410.5 90.5Q432 93 454 96.5Q476 100 495 105V10Q476 4 452.5 -0.5Q429 -5 404.5 -8.5Q380 -12 355.5 -14Q331 -16 310 -16Q239 -16 188.5 0.5Q138 17 106.5 51Q75 85 60.5 136Q46 187 46 255Q46 333 66 385Q86 437 120.5 468.5Q155 500 200 513Q245 526 295 526Q410 526 463.5 471.5Q517 417 517 307Q517 293 515.5 268Q514 243 512 225Z" glyph-name="emacron" horiz-adv-x="567" unicode="&#275;" /><glyph d="M447 620H87V710H447ZM467 0H74V541H461V443H207V326H425V225H207V98H467Z" glyph-name="emacron.small" horiz-adv-x="500" unicode="&#63049;" /><glyph d="M1121 215H47V322H1121Z" glyph-name="emdash" horiz-adv-x="1168" unicode="&#8212;" /><glyph d="M1121 292H47V399H1121Z" glyph-name="emdash.cap" horiz-adv-x="1168" unicode="&#58502;" /><glyph glyph-name="emspace" horiz-adv-x="1000" unicode="&#8195;" /><glyph d="M584 215H47V322H584Z" glyph-name="endash" horiz-adv-x="631" unicode="&#8211;" /><glyph d="M584 292H47V399H584Z" glyph-name="endash.cap" horiz-adv-x="631" unicode="&#58500;" /><glyph d="M188 443Q231 487 279.5 504.5Q328 522 378 522Q473 522 513 484.5Q553 447 553 363V39Q553 -21 537.5 -70.5Q522 -120 486 -168H359Q385 -128 403 -73Q421 -18 421 39V339Q421 384 404 400.5Q387 417 342 417Q305 417 268 398Q231 379 208 351V0H76V510H168L186 443Z" glyph-name="eng" horiz-adv-x="620" unicode="&#331;" /><glyph d="M568 86Q568 44 564.5 9Q561 -26 552.5 -56Q544 -86 530.5 -113Q517 -140 496 -168H366Q392 -127 408.5 -86Q425 -45 431 1L272 230Q262 245 251 263Q240 281 229.5 299Q219 317 210.5 333Q202 349 197 360H195Q197 316 199 265Q201 214 201 176V0H74V541H217L369 311Q379 296 390.5 278Q402 260 412.5 242Q423 224 431.5 208Q440 192 445 181H447Q445 225 443 276Q441 327 441 365L440 541H568Z" glyph-name="eng.small" horiz-adv-x="642" unicode="&#63019;" /><glyph glyph-name="enspace" horiz-adv-x="500" unicode="&#8194;" /><glyph d="M299 429Q277 429 255.5 423.5Q234 418 220 404Q206 390 198.5 368Q191 346 189 316H391Q392 326 392 331Q392 336 392 337Q392 384 370 406Q357 419 339 424Q321 429 299 429ZM186 225Q186 192 192 165Q198 138 218 118Q237 99 265 92Q293 85 336 85Q350 85 369.5 86.5Q389 88 410.5 90.5Q432 93 454 96.5Q476 100 495 105V10Q472 -2 458 -14.5Q444 -27 435.5 -39.5Q427 -52 424 -63Q421 -74 421 -82Q421 -113 461 -113Q478 -113 493.5 -111Q509 -109 529 -102V-170Q508 -178 481.5 -181Q455 -184 438 -184Q384 -184 355 -163.5Q326 -143 326 -106Q326 -81 338.5 -57Q351 -33 372 -13Q339 -16 310 -16Q239 -16 188.5 0.5Q138 17 106.5 51Q75 85 60.5 136Q46 187 46 255Q46 333 66 385Q86 437 120.5 468.5Q155 500 200 513Q245 526 295 526Q410 526 463.5 471.5Q517 417 517 307Q517 293 515.5 268Q514 243 512 225Z" glyph-name="eogonek" horiz-adv-x="567" unicode="&#281;" /><glyph d="M405 -82Q405 -113 445 -113Q462 -113 477.5 -111Q493 -109 513 -102V-170Q492 -178 465.5 -181Q439 -184 422 -184Q368 -184 339 -163.5Q310 -143 310 -106Q310 -77 326.5 -48.5Q343 -20 372 0H74V541H461V443H207V326H425V225H207V98H467V0Q429 -20 417 -43Q405 -66 405 -82Z" glyph-name="eogonek.small" horiz-adv-x="500" unicode="&#63050;" /><glyph d="M614 104H47V211H614ZM614 327H47V434H614Z" glyph-name="equal" horiz-adv-x="661" unicode="=" /><glyph d="M674 180H47V287H674ZM674 403H47V510H674Z" glyph-name="equal.cap" horiz-adv-x="721" unicode="&#58773;" /><glyph d="M338 -75H40V-6H338ZM338 37H40V106H338Z" glyph-name="equal.inf" horiz-adv-x="378" unicode="&#58749;" /><glyph d="M459 632Q396 632 354 611Q312 590 286 553.5Q260 517 248 468.5Q236 420 234 366H680Q678 420 667 468.5Q656 517 630.5 553.5Q605 590 563 611Q521 632 459 632ZM786 229Q776 166 749 120.5Q722 75 679.5 45.5Q637 16 581.5 2Q526 -12 459 -12Q383 -12 319.5 12.5Q256 37 210.5 83Q165 129 140 193.5Q115 258 115 338Q115 418 140 483Q165 548 210.5 594Q256 640 319.5 665Q383 690 459 690Q534 690 596.5 665Q659 640 704 594Q749 548 774 483Q799 418 799 338V309H234Q236 255 248 207Q260 159 286 123Q312 87 354 66Q396 45 459 45Q572 45 637.5 88.5Q703 132 719 229Z" glyph-name="estimated" horiz-adv-x="914" unicode="&#8494;" /><glyph d="M305 407Q276 407 255.5 399.5Q235 392 220 377Q202 359 194.5 328.5Q187 298 187 258Q187 204 196 166.5Q205 129 227 107Q254 80 307 80Q363 80 388 105Q411 128 419.5 163.5Q428 199 428 253Q428 296 421.5 327Q415 358 397 376Q382 391 360 399Q338 407 305 407ZM499 640 432 614Q496 558 532 470Q568 382 568 253Q568 168 544.5 115.5Q521 63 483.5 33.5Q446 4 398.5 -6Q351 -16 303 -16Q255 -16 209 -6Q163 4 126.5 33.5Q90 63 68 117Q46 171 46 259Q46 341 76 389.5Q106 438 147.5 463Q189 488 232 495.5Q275 503 301 503Q327 503 346.5 499Q366 495 379 490L381 491Q370 515 353 534.5Q336 554 310 572L169 515L142 584L233 617L182 638L282 696Q300 690 317 683Q334 676 351 668L470 714Z" glyph-name="eth" horiz-adv-x="614" unicode="&#240;" /><glyph d="M315 98Q339 98 360 101.5Q381 105 395 119Q415 139 427 174.5Q439 210 439 271Q439 328 428.5 363Q418 398 397 419Q381 435 361 439Q341 443 316 443H222V314H367V235H222V98ZM89 0V235H8V314H89V541H300Q369 541 423 527Q477 513 512 478Q580 410 580 271Q580 197 562.5 146Q545 95 507 57Q476 26 428 13Q380 0 312 0Z" glyph-name="eth.small" horiz-adv-x="624" unicode="&#59240;" /><glyph d="M229 0H74V137H229ZM205 233H99L76 678H227Z" glyph-name="exclam" horiz-adv-x="303" unicode="!" /><glyph d="M229 373H74V510H229ZM227 -168H76L99 277H205Z" glyph-name="exclamdown" horiz-adv-x="303" unicode="&#161;" /><glyph d="M229 541H74V678H229ZM227 0H76L99 445H205Z" glyph-name="exclamdown.cap" horiz-adv-x="303" unicode="&#58433;" /><glyph d="M236 0H104V414H21V499L104 506V530Q104 580 116.5 611.5Q129 643 152.5 660.5Q176 678 210.5 684Q245 690 290 690Q307 690 342.5 688Q378 686 412 678V588Q400 590 385 591.5Q370 593 355.5 594Q341 595 329.5 595.5Q318 596 313 596Q271 596 253.5 585.5Q236 575 236 537V510H401V414H236Z" glyph-name="f" horiz-adv-x="403" unicode="f" /><glyph d="M207 0H74V541H467V443H207V326H425V225H207Z" glyph-name="f.small" horiz-adv-x="464" unicode="&#63334;" /><glyph d="M163 279H66V532H14V593L66 599V612Q66 644 74 664.5Q82 685 98 696.5Q114 708 136.5 712Q159 716 189 716Q200 716 224 714Q248 712 272 707V640Q250 645 229 646Q208 647 203 647Q181 647 172 641.5Q163 636 163 616V601H265V532H163Z" glyph-name="f.superior" horiz-adv-x="270" unicode="&#58214;" /><glyph d="M825 255Q825 302 818 333.5Q811 365 796.5 383.5Q782 402 760.5 409.5Q739 417 710 417Q678 417 650.5 400.5Q623 384 601 358V130Q624 108 651.5 100.5Q679 93 708 93Q744 93 767 105Q790 117 802.5 138Q815 159 820 189Q825 219 825 255ZM718 -12Q683 -12 644 -1.5Q605 9 571 35H569L553 0H469V678H601V473H603Q659 522 731 522Q848 522 907 458Q966 394 966 255Q966 189 948 139.5Q930 90 897.5 56Q865 22 819.5 5Q774 -12 718 -12ZM236 0H104V414H21V499L104 506V530Q104 580 116.5 611.5Q129 643 152.5 660.5Q176 678 210.5 684Q245 690 290 690Q305 690 332.5 688Q360 686 391 678V588Q369 593 346 594.5Q323 596 313 596Q271 596 253.5 585.5Q236 575 236 537V510H391V414H236Z" glyph-name="f_b" horiz-adv-x="1012" unicode="&#58241;" /><glyph d="M601 0H469V510H601ZM236 0H104V414H21V499L104 506V530Q104 580 116.5 611.5Q129 643 152.5 660.5Q176 678 210.5 684Q245 690 290 690Q305 690 332.5 688Q360 686 391 678V588Q369 593 346 594.5Q323 596 313 596Q271 596 253.5 585.5Q236 575 236 537V510H391V414H236Z" glyph-name="f_dotlessi" horiz-adv-x="677" unicode="&#59248;" /><glyph d="M629 0H497V414H412V499L497 506V530Q497 580 509.5 611.5Q522 643 545.5 660.5Q569 678 603.5 684Q638 690 683 690Q700 690 735.5 688Q771 686 805 678V588Q793 590 778 591.5Q763 593 748.5 594Q734 595 722.5 595.5Q711 596 706 596Q664 596 646.5 585.5Q629 575 629 537V510H794V414H629ZM236 0H104V414H21V499L104 506V530Q104 580 116.5 611.5Q129 643 152.5 660.5Q176 678 210.5 684Q245 690 290 690Q307 690 342.5 688Q378 686 412 678V588Q400 590 385 591.5Q370 593 355.5 594Q341 595 329.5 595.5Q318 596 313 596Q271 596 253.5 585.5Q236 575 236 537V510H369V414H236Z" glyph-name="f_f" horiz-adv-x="796" unicode="&#64256;" /><glyph d="M1218 255Q1218 302 1211 333.5Q1204 365 1189.5 383.5Q1175 402 1153.5 409.5Q1132 417 1103 417Q1071 417 1043.5 400.5Q1016 384 994 358V130Q1017 108 1044.5 100.5Q1072 93 1101 93Q1137 93 1160 105Q1183 117 1195.5 138Q1208 159 1213 189Q1218 219 1218 255ZM1111 -12Q1076 -12 1037 -1.5Q998 9 964 35H962L946 0H862V678H994V473H996Q1052 522 1124 522Q1241 522 1300 458Q1359 394 1359 255Q1359 189 1341 139.5Q1323 90 1290.5 56Q1258 22 1212.5 5Q1167 -12 1111 -12ZM236 0H104V414H21V499L104 506V530Q104 580 116.5 611.5Q129 643 152.5 660.5Q176 678 210.5 684Q245 690 290 690Q307 690 342.5 688Q378 686 412 678V588Q400 590 385 591.5Q370 593 355.5 594Q341 595 329.5 595.5Q318 596 313 596Q271 596 253.5 585.5Q236 575 236 537V510H369V414H236ZM629 0H497V414H413V499L497 506V530Q497 580 509.5 611.5Q522 643 545.5 660.5Q569 678 603.5 684Q638 690 683 690Q698 690 725.5 688Q753 686 784 678V588Q762 593 739 594.5Q716 596 706 596Q664 596 646.5 585.5Q629 575 629 537V510H784V414H629Z" glyph-name="f_f_b" horiz-adv-x="1405" unicode="&#57896;" /><glyph d="M236 0H104V414H21V499L104 506V530Q104 580 116.5 611.5Q129 643 152.5 660.5Q176 678 210.5 684Q245 690 290 690Q307 690 342.5 688Q378 686 412 678V588Q400 590 385 591.5Q370 593 355.5 594Q341 595 329.5 595.5Q318 596 313 596Q271 596 253.5 585.5Q236 575 236 537V510H369V414H236ZM629 0H497V414H413V499L497 506V530Q497 580 509.5 611.5Q522 643 545.5 660.5Q569 678 603.5 684Q638 690 683 690Q698 690 725.5 688Q753 686 784 678V588Q762 593 739 594.5Q716 596 706 596Q664 596 646.5 585.5Q629 575 629 537V510H784V414H629ZM994 0H862V510H994Z" glyph-name="f_f_dotlessi" horiz-adv-x="1070" unicode="&#59249;" /><glyph d="M236 0H104V414H21V499L104 506V530Q104 580 116.5 611.5Q129 643 152.5 660.5Q176 678 210.5 684Q245 690 290 690Q307 690 342.5 688Q378 686 412 678V588Q400 590 385 591.5Q370 593 355.5 594Q341 595 329.5 595.5Q318 596 313 596Q271 596 253.5 585.5Q236 575 236 537V510H369V414H236ZM629 0H497V414H413V499L497 506V530Q497 580 509.5 611.5Q522 643 545.5 660.5Q569 678 603.5 684Q638 690 683 690Q698 690 725.5 688Q753 686 784 678V588Q762 593 739 594.5Q716 596 706 596Q664 596 646.5 585.5Q629 575 629 537V510H784V414H629ZM862 678H994V463H996Q1036 495 1078.5 508.5Q1121 522 1164 522Q1259 522 1299 484.5Q1339 447 1339 363V0H1207V339Q1207 384 1190 400.5Q1173 417 1128 417Q1091 417 1054 398Q1017 379 994 351V0H862Z" glyph-name="f_f_h" horiz-adv-x="1406" unicode="&#57897;" /><glyph d="M236 0H104V414H21V499L104 506V530Q104 580 116.5 611.5Q129 643 152.5 660.5Q176 678 210.5 684Q245 690 290 690Q307 690 342.5 688Q378 686 412 678V588Q400 590 385 591.5Q370 593 355.5 594Q341 595 329.5 595.5Q318 596 313 596Q271 596 253.5 585.5Q236 575 236 537V510H369V414H236ZM629 0H497V414H413V499L497 506V530Q497 580 509.5 611.5Q522 643 545.5 660.5Q569 678 603.5 684Q638 690 683 690Q698 690 725.5 688Q753 686 784 678V588Q762 593 739 594.5Q716 596 706 596Q664 596 646.5 585.5Q629 575 629 537V510H784V414H629ZM1002 570H857V678H1002ZM994 0H862V510H994Z" glyph-name="f_f_i" horiz-adv-x="1070" unicode="&#64259;" /><glyph d="M236 0H104V414H21V499L104 506V530Q104 580 116.5 611.5Q129 643 152.5 660.5Q176 678 210.5 684Q245 690 290 690Q307 690 342.5 688Q378 686 412 678V588Q400 590 385 591.5Q370 593 355.5 594Q341 595 329.5 595.5Q318 596 313 596Q271 596 253.5 585.5Q236 575 236 537V510H369V414H236ZM629 0H497V414H413V499L497 506V530Q497 580 509.5 611.5Q522 643 545.5 660.5Q569 678 603.5 684Q638 690 683 690Q698 690 725.5 688Q753 686 784 678V588Q762 593 739 594.5Q716 596 706 596Q664 596 646.5 585.5Q629 575 629 537V510H784V414H629ZM805 -168Q831 -124 846.5 -63.5Q862 -3 862 60V510H994V163Q994 107 993 61Q992 15 985.5 -24.5Q979 -64 965 -99Q951 -134 926 -168ZM1002 570H857V678H1002Z" glyph-name="f_f_j" horiz-adv-x="1070" unicode="&#57898;" /><glyph d="M1164 275 1352 0H1198L1053 219H994V0H862V678H994V318H1053L1181 510H1326ZM236 0H104V414H21V499L104 506V530Q104 580 116.5 611.5Q129 643 152.5 660.5Q176 678 210.5 684Q245 690 290 690Q307 690 342.5 688Q378 686 412 678V588Q400 590 385 591.5Q370 593 355.5 594Q341 595 329.5 595.5Q318 596 313 596Q271 596 253.5 585.5Q236 575 236 537V510H369V414H236ZM629 0H497V414H413V499L497 506V530Q497 580 509.5 611.5Q522 643 545.5 660.5Q569 678 603.5 684Q638 690 683 690Q698 690 725.5 688Q753 686 784 678V588Q762 593 739 594.5Q716 596 706 596Q664 596 646.5 585.5Q629 575 629 537V510H784V414H629Z" glyph-name="f_f_k" horiz-adv-x="1355" unicode="&#58245;" /><glyph d="M236 0H104V414H21V499L104 506V530Q104 580 116.5 611.5Q129 643 152.5 660.5Q176 678 210.5 684Q245 690 290 690Q307 690 342.5 688Q378 686 412 678V588Q400 590 385 591.5Q370 593 355.5 594Q341 595 329.5 595.5Q318 596 313 596Q271 596 253.5 585.5Q236 575 236 537V510H369V414H236ZM629 0H497V414H413V499L497 506V530Q497 580 509.5 611.5Q522 643 545.5 660.5Q569 678 603.5 684Q638 690 683 690Q698 690 725.5 688Q753 686 784 678V588Q762 593 739 594.5Q716 596 706 596Q664 596 646.5 585.5Q629 575 629 537V510H784V414H629ZM994 0H862V678H994Z" glyph-name="f_f_l" horiz-adv-x="1070" unicode="&#64260;" /><glyph d="M1182 10Q1167 4 1149.5 0Q1132 -4 1114 -6Q1096 -8 1079 -9Q1062 -10 1049 -10Q1005 -10 974.5 -1.5Q944 7 925 27.5Q906 48 898 83Q890 118 890 171V414H805V499L902 511L935 624H1023V510H1180V414H1022V174Q1022 147 1026 131.5Q1030 116 1039 107.5Q1048 99 1062.5 96.5Q1077 94 1097 94Q1110 94 1136 97Q1162 100 1182 105ZM629 0H497V414H412V499L497 506V530Q497 580 509.5 611.5Q522 643 545.5 660.5Q569 678 603.5 684Q638 690 683 690Q700 690 735.5 688Q771 686 805 678V588Q793 590 778 591.5Q763 593 748.5 594Q734 595 722.5 595.5Q711 596 706 596Q664 596 646.5 585.5Q629 575 629 537V510H762V414H629ZM236 0H104V414H21V499L104 506V530Q104 580 116.5 611.5Q129 643 152.5 660.5Q176 678 210.5 684Q245 690 290 690Q307 690 342.5 688Q378 686 412 678V588Q400 590 385 591.5Q370 593 355.5 594Q341 595 329.5 595.5Q318 596 313 596Q271 596 253.5 585.5Q236 575 236 537V510H369V414H236Z" glyph-name="f_f_t" horiz-adv-x="1206" unicode="&#57904;" /><glyph d="M236 0H104V414H21V499L104 506V530Q104 580 116.5 611.5Q129 643 152.5 660.5Q176 678 210.5 684Q245 690 290 690Q305 690 332.5 688Q360 686 391 678V588Q369 593 346 594.5Q323 596 313 596Q271 596 253.5 585.5Q236 575 236 537V510H391V414H236ZM469 678H601V463H603Q643 495 685.5 508.5Q728 522 771 522Q866 522 906 484.5Q946 447 946 363V0H814V339Q814 384 797 400.5Q780 417 735 417Q698 417 661 398Q624 379 601 351V0H469Z" glyph-name="f_h" horiz-adv-x="1013" unicode="&#58246;" /><glyph d="M412 -168Q438 -124 453.5 -63.5Q469 -3 469 60V510H601V163Q601 107 600 61Q599 15 592.5 -24.5Q586 -64 572 -99Q558 -134 533 -168ZM609 570H464V678H609ZM236 0H104V414H21V499L104 506V530Q104 580 116.5 611.5Q129 643 152.5 660.5Q176 678 210.5 684Q245 690 290 690Q305 690 332.5 688Q360 686 391 678V588Q369 593 346 594.5Q323 596 313 596Q271 596 253.5 585.5Q236 575 236 537V510H391V414H236Z" glyph-name="f_j" horiz-adv-x="677" unicode="&#58247;" /><glyph d="M771 275 959 0H805L660 219H601V0H469V678H601V318H660L788 510H933ZM236 0H104V414H21V499L104 506V530Q104 580 116.5 611.5Q129 643 152.5 660.5Q176 678 210.5 684Q245 690 290 690Q305 690 332.5 688Q360 686 391 678V588Q369 593 346 594.5Q323 596 313 596Q271 596 253.5 585.5Q236 575 236 537V510H391V414H236Z" glyph-name="f_k" horiz-adv-x="962" unicode="&#58248;" /><glyph d="M789 10Q774 4 756.5 0Q739 -4 721 -6Q703 -8 686 -9Q669 -10 656 -10Q612 -10 581.5 -1.5Q551 7 532 27.5Q513 48 505 83Q497 118 497 171V414H412V499L509 511L542 624H630V510H787V414H629V174Q629 147 633 131.5Q637 116 646 107.5Q655 99 669.5 96.5Q684 94 704 94Q717 94 743 97Q769 100 789 105ZM236 0H104V414H21V499L104 506V530Q104 580 116.5 611.5Q129 643 152.5 660.5Q176 678 210.5 684Q245 690 290 690Q307 690 342.5 688Q378 686 412 678V588Q400 590 385 591.5Q370 593 355.5 594Q341 595 329.5 595.5Q318 596 313 596Q271 596 253.5 585.5Q236 575 236 537V510H369V414H236Z" glyph-name="f_t" horiz-adv-x="813" unicode="&#59250;" /><glyph d="M803 10Q788 4 769 0Q750 -4 730.5 -6Q711 -8 693 -9Q675 -10 662 -10Q617 -10 585.5 -1.5Q554 7 534.5 27.5Q515 48 506 83Q497 118 497 171V414H410V499L509 511L542 624H630V510H779V414H629V174Q629 147 634 131.5Q639 116 649 107.5Q659 99 674 96.5Q689 94 710 94Q717 94 728.5 94.5Q740 95 753 96.5Q766 98 779.5 100Q793 102 803 105ZM1199 10Q1184 4 1166.5 0Q1149 -4 1131 -6Q1113 -8 1096 -9Q1079 -10 1066 -10Q1022 -10 991.5 -1.5Q961 7 942 27.5Q923 48 915 83Q907 118 907 171V414H823V499L919 511L952 624H1040V510H1197V414H1039V174Q1039 147 1043 131.5Q1047 116 1056 107.5Q1065 99 1079.5 96.5Q1094 94 1114 94Q1127 94 1153 97Q1179 100 1199 105ZM236 0H104V414H21V499L104 506V530Q104 580 116.5 611.5Q129 643 152.5 660.5Q176 678 210.5 684Q245 690 290 690Q307 690 342.5 688Q378 686 412 678V588Q400 590 385 591.5Q370 593 355.5 594Q341 595 329.5 595.5Q318 596 313 596Q271 596 253.5 585.5Q236 575 236 537V510H369V414H236Z" glyph-name="f_t_t" horiz-adv-x="1223" unicode="&#59251;" /><glyph d="M629 0H497V414H412V499L497 506V530Q497 580 509.5 611.5Q522 643 545.5 660.5Q569 678 603.5 684Q638 690 683 690Q700 690 735.5 688Q771 686 805 678V588Q793 590 778 591.5Q763 593 748.5 594Q734 595 722.5 595.5Q711 596 706 596Q664 596 646.5 585.5Q629 575 629 537V510H794V414H629ZM236 0H104V414H21V499L104 506V530Q104 580 116.5 611.5Q129 643 152.5 660.5Q176 678 210.5 684Q245 690 290 690Q307 690 342.5 688Q378 686 412 678V588Q400 590 385 591.5Q370 593 355.5 594Q341 595 329.5 595.5Q318 596 313 596Q271 596 253.5 585.5Q236 575 236 537V510H369V414H236Z" glyph-name="ff" horiz-adv-x="796" unicode="&#58249;" /><glyph d="M236 0H104V414H21V499L104 506V530Q104 580 116.5 611.5Q129 643 152.5 660.5Q176 678 210.5 684Q245 690 290 690Q307 690 342.5 688Q378 686 412 678V588Q400 590 385 591.5Q370 593 355.5 594Q341 595 329.5 595.5Q318 596 313 596Q271 596 253.5 585.5Q236 575 236 537V510H369V414H236ZM629 0H497V414H413V499L497 506V530Q497 580 509.5 611.5Q522 643 545.5 660.5Q569 678 603.5 684Q638 690 683 690Q698 690 725.5 688Q753 686 784 678V588Q762 593 739 594.5Q716 596 706 596Q664 596 646.5 585.5Q629 575 629 537V510H784V414H629ZM1002 570H857V678H1002ZM994 0H862V510H994Z" glyph-name="ffi" horiz-adv-x="1070" unicode="&#58250;" /><glyph d="M236 0H104V414H21V499L104 506V530Q104 580 116.5 611.5Q129 643 152.5 660.5Q176 678 210.5 684Q245 690 290 690Q307 690 342.5 688Q378 686 412 678V588Q400 590 385 591.5Q370 593 355.5 594Q341 595 329.5 595.5Q318 596 313 596Q271 596 253.5 585.5Q236 575 236 537V510H369V414H236ZM629 0H497V414H413V499L497 506V530Q497 580 509.5 611.5Q522 643 545.5 660.5Q569 678 603.5 684Q638 690 683 690Q698 690 725.5 688Q753 686 784 678V588Q762 593 739 594.5Q716 596 706 596Q664 596 646.5 585.5Q629 575 629 537V510H784V414H629ZM994 0H862V678H994Z" glyph-name="ffl" horiz-adv-x="1070" unicode="&#58251;" /><glyph d="M609 570H464V678H609ZM601 0H469V510H601ZM236 0H104V414H21V499L104 506V530Q104 580 116.5 611.5Q129 643 152.5 660.5Q176 678 210.5 684Q245 690 290 690Q305 690 332.5 688Q360 686 391 678V588Q369 593 346 594.5Q323 596 313 596Q271 596 253.5 585.5Q236 575 236 537V510H391V414H236Z" glyph-name="fi" horiz-adv-x="677" unicode="&#64257;" /><glyph d="M853 215H47V322H853Z" glyph-name="figuredash" horiz-adv-x="900" unicode="&#8210;" /><glyph d="M853 292H47V399H853Z" glyph-name="figuredash.cap" horiz-adv-x="900" unicode="&#58503;" /><glyph glyph-name="figurespace" horiz-adv-x="700" unicode="&#8199;" /><glyph d="M288 188 439 339 288 490 345 546 495 395 646 546 703 490 552 339 703 188 646 132 495 282 345 132ZM236 80H754V598H236ZM156 678H834V0H156Z" glyph-name="filledbox" horiz-adv-x="990" unicode="&#9632;" /><glyph d="M356 164 446 254 356 345 405 393 495 303 585 393 634 345 543 254 634 164 585 116 495 206 405 116ZM315 75H675V435H315ZM240 510H750V0H240Z" glyph-name="filledsmallbox" horiz-adv-x="990" unicode="&#59252;" /><glyph d="M81 558H497V457H213V293Q228 294 237 294Q246 294 253 294Q308 294 360 286Q412 278 452 255Q492 232 516.5 191Q541 150 541 83Q541 30 520 -11Q499 -52 462 -80Q425 -108 374 -122Q323 -136 264 -136Q246 -136 223 -134.5Q200 -133 174.5 -129.5Q149 -126 123 -121Q97 -116 75 -109V-8Q127 -21 175 -25Q223 -29 250 -29Q327 -29 365.5 -3Q404 23 404 81Q404 120 388 142Q372 164 348.5 174.5Q325 185 297.5 187.5Q270 190 247 190Q243 190 226 190Q209 190 185 189Q161 188 133 187Q105 186 81 184Z" glyph-name="five" horiz-adv-x="586" unicode="5" /><glyph d="M88 678H504V577H220V413Q235 414 244 414Q253 414 260 414Q315 414 367 406Q419 398 459 375Q499 352 523.5 311Q548 270 548 203Q548 150 527 109Q506 68 469 40Q432 12 381 -2Q330 -16 271 -16Q253 -16 230 -14.5Q207 -13 181.5 -9.5Q156 -6 130 -1Q104 4 82 11V112Q134 99 182 95Q230 91 257 91Q334 91 372.5 117Q411 143 411 201Q411 240 395 262Q379 284 355.5 294.5Q332 305 304.5 307.5Q277 310 254 310Q250 310 233 310Q216 310 192 309Q168 308 140 307Q112 306 88 304Z" glyph-name="five.LP" horiz-adv-x="587" unicode="&#58682;" /><glyph d="M122 678H538V577H254V413Q269 414 278 414Q287 414 294 414Q349 414 401 406Q453 398 493 375Q533 352 557.5 311Q582 270 582 203Q582 150 561 109Q540 68 503 40Q466 12 415 -2Q364 -16 305 -16Q287 -16 264 -14.5Q241 -13 215.5 -9.5Q190 -6 164 -1Q138 4 116 11V112Q168 99 216 95Q264 91 291 91Q368 91 406.5 117Q445 143 445 201Q445 240 429 262Q413 284 389.5 294.5Q366 305 338.5 307.5Q311 310 288 310Q284 310 267 310Q250 310 226 309Q202 308 174 307Q146 306 122 304Z" glyph-name="five.LT" horiz-adv-x="660" unicode="&#58693;" /><glyph d="M122 558H538V457H254V293Q269 294 278 294Q287 294 294 294Q349 294 401 286Q453 278 493 255Q533 232 557.5 191Q582 150 582 83Q582 30 561 -11Q540 -52 503 -80Q466 -108 415 -122Q364 -136 305 -136Q287 -136 264 -134.5Q241 -133 215.5 -129.5Q190 -126 164 -121Q138 -116 116 -109V-8Q168 -21 216 -25Q264 -29 291 -29Q368 -29 406.5 -3Q445 23 445 81Q445 120 429 142Q413 164 389.5 174.5Q366 185 338.5 187.5Q311 190 288 190Q284 190 267 190Q250 190 226 189Q202 188 174 187Q146 186 122 184Z" glyph-name="five.OT" horiz-adv-x="660" unicode="&#58715;" /><glyph d="M150 -103Q180 -103 194.5 -93.5Q209 -84 209 -58Q209 -43 202.5 -34.5Q196 -26 185.5 -21.5Q175 -17 161.5 -15.5Q148 -14 135 -14Q120 -14 94 -15Q68 -16 45 -18V190H286V120H139V57H162Q194 57 221 51.5Q248 46 267.5 33Q287 20 298 -1.5Q309 -23 309 -55Q309 -85 297 -107.5Q285 -130 264 -145.5Q243 -161 214 -168.5Q185 -176 152 -176Q132 -176 101.5 -171.5Q71 -167 43 -158V-87Q78 -95 105.5 -99Q133 -103 150 -103Z" glyph-name="five.inf" horiz-adv-x="329" unicode="&#58742;" /><glyph d="M601 0H469V678H601ZM236 0H104V414H21V499L104 506V530Q104 580 116.5 611.5Q129 643 152.5 660.5Q176 678 210.5 684Q245 690 290 690Q305 690 332.5 688Q360 686 391 678V588Q369 593 346 594.5Q323 596 313 596Q271 596 253.5 585.5Q236 575 236 537V510H391V414H236Z" glyph-name="fl" horiz-adv-x="677" unicode="&#64258;" /><glyph d="M-2 -23Q15 -26 30 -27Q45 -28 53 -28Q77 -28 92.5 -24Q108 -20 117.5 -10Q127 0 132.5 16Q138 32 141 55L163 239H92V340H172L180 399Q186 442 199 475Q212 508 235 530Q258 552 292 563Q326 574 374 574Q394 574 427.5 570.5Q461 567 499 551V455Q471 467 442.5 470Q414 473 402 473Q376 473 360 468.5Q344 464 334 453.5Q324 443 318.5 426Q313 409 310 384L304 340H450V239H294L270 32Q261 -41 223.5 -85Q186 -129 105 -129Q88 -129 56.5 -127Q25 -125 -2 -118Z" glyph-name="florin" horiz-adv-x="522" unicode="&#402;" /><glyph d="M63 -19Q83 -23 98.5 -24Q114 -25 122 -25Q145 -25 160 -21Q175 -17 184.5 -7.5Q194 2 199 17Q204 32 206 55L230 292H162V399H240L252 515Q265 604 313 649Q361 694 459 694Q479 694 514 690.5Q549 687 588 670V566Q556 580 527 583.5Q498 587 487 587Q442 587 423 567Q404 547 396 499L386 399H535V292H376L350 31Q346 -6 334 -36.5Q322 -67 301 -88.5Q280 -110 249 -122Q218 -134 176 -134Q167 -134 154 -133.5Q141 -133 125.5 -131.5Q110 -130 94 -128Q78 -126 63 -122Z" glyph-name="florin.LP" horiz-adv-x="660" unicode="&#58661;" /><glyph d="M385 340H496V130H570V29H496V-118H364V29H31L25 132L271 558H406L170 130L171 128Q193 129 217 129.5Q241 130 261 130Q281 130 295 130Q309 130 312 130H366Z" glyph-name="four" horiz-adv-x="590" unicode="4" /><glyph d="M392 458H503V248H577V147H503V0H371V147H38L32 250L278 676H413L177 248L178 246Q200 247 224 247.5Q248 248 268 248Q288 248 302 248Q316 248 319 248H373Z" glyph-name="four.LP" horiz-adv-x="603" unicode="&#58681;" /><glyph d="M424 458H535V248H609V147H535V0H403V147H70L64 250L310 676H445L209 248L210 246Q232 247 256 247.5Q280 248 300 248Q320 248 334 248Q348 248 351 248H405Z" glyph-name="four.LT" horiz-adv-x="660" unicode="&#58692;" /><glyph d="M424 340H535V130H609V29H535V-118H403V29H70L64 132L310 558H445L209 130L210 128Q232 129 256 129.5Q280 130 300 130Q320 130 334 130Q348 130 351 130H405Z" glyph-name="four.OT" horiz-adv-x="660" unicode="&#58714;" /><glyph d="M282 -168H188V-94H20L15 -27L143 190H236L116 -23V-24L196 -23L208 78H282V-23H320V-94H282Z" glyph-name="four.inf" horiz-adv-x="329" unicode="&#58741;" /><glyph glyph-name="fourperemspace" horiz-adv-x="250" unicode="&#8197;" /><glyph d="M-98 0H-206L278 678H386Z" glyph-name="fraction" horiz-adv-x="180" unicode="&#8260;" /><glyph d="M35 375H127V558H516V457H258V375H425V307H258V261H425V193H258V0H127V193H35V261H127V307H35Z" glyph-name="franc" horiz-adv-x="516" unicode="&#8355;" /></font>
</defs>
</svg>
